<?xml version="1.0" encoding="UTF-8"?>
<svg version="1.1" xmlns="http://www.w3.org/2000/svg" width="1024" height="882">
<path d="M0 0 C3.46813356 2.88492034 6.5742753 6.0521139 9.6875 9.3125 C10.89116211 10.53743164 10.89116211 10.53743164 12.11914062 11.78710938 C16.92349413 16.70912051 21.53895402 21.76569664 26 27 C26.45076904 27.52875732 26.90153809 28.05751465 27.3659668 28.60229492 C32.04034464 34.12507642 36.60882157 39.72040099 41.0234375 45.453125 C47.25554137 53.48342485 53.54158391 61.48558439 60.3125 69.0703125 C62.32930706 71.37656872 64.25684856 73.74616162 66.1875 76.125 C90.15677201 105.86587293 90.15677201 105.86587293 118.52734375 131.16015625 C122.60630361 134.19521169 126.51243692 137.44871965 130.45898438 140.65307617 C134.63514107 144.00770255 138.87061491 147.00514976 143.55859375 149.62109375 C145 151 145 151 145.484375 153.46484375 C145 156 145 156 143.26953125 157.6953125 C121.82589581 170.17284918 95.98180847 165.26244233 73 160 C73.49628906 160.88558594 73.99257813 161.77117187 74.50390625 162.68359375 C91.45469193 193.3872204 91.45469193 193.3872204 88.44140625 205.1875 C87.38554751 207.90100225 86.66607819 209.66696091 84 211 C75.52316505 211.86498316 68.7149466 208.08047072 62.2265625 202.94921875 C53.59539995 195.39316592 46.04562248 187.03832379 39 178 C39.13277344 178.7734375 39.26554687 179.546875 39.40234375 180.34375 C39.57894531 181.3853125 39.75554687 182.426875 39.9375 183.5 C40.11152344 184.5209375 40.28554688 185.541875 40.46484375 186.59375 C42.77496134 201.29756417 44.60730459 216.64655573 35.8125 229.625 C32.52666142 232.39970813 30.49708067 233.05073564 26.26171875 233.21875 C19.4864289 232.56345426 15.20659027 227.65817229 11.0390625 222.734375 C3.83592917 213.07500081 -1.09501766 201.94424184 -6 191 C-6.33 191 -6.66 191 -7 191 C-7.2333606 192.17804199 -7.2333606 192.17804199 -7.47143555 193.37988281 C-8.19734091 197.00594658 -8.94230001 200.62785434 -9.6875 204.25 C-10.05391602 206.10238281 -10.05391602 206.10238281 -10.42773438 207.9921875 C-13.21686475 221.40825766 -17.08078752 234.06180449 -29 242 C-31.6875 242.25 -31.6875 242.25 -34 242 C-35.69629633 240.30370367 -35.37099145 238.05436699 -35.578125 235.7265625 C-39.84462495 190.61383692 -52.03716414 150.22667001 -71.43359375 109.33642578 C-77.7654595 95.84963069 -83.71235225 82.28463697 -88 68 C-88.98811102 74.83540329 -89.89544928 81.66396351 -90.51953125 88.54296875 C-92.18056968 106.36253275 -95.0232568 123.88612678 -98.13134766 141.50561523 C-102.34977105 165.60686268 -103.27726919 189.01764371 -103.1373291 213.42773438 C-103.11652827 217.45115004 -103.10766373 221.47459245 -103.09765625 225.49804688 C-103.07648106 233.33210212 -103.04254369 241.16602846 -103 249 C-110.88218211 247.65440125 -115.6757343 242.09135009 -120.3671875 235.8515625 C-126.11748479 227.37646724 -130.57425631 218.21195518 -135 209 C-135.56589844 207.93523437 -136.13179687 206.87046875 -136.71484375 205.7734375 C-138.29601985 202.36117297 -138.2229823 199.71637173 -138 196 C-138.66 196 -139.32 196 -140 196 C-140.10957031 197.15757812 -140.21914063 198.31515625 -140.33203125 199.5078125 C-140.88468618 203.89240118 -142.0949022 207.76700484 -143.6875 211.875 C-143.95369141 212.56972412 -144.21988281 213.26444824 -144.49414062 213.98022461 C-148.24031257 223.46575233 -153.32908922 233.13895436 -161.9375 239 C-165.91884176 240.30002996 -167.99720656 240.28661218 -172 239 C-179.82841806 232.68495155 -182.44635789 222.30422774 -184.625 212.9375 C-184.82867187 212.09123047 -185.03234375 211.24496094 -185.2421875 210.37304688 C-185.64155734 208.71284596 -186.03783032 207.05189633 -186.43066406 205.39013672 C-187.25745967 201.91915517 -188.1280297 198.45988216 -189 195 C-189.57105469 195.7528125 -190.14210938 196.505625 -190.73046875 197.28125 C-193.46481791 200.87144471 -196.22852939 204.43841336 -199 208 C-199.5347998 208.6894873 -200.06959961 209.37897461 -200.62060547 210.08935547 C-202.27725277 212.21472703 -203.94909055 214.327296 -205.625 216.4375 C-206.13828857 217.09878906 -206.65157715 217.76007813 -207.18041992 218.44140625 C-213.22534764 225.98587312 -220.55083081 231.51418915 -230 234 C-234.03911574 234 -236.18746272 233.45350918 -239.6875 231.5 C-248.92651867 221.51187171 -248.30521045 206.3480009 -248.16796875 193.5546875 C-248 190 -248 190 -247 187 C-248.06476563 187.60328125 -249.12953125 188.2065625 -250.2265625 188.828125 C-269.95914464 199.77873688 -290.59127673 204.57565954 -312.7890625 198.65625 C-313.51867187 198.4396875 -314.24828125 198.223125 -315 198 C-315.33 196.68 -315.66 195.36 -316 194 C-316.66 194 -317.32 194 -318 194 C-318 193.34 -318 192.68 -318 192 C-316.02674218 190.62488596 -314.0548524 189.36796443 -312 188.125 C-293.01491269 176.22339151 -275.59158273 161.93119667 -262 144 C-261.54737793 143.4112207 -261.09475586 142.82244141 -260.62841797 142.21582031 C-254.02571798 133.55354206 -248.3949487 124.50173916 -243.1875 114.9375 C-242.67276123 113.99358398 -242.15802246 113.04966797 -241.62768555 112.07714844 C-237.64572612 104.58965969 -234.24386545 96.89997481 -230.90634155 89.11166382 C-228.46603674 83.42605516 -225.9830538 77.75879379 -223.50268555 72.09057617 C-222.87552459 70.65434338 -222.25052574 69.21716455 -221.62768555 67.77905273 C-217.67823613 58.66549438 -213.45280107 49.8162164 -208.67333984 41.10693359 C-207.35516578 38.65944555 -206.16071275 36.23731911 -205.0625 33.6875 C-198.0573569 19.55485322 -181.29293972 6.64014115 -166.625 1.625 C-154.36716861 -2.17459733 -141.84898253 -2.3511534 -130 3 C-130 3.66 -130 4.32 -130 5 C-129.21625 5.04125 -128.4325 5.0825 -127.625 5.125 C-116.03934802 7.92153669 -106.74441675 17.17016101 -100.65917969 27.08837891 C-94.61707324 37.52655997 -91.60403382 48.09638057 -90 60 C-90.02320313 59.22398437 -90.04640625 58.44796875 -90.0703125 57.6484375 C-90.34872602 40.98339964 -88.17520132 26.39367681 -76.52246094 13.80102539 C-56.0587035 -7.0175423 -26.06904816 -16.00285323 0 0 Z " fill="#01A39E" transform="translate(597,207)"/>
<path d="M0 0 C3.46813356 2.88492034 6.5742753 6.0521139 9.6875 9.3125 C10.48994141 10.12912109 11.29238281 10.94574219 12.11914062 11.78710938 C16.92349413 16.70912051 21.53895402 21.76569664 26 27 C26.45076904 27.52875732 26.90153809 28.05751465 27.3659668 28.60229492 C32.04034464 34.12507642 36.60882157 39.72040099 41.0234375 45.453125 C47.25554137 53.48342485 53.54158391 61.48558439 60.3125 69.0703125 C62.32930706 71.37656872 64.25684856 73.74616162 66.1875 76.125 C90.15677201 105.86587293 90.15677201 105.86587293 118.52734375 131.16015625 C122.60630361 134.19521169 126.51243692 137.44871965 130.45898438 140.65307617 C134.63514107 144.00770255 138.87061491 147.00514976 143.55859375 149.62109375 C145 151 145 151 145.484375 153.46484375 C145 156 145 156 143.26953125 157.6953125 C121.82589581 170.17284918 95.98180847 165.26244233 73 160 C73.49628906 160.88558594 73.99257813 161.77117187 74.50390625 162.68359375 C91.45469193 193.3872204 91.45469193 193.3872204 88.44140625 205.1875 C87.38554751 207.90100225 86.66607819 209.66696091 84 211 C75.52316505 211.86498316 68.7149466 208.08047072 62.2265625 202.94921875 C53.59539995 195.39316592 46.04562248 187.03832379 39 178 C39.13277344 178.7734375 39.26554688 179.546875 39.40234375 180.34375 C39.66724609 181.90609375 39.66724609 181.90609375 39.9375 183.5 C40.11152344 184.5209375 40.28554688 185.541875 40.46484375 186.59375 C42.77496134 201.29756417 44.60730459 216.64655573 35.8125 229.625 C32.52666142 232.39970813 30.49708067 233.05073564 26.26171875 233.21875 C19.4864289 232.56345426 15.20659027 227.65817229 11.0390625 222.734375 C3.83592917 213.07500081 -1.09501766 201.94424184 -6 191 C-6.33 191 -6.66 191 -7 191 C-7.15557373 191.78536133 -7.31114746 192.57072266 -7.47143555 193.37988281 C-8.19734091 197.00594658 -8.94230001 200.62785434 -9.6875 204.25 C-9.93177734 205.48492187 -10.17605469 206.71984375 -10.42773438 207.9921875 C-13.21686475 221.40825766 -17.08078752 234.06180449 -29 242 C-31.6875 242.25 -31.6875 242.25 -34 242 C-35.69629633 240.30370367 -35.37099145 238.05436699 -35.578125 235.7265625 C-39.84462495 190.61383692 -52.03716414 150.22667001 -71.43359375 109.33642578 C-77.77842573 95.82201277 -83.58729014 82.26776188 -88 68 C-88.66 72.95 -89.32 77.9 -90 83 C-90.33 83 -90.66 83 -91 83 C-91.02887512 79.35418313 -91.04675585 75.70839537 -91.0625 72.0625 C-91.07087891 71.02158203 -91.07925781 69.98066406 -91.08789062 68.90820312 C-91.09272461 67.42416992 -91.09272461 67.42416992 -91.09765625 65.91015625 C-91.10289307 64.99371338 -91.10812988 64.07727051 -91.11352539 63.13305664 C-91 61 -91 61 -90 60 C-89.97883444 58.10417035 -90.00991855 56.20771852 -90.0625 54.3125 C-90.09872357 37.7221066 -86.67998422 24.13466459 -74.875 12.125 C-54.43616152 -7.64376102 -25.23403138 -15.49026639 0 0 Z " fill="#F87E86" transform="translate(597,207)"/>
<path d="M0 0 C3.96 0 7.92 0 12 0 C13.18527545 13.63066764 2.95295895 26.04382226 -4 37 C8.66752146 37.43068884 8.66752146 37.43068884 21 35 C24.09265566 31.62207742 25.99269482 28.23124416 27.796875 24.04296875 C28.28027344 22.93115234 28.76367188 21.81933594 29.26171875 20.67382812 C29.75285156 19.52333984 30.24398437 18.37285156 30.75 17.1875 C31.25660156 16.01767578 31.76320313 14.84785156 32.28515625 13.64257812 C33.53032062 10.76460387 34.76832223 7.88376567 36 5 C42.14981336 4.85409695 43.63977941 5.84740896 48 10 C47.42815389 13.54490204 46.52451204 16.23989451 44.75 19.35546875 C44.3065625 20.14244141 43.863125 20.92941406 43.40625 21.74023438 C42.71015625 22.95163086 42.71015625 22.95163086 42 24.1875 C41.08319683 25.80591226 40.16652385 27.42439829 39.25 29.04296875 C38.84265625 29.75477295 38.4353125 30.46657715 38.015625 31.19995117 C37.31103624 32.44873313 36.64123345 33.7175331 36 35 C39.465 34.505 39.465 34.505 43 34 C44.5625 36.25 44.5625 36.25 46 39 C45.58984375 41.171875 45.58984375 41.171875 45 43 C44.10796875 43.09796875 43.2159375 43.1959375 42.296875 43.296875 C41.12640625 43.44640625 39.9559375 43.5959375 38.75 43.75 C37.58984375 43.88921875 36.4296875 44.0284375 35.234375 44.171875 C31.39482618 45.15494789 30.5196087 45.98075218 28 49 C26.39556855 51.7527461 25.03375259 54.60541151 23.671875 57.484375 C23.08107147 58.70776581 23.08107147 58.70776581 22.47833252 59.95587158 C21.2276774 62.55021191 19.98871808 65.14994228 18.75 67.75 C17.90180844 69.51469167 17.05285844 71.27901901 16.203125 73.04296875 C14.12660669 77.35780796 12.06055665 81.67751699 10 86 C11.75129657 84.89789095 13.50098464 83.79322568 15.25 82.6875 C16.22453125 82.07261719 17.1990625 81.45773437 18.203125 80.82421875 C19.91973896 79.70458367 21.61042031 78.54218477 23.25 77.3125 C26.74204334 74.6934675 30.72410362 74.59196423 35.03125 74.65625 C38.55230885 75.27103805 39.98766291 77.19492405 42 80 C43.26371783 84.73561627 42.76202315 87.77939532 41.1875 92.375 C39.55408773 97.22216566 38.19633847 102.03059406 37 107 C47.01772395 102.16012797 55.31846094 97.2117463 63 89 C63.66257812 88.31550781 64.32515625 87.63101563 65.0078125 86.92578125 C69.38391412 81.58286648 69.49820935 76.41013563 68.86791992 69.75927734 C68.58385654 65.86832514 68.91909267 63.56597348 71.30078125 60.546875 C74 58 74 58 77.125 57.4375 C80.32439719 58.06346901 81.0679473 58.46452682 83 61 C83.51171875 63.48046875 83.51171875 63.48046875 83.6875 66.1875 C83.75324219 67.08855469 83.81898438 67.98960937 83.88671875 68.91796875 C83.92410156 69.60503906 83.96148438 70.29210937 84 71 C84.61488281 71.24234375 85.22976563 71.4846875 85.86328125 71.734375 C86.67152344 72.06953125 87.47976563 72.4046875 88.3125 72.75 C89.11300781 73.07484375 89.91351562 73.3996875 90.73828125 73.734375 C94.05020315 75.58767844 95.5868471 77.5898374 96.65234375 81.2265625 C97.47450327 88.14171244 96.06039266 92.81901024 93 99 C92.61714844 99.7940625 92.23429687 100.588125 91.83984375 101.40625 C90.91791098 103.28315973 89.96257483 105.14360568 89 107 C103.09834327 101.80061099 117.17568965 93.51755206 126 81 C130.875 81.875 130.875 81.875 132 83 C132.41116787 86.62855644 132.38674474 88.42883532 130.3125 91.4921875 C129.1678125 92.67167969 129.1678125 92.67167969 128 93.875 C127.16855469 94.73609375 126.33710937 95.5971875 125.48046875 96.484375 C124.25263672 97.72960937 124.25263672 97.72960937 123 99 C122.37738281 99.70640625 121.75476563 100.4128125 121.11328125 101.140625 C112.54918834 110.57784669 99.45210938 117.65938491 86.625 118.4375 C82.40583279 117.92829016 81.5827467 117.24926198 79 114 C76.09837319 103.46157625 82.22841149 91.65824717 86 82 C81.06579833 83.24222517 79.1393056 84.53098439 76.4375 88.8125 C67.37900024 101.88556215 56.28731376 111.90422875 41 117 C35.69414624 117.34231315 32.26204172 117.53140599 28 114 C25.88864846 111.67751331 25.03043417 110.03476173 24.9375 106.875 C25.45981932 100.08484884 27.21042601 93.55051612 29 87 C18.37454932 94.57039343 9.68517905 101.97907035 1.4765625 112.109375 C1.03610596 112.64868652 0.59564941 113.18799805 0.1418457 113.74365234 C-1.13495291 115.31051521 -2.40168688 116.88556321 -3.66796875 118.4609375 C-5.78089581 120.76144435 -7.076889 122.01543751 -10 123 C-14.52631579 122.47368421 -14.52631579 122.47368421 -16 121 C-16.10276671 111.6482291 -11.48170616 104.00377086 -7.375 95.875 C-6.6106105 94.33690142 -5.84768972 92.79807212 -5.08618164 91.25854492 C-3.51719171 88.08903842 -1.94203805 84.9227089 -0.36279297 81.75830078 C3.00628413 74.99228581 6.28720759 68.18380873 9.56829834 61.37481689 C11.14772028 58.09855145 12.73233729 54.8248016 14.31640625 51.55078125 C15.21097796 49.7005404 16.10552635 47.85028826 17 46 C15.35369672 46.14042877 13.70795821 46.28749329 12.0625 46.4375 C11.14597656 46.51871094 10.22945312 46.59992188 9.28515625 46.68359375 C7.03840268 46.76044976 7.03840268 46.76044976 6 48 C2.6919318 48.20392201 -0.60882588 48.3462654 -3.921875 48.4296875 C-8.50523458 48.63189454 -11.3263764 49.26439438 -15 52 C-16.42589592 54.31000488 -16.42589592 54.31000488 -17.3671875 57.08203125 C-17.7806543 58.15533691 -18.19412109 59.22864258 -18.62011719 60.33447266 C-19.07547852 61.54409668 -19.53083984 62.7537207 -20 64 C-21.11377162 66.8011814 -22.24985447 69.59325241 -23.3828125 72.38671875 C-23.99396131 73.90475809 -24.60462822 75.42299151 -25.21484375 76.94140625 C-30.28900284 89.5520683 -35.40696911 102.10876614 -41 114.5 C-48.03961902 130.21796903 -53.46498933 145.93092813 -56 163 C-59.375 163.1875 -59.375 163.1875 -63 163 C-66.79958973 157.3006154 -65.29670543 150.77262284 -64.02270508 144.28930664 C-61.73040624 133.82012857 -57.56390054 124.2722099 -53.15039062 114.54492188 C-51.69371953 111.32243896 -50.28183091 108.08145201 -48.87231445 104.83813477 C-47.59011339 101.88830213 -46.29510821 98.94418491 -45 96 C-45.33 95.67 -45.66 95.34 -46 95 C-46.40089844 95.4846875 -46.80179688 95.969375 -47.21484375 96.46875 C-55.9278539 106.74259416 -66.60755714 116.59961107 -80.375 119.125 C-87.00131155 118.8965065 -92.2082913 116.65077609 -97 112 C-99.0855699 108.92130158 -99.06615749 106.65069057 -99 103 C-103.07400632 105.01927057 -107.13180896 107.06922272 -111.1875 109.125 C-112.33798828 109.69476562 -113.48847656 110.26453125 -114.67382812 110.8515625 C-128.94731987 118.13311191 -132.77712676 128.93169814 -138.8125 143.1875 C-148.38804428 165.42609689 -162.09175387 196.40778028 -186 206 C-193.30974501 208.56482281 -199.5885948 208.76776154 -206.85546875 206.09375 C-212.38367578 203.27426372 -214.98379744 198.75240777 -216.875 193 C-219.15037711 184.00684286 -217.81102214 176.40112384 -213.55859375 168.23046875 C-200.82106176 147.09976022 -175.60723135 134.48586227 -154 124 C-154.61488281 123.90203125 -155.22976563 123.8040625 -155.86328125 123.703125 C-162.39546599 122.49461873 -162.39546599 122.49461873 -165.0625 120.3125 C-168.04323745 112.96001428 -164.58042151 106.01552097 -162 99 C-163.55847656 99.39832031 -163.55847656 99.39832031 -165.1484375 99.8046875 C-172.73270717 101.7298692 -180.29852295 103.59299939 -188 105 C-188.2784375 106.2375 -188.2784375 106.2375 -188.5625 107.5 C-191.00845036 113.45535739 -194.81062974 117.67811607 -200.3125 121 C-206.01931145 122.54760988 -211.40952264 123.10233079 -216.9375 120.75 C-220.26903594 117.92324223 -222.39072852 115.38675467 -223 111 C-224.13295493 95.98834718 -218.90877168 80.80293293 -209.375 69.25 C-205.73747632 65.46697538 -203.0055071 64.27526568 -197.8125 63.5625 C-191.23674082 64.31709532 -185.8522202 66.92189929 -181.4375 71.875 C-177.90139825 79.56217772 -179.52588193 85.27012829 -182 93 C-166.50813212 89.50673567 -153.06021732 83.83371188 -141.5 72.5625 C-137.76162691 70.22601682 -134.29119459 70.19062878 -130 71 C-128.989375 71.70125 -127.97875 72.4025 -126.9375 73.125 C-124.28789304 75.25489913 -124.28789304 75.25489913 -121.9609375 74.75 C-119.97252999 74.17155418 -117.98616988 73.58608292 -116 73 C-113 75 -113 75 -112.6015625 76.84545898 C-112.66423179 82.76313698 -113.86173438 87.56754263 -116 93.0625 C-116.28617188 93.83271484 -116.57234375 94.60292969 -116.8671875 95.39648438 C-117.56510405 97.26922713 -118.28069323 99.13536847 -119 101 C-112.27334372 97.44801322 -105.77766915 93.6793595 -99.41015625 89.515625 C-97 88 -97 88 -94.80859375 87.046875 C-92.49302483 85.70654569 -92.1321791 84.39161864 -91 82 C-84.97721894 75.48989848 -79.2210294 71.54010649 -70.375 70.625 C-66.5687656 71.04791493 -64.20483953 71.91312775 -61 74 C-59.11207905 76.38042207 -59.00652238 77.71301513 -58.9375 80.75 C-61.78384936 89.4564804 -68.7430516 93.31869645 -76.40478516 97.38623047 C-80.51841093 99.46819824 -84.53359261 100.86037543 -89 102 C-88.67 104.31 -88.34 106.62 -88 109 C-71.88519519 107.28714656 -59.38665667 94.71640932 -49.2421875 82.87109375 C-40.84738553 72.30336072 -33.88989927 60.58437301 -27 49 C-27.556875 49.01160156 -28.11375 49.02320313 -28.6875 49.03515625 C-42.09018568 49.19363395 -42.09018568 49.19363395 -46 46.75 C-47.37055727 44.35152478 -47.34819167 42.71589501 -47 40 C-45 38 -45 38 -43.15576172 37.82055664 C-42.05385498 37.86490845 -42.05385498 37.86490845 -40.9296875 37.91015625 C-40.115 37.93013672 -39.3003125 37.95011719 -38.4609375 37.97070312 C-36.76024209 38.03107524 -35.0597027 38.09604872 -33.359375 38.16601562 C-27.82067922 38.29189507 -22.72301016 38.17606983 -18 35 C-12.63928181 29.10748052 -9.51835168 21.27102473 -6.1875 14.125 C-5.45370117 12.578125 -5.45370117 12.578125 -4.70507812 11 C-2.13047277 5.5904875 -2.13047277 5.5904875 0 0 Z M-201.5 75.9375 C-203.30517756 79.62307086 -203.39684662 81.90090686 -202.7421875 85.90234375 C-202.05690735 88.34127288 -202.05690735 88.34127288 -199.25 90.625 C-195.80666897 92.0817939 -194.46629554 92.22339843 -191 91 C-188.76303368 85.86813609 -188.6662685 81.37794962 -190 76 C-191.93358244 73.65952546 -191.93358244 73.65952546 -195.375 73.5625 C-199.04234362 73.69038206 -199.04234362 73.69038206 -201.5 75.9375 Z M-142 86 C-148.76538475 93.66887016 -155.43214911 102.346585 -155 113 C-145.30063892 108.53857627 -136.54705056 100.67084669 -132.6875 90.5625 C-131.9146491 86.55772713 -131.85724699 83.06846091 -132 79 C-135.43440652 79 -139.63819029 83.8552019 -142 86 Z M-77.6875 84.5 C-78.450625 85.325 -79.21375 86.15 -80 87 C-76.75434142 87.34055197 -76.75434142 87.34055197 -74.3125 84.5 C-73.549375 83.675 -72.78625 82.85 -72 82 C-75.24565858 81.65944803 -75.24565858 81.65944803 -77.6875 84.5 Z M-210 91 C-213.21074661 97.7368344 -214.87977709 103.50026089 -214 111 C-213.67 111.66 -213.34 112.32 -213 113 C-206.85664126 113.57071121 -206.85664126 113.57071121 -201.625 110.75 C-198.65426202 107.73456755 -198.65426202 107.73456755 -197 104 C-197.28931929 101.13632951 -197.83990293 100.15116735 -199.9609375 98.1484375 C-200.75757813 97.56320312 -201.55421875 96.97796875 -202.375 96.375 C-203.16648437 95.78460937 -203.95796875 95.19421875 -204.7734375 94.5859375 C-206.49433661 93.36017427 -208.24203126 92.17197916 -210 91 Z M-44 91 C-43 93 -43 93 -43 93 Z M-158.0625 135.25 C-158.64458221 135.56479309 -159.22666443 135.87958618 -159.8263855 136.20391846 C-190.37735832 152.27668999 -190.37735832 152.27668999 -209 180 C-209.64364557 184.95607092 -209.66359022 189.40819802 -207.375 193.9375 C-204.70279833 197.38323374 -203.16033627 198.71989653 -199 200 C-189.69064879 199.84984917 -182.41854245 195.5647507 -176 189 C-173.51474575 186.10331663 -171.25851266 183.07478485 -169 180 C-168.47108154 179.29979736 -167.94216309 178.59959473 -167.3972168 177.87817383 C-162.12079973 170.67203265 -158.21884715 162.92806821 -154.3125 154.9375 C-153.65630556 153.61358183 -152.99940761 152.29001212 -152.34179688 150.96679688 C-146.08003903 140.37849345 -146.08003903 140.37849345 -143 129 C-148.52036932 129 -153.29716444 132.66378436 -158.0625 135.25 Z " fill="#5E5E60" transform="translate(775,444)"/>
<path d="M0 0 C0.99 0.99 0.99 0.99 2 2 C1.77729447 7.01087434 0.04550454 9.19311933 -3 13 C-4.3915365 18.12511258 -3.63952104 22.30612651 -2.5625 27.375 C-2.41490234 28.11105469 -2.26730469 28.84710937 -2.11523438 29.60546875 C-1.7528781 31.40556123 -1.37773891 33.20307253 -1 35 C10.24392023 31.07316452 19.46881165 24.73531725 28.58520508 17.20068359 C31.77445084 14.63795893 32.73954987 14 37 14 C37.47668804 18.52853642 37.72679233 21.73364777 34.875 25.4375 C28.17601306 32.37347941 18.77246349 37.02033256 10.4375 41.6875 C2.4841195 46.3243314 -0.09253893 50.77034354 -3.04296875 59.4453125 C-5.16584109 65.11208194 -8.83871367 68.06515091 -14 71 C-19.17523547 72.88190381 -24.635804 74.44667252 -29.92578125 72.171875 C-32.58639297 70.69559355 -34.84628517 69.15371483 -37 67 C-37.84540504 62.05215579 -37.64353136 58.11545435 -35.125 53.75 C-28.73967546 47.40064912 -20.6065464 44.0875453 -12 42 C-12.2165625 40.78763672 -12.2165625 40.78763672 -12.4375 39.55078125 C-12.623125 38.48214844 -12.80875 37.41351562 -13 36.3125 C-13.185625 35.25675781 -13.37125 34.20101562 -13.5625 33.11328125 C-13.95068074 30.35095938 -14.08259976 27.78257957 -14 25 C-18.45563809 28.75866677 -22.62261137 32.6340584 -26.625 36.875 C-35.41943866 45.75074317 -46.15429134 52.80058188 -58.6875 54.5 C-62.12071808 53.9817784 -64.10526272 53.08955599 -66.72290039 50.80517578 C-69.42094466 46.99149975 -68.88652516 42.19095508 -68.875 37.6875 C-68.9059375 36.14739258 -68.9059375 36.14739258 -68.9375 34.57617188 C-68.98449913 32.04996871 -69.00445095 29.52655002 -69 27 C-72.00831496 29.98330019 -75.01310394 32.97009741 -78.01489258 35.95996094 C-79.03317292 36.97326152 -80.05235474 37.98565712 -81.07250977 38.99707031 C-86.42112211 44.30104525 -91.70629453 49.61240311 -96.58398438 55.36132812 C-102.08996861 61.73308091 -102.08996861 61.73308091 -106.15234375 62.30078125 C-108.375 62.3125 -108.375 62.3125 -112 62 C-113.89596969 58.5426435 -114.05289199 56.12125779 -113.55859375 52.30859375 C-113.45732178 51.50091553 -113.3560498 50.6932373 -113.25170898 49.86108398 C-113.16864502 49.24692627 -113.08558105 48.63276855 -113 48 C-113.70084717 48.2673999 -114.40169434 48.5347998 -115.1237793 48.81030273 C-118.31016022 50.02342136 -121.49879061 51.2305158 -124.6875 52.4375 C-125.79029297 52.85837891 -126.89308594 53.27925781 -128.02929688 53.71289062 C-129.6293457 54.31713867 -129.6293457 54.31713867 -131.26171875 54.93359375 C-132.24100342 55.30540771 -133.22028809 55.67722168 -134.22924805 56.06030273 C-140.42400002 58.16124558 -147.82987526 59.5427934 -154.1328125 57.2109375 C-157.26884465 55.49202448 -159.00515341 53.99226988 -161 51 C-161.125 48.3125 -161.125 48.3125 -161 46 C-162.02770508 46.52956299 -162.02770508 46.52956299 -163.07617188 47.06982422 C-166.21312539 48.68013408 -169.35643803 50.27763188 -172.5 51.875 C-174.11648437 52.70837891 -174.11648437 52.70837891 -175.765625 53.55859375 C-185.2752608 58.37139723 -193.27068564 61.42073323 -204 59 C-208.89480247 56.88354952 -213.55257509 53.79287378 -216 49 C-217.76985965 38.81554447 -214.19543914 31.25760414 -208.6171875 22.9375 C-202.92399046 15.65020778 -194.19756425 9.57152627 -185 8 C-181.19035401 7.84681493 -178.09050005 8.08538706 -175.0625 10.625 C-173.59089064 13.91447976 -173.06142398 16.37598507 -173 20 C-176.31288936 28.43280927 -183.30311527 32.95963208 -191.38720703 36.52514648 C-195.16594321 38.12231872 -198.92765402 39.67917518 -202.859375 40.85546875 C-205.28425034 41.82946436 -205.28425034 41.82946436 -205.8125 44.625 C-205.874375 45.40875 -205.93625 46.1925 -206 47 C-191.48182675 48.23734431 -178.5747517 43.66652263 -167 35 C-166.13761719 34.26910156 -165.27523437 33.53820312 -164.38671875 32.78515625 C-162 31 -162 31 -159 31 C-158.89429688 30.26523437 -158.78859375 29.53046875 -158.6796875 28.7734375 C-156.92550122 21.61555097 -151.22416709 16.85072308 -145.25 13 C-139.82490345 9.72675739 -135.39489274 8.30055861 -129 9 C-126.08689516 10.26656732 -124.53414903 11.29589446 -122.625 13.8125 C-121.69024364 17.08414725 -121.93069307 18.72917881 -123 22 C-128.56858175 30.33589524 -137.52356804 36.84118935 -147 40 C-149.9375 40.1875 -149.9375 40.1875 -152 40 C-151.505 43.96 -151.505 43.96 -151 48 C-150.34 47.67 -149.68 47.34 -149 47 C-147.06508913 46.73069319 -145.12693527 46.48451454 -143.1875 46.25 C-130.24970568 44.27378746 -116.10780402 38.66201876 -106.99609375 28.83984375 C-105.45335879 26.62039998 -104.20879324 24.41758648 -103 22 C-102.44570313 20.93265625 -101.89140625 19.8653125 -101.3203125 18.765625 C-99.84068635 15.86092112 -98.4037675 12.94193827 -97 10 C-94.625 9.875 -94.625 9.875 -92 10 C-90 12 -90 12 -89.625 14.875 C-89.88497849 23.80711812 -94.6160942 32.86422648 -98 41 C-91.72813721 35.78702313 -86.39702604 30.17218634 -81.25390625 23.85546875 C-77.15566874 18.93575824 -73.32937635 14.41562013 -66.55859375 13.765625 C-64.35491493 13.75183045 -62.19566092 13.82076237 -60 14 C-54.02699025 24.07945394 -55.85421041 32.84955766 -58 44 C-48.4057453 39.24818964 -39.97923242 34.26110151 -32 27 C-31.3915625 26.46117187 -30.783125 25.92234375 -30.15625 25.3671875 C-25.05360849 20.57744382 -20.90693257 14.9317431 -16.6484375 9.40234375 C-8.13123856 -1.59720757 -8.13123856 -1.59720757 0 0 Z M-20.5625 55.25 C-21.46645508 55.84361328 -21.46645508 55.84361328 -22.38867188 56.44921875 C-25.84288787 58.78237973 -25.84288787 58.78237973 -27.90234375 62.296875 C-27.93457031 62.85890625 -27.96679688 63.4209375 -28 64 C-23.00165008 64.29402058 -19.94937682 64.20219742 -16 61 C-13.06651501 57.27368122 -12 55.81127506 -12 51 C-15.3821084 51 -17.85677092 53.39181361 -20.5625 55.25 Z " fill="#5F5F61" transform="translate(423,504)"/>
<path d="M0 0 C1.125 1.5625 1.125 1.5625 1.125 5.5625 C-1.95919882 7.10459941 -5.25249942 6.86155927 -8.64453125 6.9921875 C-10.26312658 7.0638234 -11.88169673 7.13602979 -13.50024414 7.20874023 C-14.34845734 7.24571014 -15.19667053 7.28268005 -16.07058716 7.32077026 C-33.80145048 8.09295173 -33.80145048 8.09295173 -51.4375 10 C-52.24872314 10.11005371 -53.05994629 10.22010742 -53.89575195 10.33349609 C-58.19568602 11.00760842 -61.54295972 11.71848582 -64.875 14.5625 C-66.97805938 17.51289145 -68.70460357 20.63403274 -70.4375 23.8125 C-70.95562256 24.74271973 -71.47374512 25.67293945 -72.00756836 26.63134766 C-73.64918383 29.59839726 -75.26638926 32.57743912 -76.875 35.5625 C-77.64070313 36.98224121 -77.64070313 36.98224121 -78.421875 38.43066406 C-81.99540201 45.09648926 -85.46594938 51.8111985 -88.875 58.5625 C-89.35888184 59.51946777 -89.84276367 60.47643555 -90.34130859 61.46240234 C-98.44466404 77.61187461 -105.42022861 94.07971992 -110.10375977 111.56225586 C-110.875 113.5625 -110.875 113.5625 -113.3125 115.3125 C-115.875 115.5625 -115.875 115.5625 -118.125 115.0625 C-120.72114423 112.83723352 -120.56690776 110.91596558 -120.875 107.5625 C-117.39154494 83.91633474 -103.06694934 60.00376792 -91.99609375 39.21875 C-91.51110161 38.30357101 -91.51110161 38.30357101 -91.01631165 37.36990356 C-89.44400151 34.40466296 -87.85766953 31.45015174 -86.2434082 28.50732422 C-82.1287116 20.93557402 -82.1287116 20.93557402 -81.875 12.5625 C-95.4792187 12.75760614 -108.72856352 14.58723674 -122.13452148 16.74682617 C-129.70255605 17.96181668 -137.22562146 19.0195886 -144.875 19.5625 C-146.48225635 16.34798731 -145.93248185 13.12637464 -145.875 9.5625 C-123.86896121 -0.18063168 -94.27340562 2.2208407 -70.875 2.5625 C-70.58625 1.77875 -70.2975 0.995 -70 0.1875 C-68.875 -2.4375 -68.875 -2.4375 -66.875 -4.4375 C-61.19151376 -4.9787844 -61.19151376 -4.9787844 -58.875 -4.4375 C-57.8337461 -3.13612838 -56.8293162 -1.80390344 -55.875 -0.4375 C-55.10945801 -0.55343506 -54.34391602 -0.66937012 -53.55517578 -0.78881836 C-50.03716488 -1.32010438 -46.51859192 -1.84757621 -43 -2.375 C-41.19402344 -2.64860352 -41.19402344 -2.64860352 -39.3515625 -2.92773438 C-9.61560862 -7.37196661 -9.61560862 -7.37196661 0 0 Z " fill="#616164" transform="translate(272.875,473.4375)"/>
<path d="M0 0 C0 1.65 0 3.3 0 5 C0.66 4.67 1.32 4.34 2 4 C4.62493398 3.70263691 7.2349363 3.45512167 9.8671875 3.24609375 C11.05213303 3.14833397 11.05213303 3.14833397 12.26101685 3.04859924 C13.94044439 2.91126515 15.62004779 2.77606759 17.29980469 2.64282227 C19.83066978 2.44103448 22.36061754 2.22981544 24.890625 2.01757812 C49.83087973 -0.02818426 49.83087973 -0.02818426 55 3 C55 4.98 55 6.96 55 9 C48.72520695 11.38542199 42.89240365 12.57949135 36.21484375 13.09765625 C34.86405479 13.21735023 34.86405479 13.21735023 33.48597717 13.33946228 C30.63726274 13.59077177 27.78762616 13.82778942 24.9375 14.0625 C22.0839925 14.30236565 19.23088628 14.5455298 16.37831116 14.79624939 C14.61247545 14.95100922 12.84607396 15.09949394 11.0790863 15.24049377 C0.49617721 16.07504422 0.49617721 16.07504422 -8.50683594 21.20019531 C-12.05675283 25.47913373 -14.5209834 30.48901515 -17.125 35.375 C-17.81298115 36.64585751 -18.50147201 37.9164392 -19.19042969 39.18676758 C-21.48813103 43.44324367 -23.7487443 47.71880896 -26 52 C-26.40851196 52.77684143 -26.81702393 53.55368286 -27.23791504 54.35406494 C-37.72238717 74.32745552 -47.91665098 94.39689989 -57.10229492 115.00512695 C-57.70727536 116.34950964 -58.34070247 117.68140495 -59 119 C-65.875 118.125 -65.875 118.125 -67 117 C-66.73332766 109.53550558 -64.57956173 104.14898765 -61.234375 97.54296875 C-60.746203 96.55185593 -60.25803101 95.5607431 -59.75506592 94.53959656 C-58.71403379 92.43072058 -57.6666943 90.32494812 -56.61352539 88.22210693 C-55.01771498 85.03537568 -53.43918125 81.84064499 -51.86523438 78.64306641 C-49.21824932 73.27411104 -46.55071528 67.91572306 -43.87353516 62.56176758 C-42.23294189 59.27836069 -40.59882924 55.99177743 -38.96484375 52.70507812 C-29.38245715 33.49379375 -29.38245715 33.49379375 -24.19824219 25.16088867 C-23.04719414 23.08510906 -22.44280494 21.32073673 -22 19 C-23.33417969 19.21849609 -23.33417969 19.21849609 -24.6953125 19.44140625 C-30.39214444 20.25462687 -36.13711754 20.54699473 -41.875 20.9375 C-49.6766456 21.48339078 -57.43461969 22.0922139 -65.1875 23.125 C-73.160053 24.14344988 -80.98217848 24.19424063 -89 24 C-90.125 18.375 -90.125 18.375 -89 15 C-81.34678535 13.48672598 -73.73675593 12.44822654 -65.97265625 11.7109375 C-64.86248642 11.60278717 -63.75231659 11.49463684 -62.60850525 11.38320923 C-60.27674383 11.15744355 -57.94475304 10.93403538 -55.61254883 10.71289062 C-52.07489311 10.37617957 -48.53844357 10.02840054 -45.00195312 9.6796875 C-42.72141852 9.46026763 -40.44082142 9.24149614 -38.16015625 9.0234375 C-37.11916275 8.92034271 -36.07816925 8.81724792 -35.00563049 8.71102905 C-27.98522156 8.05663395 -21.04912566 7.88458259 -14 8 C-13.86335937 7.22140625 -13.72671875 6.4428125 -13.5859375 5.640625 C-12.93012642 2.68510308 -12.0481543 1.20570463 -10 -1 C-6.06329512 -2.31223496 -3.87511856 -1.24296256 0 0 Z " fill="#5F5F62" transform="translate(569,469)"/>
<path d="M0 0 C0 0.99 0 1.98 0 3 C-1.09054687 2.95359375 -2.18109375 2.9071875 -3.3046875 2.859375 C-22.42069654 2.30091537 -39.7698033 6.32120183 -55.94140625 16.86328125 C-58 18 -58 18 -61 18 C-61.2475 18.53753906 -61.495 19.07507813 -61.75 19.62890625 C-63.29323203 22.5562245 -65.14114897 25.1990141 -67 27.9375 C-76.04713609 41.77983995 -82.17365844 56.90075384 -87.59667969 72.45874023 C-90.2478043 80.03597261 -93.14607864 87.47186919 -96.25 94.875 C-96.65025391 95.83059814 -97.05050781 96.78619629 -97.46289062 97.77075195 C-109.2354364 125.59876594 -125.16299025 150.08415099 -146 172 C-146.72703125 172.80308594 -147.4540625 173.60617187 -148.203125 174.43359375 C-158.34800806 185.27358917 -171.03190435 192.99519728 -186 194 C-186 193.01 -186 192.02 -186 191 C-186.66 191 -187.32 191 -188 191 C-188 190.34 -188 189.68 -188 189 C-186.02674218 187.62488596 -184.0548524 186.36796443 -182 185.125 C-163.01491269 173.22339151 -145.59158273 158.93119667 -132 141 C-131.54737793 140.4112207 -131.09475586 139.82244141 -130.62841797 139.21582031 C-124.02571798 130.55354206 -118.3949487 121.50173916 -113.1875 111.9375 C-112.67276123 110.99358398 -112.15802246 110.04966797 -111.62768555 109.07714844 C-107.64572612 101.58965969 -104.24386545 93.89997481 -100.90634155 86.11166382 C-98.46603674 80.42605516 -95.9830538 74.75879379 -93.50268555 69.09057617 C-92.87552459 67.65434338 -92.25052574 66.21716455 -91.62768555 64.77905273 C-87.67823613 55.66549438 -83.45280107 46.8162164 -78.67333984 38.10693359 C-77.35516578 35.65944555 -76.16071275 33.23731911 -75.0625 30.6875 C-68.0573569 16.55485322 -51.29293972 3.64014115 -36.625 -1.375 C-24.36716861 -5.17459733 -11.84898253 -5.3511534 0 0 Z " fill="#46BEBE" transform="translate(467,210)"/>
<path d="M0 0 C0.66 0.33 1.32 0.66 2 1 C1.41992188 1.48726562 0.83984375 1.97453125 0.2421875 2.4765625 C-8.17347964 10.11454423 -13.36774543 20.00977601 -14.17700195 31.5168457 C-14.69969354 54.19666271 -9.8817933 70.19831892 -0.4921875 90.71679688 C1.91604894 96.01554747 4.23328501 101.35367655 6.5625 106.6875 C11.22864089 117.31477536 16.00593173 127.88925196 20.83227539 138.44458008 C22.12605674 141.27585948 23.41733596 144.10826318 24.70703125 146.94140625 C25.1141333 147.83545166 25.52123535 148.72949707 25.94067383 149.65063477 C28.81739436 156.0306029 29.22375882 161.08833876 29 168 C29 168.66 29 169.32 29 170 C29.47163574 170.44649902 29.94327148 170.89299805 30.42919922 171.35302734 C32.33569108 173.35196955 32.62046488 174.65819134 33.1328125 177.3515625 C33.29910156 178.20363281 33.46539063 179.05570313 33.63671875 179.93359375 C33.79785156 180.82175781 33.95898438 181.70992187 34.125 182.625 C34.37830078 183.92244141 34.37830078 183.92244141 34.63671875 185.24609375 C36.69965687 196.08057978 37.1314754 206.54856053 37.0625 217.5625 C37.05747366 218.96679527 37.05291276 220.3710923 37.04882812 221.77539062 C37.03711593 225.18363903 37.02071372 228.5917964 37 232 C36.34 231.01 35.68 230.02 35 229 C34.505 231.97 34.505 231.97 34 235 C33.67 235 33.34 235 33 235 C32.93530518 234.29319092 32.87061035 233.58638184 32.80395508 232.8581543 C28.46824848 186.60937671 16.46432894 145.28388388 -3.43359375 103.33642578 C-9.77842573 89.82201277 -15.58729014 76.26776188 -20 62 C-20.66 66.95 -21.32 71.9 -22 77 C-22.33 77 -22.66 77 -23 77 C-23.02887512 73.35418313 -23.04675585 69.70839537 -23.0625 66.0625 C-23.07087891 65.02158203 -23.07925781 63.98066406 -23.08789062 62.90820312 C-23.09272461 61.42416992 -23.09272461 61.42416992 -23.09765625 59.91015625 C-23.10289307 58.99371338 -23.10812988 58.07727051 -23.11352539 57.13305664 C-23 55 -23 55 -22 54 C-21.97883444 52.10417035 -22.00991855 50.20771852 -22.0625 48.3125 C-22.0972827 32.38202278 -19.20154127 19.03954085 -7.86254883 7.39672852 C-5.29434519 4.86893063 -2.67153557 2.41844272 0 0 Z " fill="#FC9298" transform="translate(529,213)"/>
<path d="M0 0 C0.99 0 1.98 0 3 0 C3.22406868 7.29169263 2.57646918 14.17911733 1.4375 21.375 C1.26694092 22.49479248 1.09638184 23.61458496 0.9206543 24.76831055 C-0.12441459 31.57089749 -1.21813696 38.36540944 -2.31929016 45.15911865 C-2.79294888 48.08258082 -3.26461081 51.00636044 -3.73608398 53.93017578 C-4.35784699 57.78536934 -4.98874111 61.63891471 -5.62524414 65.49169922 C-5.92099307 67.31343479 -6.21649467 69.13521055 -6.51171875 70.95703125 C-6.64699982 71.76160263 -6.78228088 72.56617401 -6.92166138 73.39512634 C-8.77879516 84.9744047 -9.14605747 96.56190043 -9.01403427 108.27162933 C-8.99154098 110.35680905 -8.97777732 112.44189234 -8.96633911 114.52716064 C-8.93314068 120.44304262 -8.89050053 126.35875861 -8.82861328 132.27441406 C-8.79106537 135.92151738 -8.76798735 139.56846893 -8.75430679 143.21573639 C-8.74625438 144.59850629 -8.73264794 145.98125546 -8.71337509 147.36391449 C-8.6870265 149.2825098 -8.68065545 151.20134846 -8.67529297 153.12011719 C-8.66561493 154.21040222 -8.65593689 155.30068726 -8.64596558 156.42401123 C-8.76279694 157.27408752 -8.8796283 158.12416382 -9 159 C-10.485 159.99 -10.485 159.99 -12 161 C-18.65556331 152.3477677 -18.30082958 142.88237231 -18.1875 132.3125 C-18.1774292 130.99596436 -18.1673584 129.67942871 -18.15698242 128.32299805 C-18.12653585 124.88469327 -18.07833667 121.44683186 -18.0267334 118.00878906 C-18.00113619 116.08537534 -17.98711555 114.16181804 -17.97363281 112.23828125 C-17.74643743 83.00058523 -13.30707524 54.67444455 -6.74072266 26.22167969 C-5.98994878 22.95628349 -5.26355193 19.68624296 -4.54296875 16.4140625 C-4.09178178 14.38006716 -3.63999076 12.34620569 -3.1875 10.3125 C-2.98060547 9.37881592 -2.77371094 8.44513184 -2.56054688 7.4831543 C-2.36912109 6.63922119 -2.17769531 5.79528809 -1.98046875 4.92578125 C-1.81442139 4.18755127 -1.64837402 3.44932129 -1.47729492 2.6887207 C-1 1 -1 1 0 0 Z " fill="#3CBCBC" transform="translate(503,292)"/>
<path d="M0 0 C4.5902598 3.42473296 7.65362114 7.28202621 11.03515625 11.85546875 C13.2168567 14.23668852 13.99903284 14.29184141 17 15 C19.078125 16.93359375 19.078125 16.93359375 21.25 19.4375 C22.04277344 20.34886719 22.83554687 21.26023437 23.65234375 22.19921875 C26.42566485 25.50782312 29.11815551 28.87250165 31.796875 32.2578125 C46.40776011 50.44370141 62.6498213 70.29311639 81.52734375 84.16015625 C85.60630361 87.19521169 89.51243692 90.44871965 93.45898438 93.65307617 C97.63514107 97.00770255 101.87061491 100.00514976 106.55859375 102.62109375 C108 104 108 104 108.22265625 106.66015625 C108.14917969 107.43230469 108.07570313 108.20445312 108 109 C106.515 109.495 106.515 109.495 105 110 C105 109.34 105 108.68 105 108 C103.8346875 107.60554688 102.669375 107.21109375 101.46875 106.8046875 C97.02611395 105.13186716 93.35943881 102.85958711 89.5 100.125 C88.82001953 99.65030273 88.14003906 99.17560547 87.43945312 98.68652344 C79.65415213 93.17104161 72.30053832 87.13506554 65 81 C64.0821875 80.23816406 63.164375 79.47632813 62.21875 78.69140625 C58.22388993 75.30843496 58.22388993 75.30843496 57 74 C57 73.34 57 72.68 57 72 C56.42765625 71.93941406 55.8553125 71.87882812 55.265625 71.81640625 C52.02586613 70.6489759 50.82748651 68.6539257 48.75 65.9375 C45.3179893 61.57974957 41.75350108 57.63922074 37.78515625 53.7734375 C34.66607866 50.67483526 31.82471003 47.49233244 29.6875 43.625 C28.07941583 41.12353573 26.5111077 39.48091664 24.375 37.4375 C20.22164395 33.39005831 16.86039446 28.97829574 13.44140625 24.3046875 C10.30796295 20.02555873 7.00692888 15.87975049 3.7175293 11.72021484 C1.44128892 8.83983604 -0.8157368 5.95092512 -3 3 C-2 1 -2 1 0 0 Z " fill="#FD949C" transform="translate(634,254)"/>
<path d="M0 0 C0.495 1.485 0.495 1.485 1 3 C-0.39751994 5.32115082 -1.81523978 7.40715799 -3.4375 9.5625 C-4.12767212 10.50077637 -4.12767212 10.50077637 -4.83178711 11.45800781 C-11.43896449 20.38347298 -18.43002665 28.87210567 -26 37 C-26.75925781 37.83660156 -27.51851563 38.67320312 -28.30078125 39.53515625 C-38.85385444 50.71001444 -51.40595253 58.95317737 -67 60 C-67 59.01 -67 58.02 -67 57 C-67.66 57 -68.32 57 -69 57 C-69 56.34 -69 55.68 -69 55 C-67.02674218 53.62488596 -65.0548524 52.36796443 -63 51.125 C-42.80740673 38.4664151 -25.43324232 23.21930484 -10.921875 4.2890625 C-7.47408322 0.18254627 -5.17218773 -0.22987501 0 0 Z " fill="#43BEBE" transform="translate(348,344)"/>
<path d="M0 0 C0.99 0.33 1.98 0.66 3 1 C3.90521555 2.98972501 4.45303172 4.99132376 5.05859375 7.08984375 C5.84542304 9.17675739 5.84542304 9.17675739 8 9.98046875 C10 11 10 11 10.94140625 12.8984375 C11.69986217 15.92272085 12.38136188 18.94339555 13 22 C13.20737793 22.98589111 13.20737793 22.98589111 13.41894531 23.99169922 C16.65255808 39.90793541 16.31564768 55.84531356 16 72 C15.34 71.01 14.68 70.02 14 69 C13.67 70.98 13.34 72.96 13 75 C12.67 75 12.34 75 12 75 C11.93530518 74.29319092 11.87061035 73.58638184 11.80395508 72.8581543 C9.74774771 50.9246874 7.02968134 28.98857871 0.69921875 7.8203125 C0.02194536 5.08851702 -0.13948447 2.80002155 0 0 Z " fill="#FB949A" transform="translate(550,373)"/>
<path d="M0 0 C0 0.99 0 1.98 0 3 C-1.09054687 2.95359375 -2.18109375 2.9071875 -3.3046875 2.859375 C-22.46936104 2.29949367 -39.8607404 6.33246052 -56.0390625 16.9609375 C-56.68617188 17.30382812 -57.33328125 17.64671875 -58 18 C-58.66 17.67 -59.32 17.34 -60 17 C-59.54625 16.608125 -59.0925 16.21625 -58.625 15.8125 C-56.85154506 14.06830908 -56.85154506 14.06830908 -56.1640625 11.60546875 C-53.55566951 5.76722001 -47.04844815 2.86742104 -41.40234375 0.4765625 C-27.49485958 -4.58336339 -13.87350441 -6.2654536 0 0 Z " fill="#9ADFE1" transform="translate(467,210)"/>
<path d="M0 0 C0.99 0 1.98 0 3 0 C3.28856804 7.83666769 2.40893027 15.26812633 1.1875 23 C1.00735352 24.17667236 0.82720703 25.35334473 0.64160156 26.56567383 C-0.82177608 36.05755562 -2.36697311 45.5358669 -4 55 C-4.33 55 -4.66 55 -5 55 C-5 51.7 -5 48.4 -5 45 C-5.99 47.475 -5.99 47.475 -7 50 C-7.99 50 -8.98 50 -10 50 C-10.42799751 42.30978302 -9.21316985 35.70860574 -7.1875 28.3125 C-6.63256408 26.20387366 -6.08047728 24.09449545 -5.53125 21.984375 C-5.13292969 20.45780273 -5.13292969 20.45780273 -4.7265625 18.90039062 C-3.45312991 13.81692988 -2.48461252 8.68851581 -1.54296875 3.53515625 C-1 1 -1 1 0 0 Z " fill="#46BFBF" transform="translate(503,292)"/>
<path d="M0 0 C0.66 0.33 1.32 0.66 2 1 C1.41992188 1.48726562 0.83984375 1.97453125 0.2421875 2.4765625 C-12.60503129 14.13657956 -14.20913619 28.65721188 -16 45 C-16.26701916 47.37381432 -16.53667908 49.74716295 -16.81542969 52.11962891 C-17.04801548 54.12510683 -17.26099125 56.13283124 -17.47265625 58.140625 C-17.64667969 59.08421875 -17.82070313 60.0278125 -18 61 C-18.99 61.495 -18.99 61.495 -20 62 C-20.47574438 64.54024004 -20.84007547 67.00051464 -21.125 69.5625 C-21.21136719 70.27341797 -21.29773438 70.98433594 -21.38671875 71.71679688 C-21.59934783 73.47689312 -21.80072697 75.23834164 -22 77 C-22.33 77 -22.66 77 -23 77 C-23.02887512 73.35418313 -23.04675585 69.70839537 -23.0625 66.0625 C-23.07087891 65.02158203 -23.07925781 63.98066406 -23.08789062 62.90820312 C-23.09272461 61.42416992 -23.09272461 61.42416992 -23.09765625 59.91015625 C-23.10289307 58.99371338 -23.10812988 58.07727051 -23.11352539 57.13305664 C-23 55 -23 55 -22 54 C-21.97883444 52.10417035 -22.00991855 50.20771852 -22.0625 48.3125 C-22.0972827 32.38202278 -19.20154127 19.03954085 -7.86254883 7.39672852 C-5.29434519 4.86893063 -2.67153557 2.41844272 0 0 Z " fill="#FDA0A5" transform="translate(529,213)"/>
<path d="M0 0 C0.33 0 0.66 0 1 0 C1.03440186 0.5576001 1.06880371 1.1152002 1.10424805 1.68969727 C2.18054845 17.93432427 5.32629707 31.40545458 12.7644043 45.99169922 C14.50633865 49.48716472 15.37677755 52.08446855 15 56 C11 56 11 56 8 55 C6.97265625 53.28515625 6.97265625 53.28515625 6.0625 51.0625 C5.72476563 50.24910156 5.38703125 49.43570313 5.0390625 48.59765625 C4.69617188 47.74042969 4.35328125 46.88320313 4 46 C3.65710938 45.17371094 3.31421875 44.34742188 2.9609375 43.49609375 C1.94123085 41.0090993 0.96737991 38.50774638 0 36 C-0.31163086 35.2486377 -0.62326172 34.49727539 -0.94433594 33.72314453 C-3.21149742 27.83190075 -3.09907221 23.07322715 -2.25 16.875 C-2.14945312 16.02035156 -2.04890625 15.16570312 -1.9453125 14.28515625 C-1.37353759 9.51303489 -0.69591575 4.75542429 0 0 Z " fill="#FD9BA1" transform="translate(513,251)"/>
<path d="M0 0 C8.06358382 3.76300578 8.06358382 3.76300578 10.125 8.6875 C12.42689778 12.75418608 15.32355075 15.11591308 18.85546875 18.1171875 C21.23742028 20.2084455 23.09026931 22.4764273 25 25 C28.48585462 28.7763425 32.23512531 31.73218575 36.42578125 34.66796875 C36.94527344 35.10753906 37.46476563 35.54710937 38 36 C38 36.66 38 37.32 38 38 C38.66 38 39.32 38 40 38 C41.12681491 39.16096081 42.25340714 40.32213853 43.37890625 41.484375 C45.31497188 43.29447973 47.34090501 44.83740822 49.5 46.375 C50.2321875 46.89835937 50.964375 47.42171875 51.71875 47.9609375 C53.97423825 49.25736428 53.97423825 49.25736428 56.48046875 48.5 C59 48 59 48 61.45703125 49.0390625 C62.23433594 49.56242187 63.01164063 50.08578125 63.8125 50.625 C64.60269531 51.13289063 65.39289063 51.64078125 66.20703125 52.1640625 C68 54 68 54 68.26171875 56.7109375 C68.17535156 57.46632813 68.08898437 58.22171875 68 59 C66.515 59.495 66.515 59.495 65 60 C65 59.34 65 58.68 65 58 C63.8346875 57.60554688 62.669375 57.21109375 61.46875 56.8046875 C57.02611395 55.13186716 53.35943881 52.85958711 49.5 50.125 C48.82001953 49.65030273 48.14003906 49.17560547 47.43945312 48.68652344 C40.25444705 43.59631941 33.43291691 38.07167361 26.69140625 32.41259766 C25.2142875 31.1789647 23.71803928 29.9683097 22.21875 28.76171875 C21.4865625 28.15972656 20.754375 27.55773437 20 26.9375 C19.401875 26.45152344 18.80375 25.96554687 18.1875 25.46484375 C17 24 17 24 17 20 C15.03831326 17.5886719 15.03831326 17.5886719 12.4375 15.25 C9.14171408 12.08079476 5.91312459 8.91866997 2.875 5.5 C2.31554687 4.8709375 1.75609375 4.241875 1.1796875 3.59375 C0 2 0 2 0 0 Z " fill="#FD9EA4" transform="translate(674,304)"/>
<path d="M0 0 C0.66 0 1.32 0 2 0 C0.38574424 4.19706497 -2.58763582 7.17334012 -6 10 C-6.804375 10.309375 -7.60875 10.61875 -8.4375 10.9375 C-11.82149415 12.34061952 -13.66456385 14.56319973 -16.16015625 17.1953125 C-17.94615637 18.94718523 -19.73775816 20.29858759 -21.8125 21.6875 C-25.04604575 23.61580388 -25.04604575 23.61580388 -25.87890625 26.06640625 C-27 28 -27 28 -29.3828125 28.828125 C-30.28773438 28.96734375 -31.19265625 29.1065625 -32.125 29.25 C-33.03507812 29.39953125 -33.94515625 29.5490625 -34.8828125 29.703125 C-35.58148438 29.80109375 -36.28015625 29.8990625 -37 30 C-37.33 29.01 -37.66 28.02 -38 27 C-38.66 27 -39.32 27 -40 27 C-40 26.34 -40 25.68 -40 25 C-37.94355534 23.56109715 -35.89139143 22.239081 -33.75 20.9375 C-26.86564076 16.64738824 -20.41158984 11.9672207 -14 7 C-13.67 7.66 -13.34 8.32 -13 9 C-11.3925672 8.06811119 -9.78917201 7.12925565 -8.1875 6.1875 C-7.29417969 5.66542969 -6.40085937 5.14335937 -5.48046875 4.60546875 C-3.01198722 3.13059348 -3.01198722 3.13059348 -1.30078125 1.30078125 C-0.87152344 0.87152344 -0.44226563 0.44226563 0 0 Z " fill="#7CD0D1" transform="translate(319,374)"/>
<path d="M0 0 C4.15201317 3.81337379 6.89744065 7.7875012 9.75 12.625 C13.97723598 19.61094528 18.60638112 25.85075336 24 32 C23.01 32.495 23.01 32.495 22 33 C20.515 32.505 20.515 32.505 19 32 C19 32.66 19 33.32 19 34 C9.01007214 29.56968417 2.82859559 16.72577174 -1.23046875 7.07421875 C-1.48441406 6.38972656 -1.73835937 5.70523437 -2 5 C-1.34 5 -0.68 5 0 5 C0 3.35 0 1.7 0 0 Z " fill="#FC969C" transform="translate(598,403)"/>
<path d="M0 0 C0.99 0.33 1.98 0.66 3 1 C3.74680799 4.99405757 4.12271347 8.76064717 4.11352539 12.82177734 C4.11344986 13.94248627 4.11337433 15.06319519 4.11329651 16.21786499 C4.10813522 17.41182892 4.10297394 18.60579285 4.09765625 19.8359375 C4.0962413 21.07042633 4.09482635 22.30491516 4.09336853 23.57681274 C4.08778272 27.50956675 4.07523275 31.44226328 4.0625 35.375 C4.05691912 38.04557208 4.05292058 40.71614363 4.04882812 43.38671875 C4.03781792 49.92449869 4.02109385 56.46224524 4 63 C3.67 63 3.34 63 3 63 C1.53717103 51.79365315 0.55374708 40.63593135 -0.00537109 29.34887695 C-0.1264949 26.90736702 -0.25598061 24.46640298 -0.38671875 22.02539062 C-0.46922682 20.44273312 -0.55127521 18.86005157 -0.6328125 17.27734375 C-0.67028595 16.56263412 -0.7077594 15.8479245 -0.74636841 15.11155701 C-0.97718617 10.40194029 -1.11365057 5.7151996 -1 1 C-0.67 0.67 -0.34 0.34 0 0 Z " fill="#21B1B1" transform="translate(489,382)"/>
<path d="M0 0 C0.84989994 2.87627428 1.06220952 5.15398321 0.765625 8.1328125 C0.68763672 8.93098389 0.60964844 9.72915527 0.52929688 10.55151367 C0.43712891 11.40076416 0.34496094 12.25001465 0.25 13.125 C0.15783203 14.00067627 0.06566406 14.87635254 -0.02929688 15.77856445 C-0.70657429 21.93769429 -1.52679232 28.06823895 -2.5 34.1875 C-2.61827148 34.95916504 -2.73654297 35.73083008 -2.85839844 36.52587891 C-3.16761764 38.36401526 -3.57450204 40.18525119 -4 42 C-4.99 42.495 -4.99 42.495 -6 43 C-6 34.09 -6 25.18 -6 16 C-6.66 16.33 -7.32 16.66 -8 17 C-7.34 11.72 -6.68 6.44 -6 1 C-5.67 1 -5.34 1 -5 1 C-5 2.65 -5 4.3 -5 6 C-4.01 6 -3.02 6 -2 6 C-1.34 4.02 -0.68 2.04 0 0 Z " fill="#2BB2B1" transform="translate(498,336)"/>
<path d="M0 0 C12.06347656 -0.32226562 12.06347656 -0.32226562 15.64648438 2.06640625 C2.0450153 6.30582518 -12.345699 6.08379215 -26.35351562 4.06640625 C-22.52703884 0.13451688 -18.19200374 0.51241647 -13.04101562 0.37890625 C-11.71372437 0.33092896 -11.71372437 0.33092896 -10.35961914 0.28198242 C-6.90685515 0.16654803 -3.45326622 0.09743656 0 0 Z " fill="#FC9AA1" transform="translate(716.353515625,366.93359375)"/>
<path d="M0 0 C0.33 0 0.66 0 1 0 C1 3.92511435 0.88776626 6.00687247 -1.77734375 8.98828125 C-6.64888626 13.24317281 -9.31879016 15.14742537 -15.875 15.1875 C-16.92429687 15.20167969 -17.97359375 15.21585937 -19.0546875 15.23046875 C-21.93547071 15.00504937 -23.56240208 14.48964317 -26 13 C-25.67 11.68 -25.34 10.36 -25 9 C-24.04738281 9.03480469 -23.09476563 9.06960938 -22.11328125 9.10546875 C-20.85902344 9.13253906 -19.60476563 9.15960938 -18.3125 9.1875 C-17.07113281 9.22230469 -15.82976563 9.25710938 -14.55078125 9.29296875 C-9.26539393 8.85688069 -6.29467596 6.59037833 -2.75 2.8125 C-1.8425 1.884375 -0.935 0.95625 0 0 Z " fill="#28171A" transform="translate(594,288)"/>
<path d="M0 0 C-1.09147496 5.39805551 -4.10949449 9.32555226 -8.1875 12.9375 C-12.44896949 14.54738847 -16.50191374 14.57516513 -21 14 C-24.125 12.5 -24.125 12.5 -26 11 C-25.67 10.01 -25.34 9.02 -25 8 C-24.19175781 8.01160156 -23.38351562 8.02320313 -22.55078125 8.03515625 C-21.48214844 8.04417969 -20.41351562 8.05320312 -19.3125 8.0625 C-17.72888672 8.07990234 -17.72888672 8.07990234 -16.11328125 8.09765625 C-13.25215247 8.00790943 -10.7529575 7.77596827 -8 7 C-6.81669817 5.13355094 -6.81669817 5.13355094 -6 3 C-3.53571429 0 -3.53571429 0 0 0 Z " fill="#201518" transform="translate(563,265)"/>
<path d="M0 0 C4.90263091 0.72550143 9.47177974 1.9549973 14 4 C14 4.99 14 5.98 14 7 C7.07 7 0.14 7 -7 7 C-7.33 6.01 -7.66 5.02 -8 4 C-10.31 3.67 -12.62 3.34 -15 3 C-11.26881578 -1.80992795 -5.53172038 -0.40543044 0 0 Z " fill="#ABE4E6" transform="translate(453,206)"/>
<path d="M0 0 C1.875 0.25 1.875 0.25 4 1 C4.66 2.32 5.32 3.64 6 5 C10.95 5 15.9 5 21 5 C20 9 20 9 17 11 C11.95900806 11.67109181 7.45877776 11.72938888 2.875 9.4375 C0.47857886 6.32215252 0.22358398 3.87545563 0 0 Z " fill="#111B1A" transform="translate(415,257)"/>
<path d="M0 0 C3.81552617 1.49895671 5.53745046 3.7986856 8 7 C12.65244014 9.32622007 19.0737581 7.98524838 24 7 C23.75 8.875 23.75 8.875 23 11 C18.39388937 13.95882277 13.26578371 13.83925749 8 13 C4.96222424 11.51027053 2.91772866 9.78887354 1 7 C0.0625 3.125 0.0625 3.125 0 0 Z " fill="#0F1716" transform="translate(422,297)"/>
<path d="M0 0 C2.59446694 1.07357253 3.7992969 1.65880473 5.25 4.125 C6.99490706 6.41480848 6.99490706 6.41480848 10.6875 6.3125 C14.81967862 6.10550775 18.90607637 5.58484623 23 5 C22.0195412 7.58484592 21.06077857 8.94843031 18.9375 10.75 C14.89092563 12.47194654 11.33050719 12.85667021 7 12 C3.90367351 9.56246638 2.17699513 7.26549269 0 4 C0 2.68 0 1.36 0 0 Z " fill="#0F1B1A" transform="translate(450,266)"/>
<path d="M0 0 C0.97646484 -0.020625 1.95292969 -0.04125 2.95898438 -0.0625 C8.44582996 -0.09225916 12.29944132 0.18745804 17.0625 3.25 C16.7325 4.24 16.4025 5.23 16.0625 6.25 C8.79889931 5.81118152 1.72862239 5.12996393 -5.4140625 3.7265625 C-8.90815551 3.06668735 -12.40510555 2.64989371 -15.9375 2.25 C-15.9375 1.92 -15.9375 1.59 -15.9375 1.25 C-10.59755604 0.05737069 -5.45098626 0.02867054 0 0 Z " fill="#30B5B4" transform="translate(459.9375,211.75)"/>
<path d="M0 0 C-1.31172013 3.88134623 -2.82950883 6.14843178 -5.8125 8.9375 C-8.26128469 11.27617746 -10.51506476 13.55421027 -12.5625 16.25 C-15.49917694 19.56317399 -18.04104548 21.05787137 -22 23 C-22.66 23 -23.32 23 -24 23 C-22.57033611 19.69129694 -20.83057934 17.65155461 -18.19140625 15.21484375 C-17.44439453 14.51939453 -16.69738281 13.82394531 -15.92773438 13.10742188 C-15.14720703 12.39134766 -14.36667969 11.67527344 -13.5625 10.9375 C-12.02188003 9.50939004 -10.48150581 8.08101492 -8.94140625 6.65234375 C-8.25763916 6.02320068 -7.57387207 5.39405762 -6.86938477 4.74584961 C-5.66960869 3.62535872 -4.50184255 2.46898711 -3.37866211 1.27172852 C-2 0 -2 0 0 0 Z " fill="#27AEAB" transform="translate(330,360)"/>
<path d="M0 0 C0.66 0.33 1.32 0.66 2 1 C0.33333333 2.66666667 -1.33333333 4.33333333 -3 6 C-3.886875 6.928125 -4.77375 7.85625 -5.6875 8.8125 C-8 11 -8 11 -10 11 C-10.226875 11.598125 -10.45375 12.19625 -10.6875 12.8125 C-12.33811133 15.56351888 -14.1972081 16.52484637 -17 18 C-17.33 17.01 -17.66 16.02 -18 15 C-18.66 15 -19.32 15 -20 15 C-20 14.34 -20 13.68 -20 13 C-17.81939538 11.45266686 -15.64791094 10.02441801 -13.375 8.625 C-12.13251648 7.84682661 -10.89032645 7.06818441 -9.6484375 6.2890625 C-9.0409668 5.91040039 -8.43349609 5.53173828 -7.80761719 5.14160156 C-5.17134199 3.47666061 -2.58565779 1.74233555 0 0 Z " fill="#49BEBD" transform="translate(299,386)"/>
<path d="M0 0 C1.093125 0.350625 2.18625 0.70125 3.3125 1.0625 C6.90920373 2.33039454 6.90920373 2.33039454 10 1 C12.26171875 2.0390625 12.26171875 2.0390625 14.6875 3.625 C15.49574219 4.13289063 16.30398438 4.64078125 17.13671875 5.1640625 C19 7 19 7 19.26953125 9.7109375 C19.18058594 10.46632813 19.09164062 11.22171875 19 12 C18.01 12.33 17.02 12.66 16 13 C16 12.34 16 11.68 16 11 C14.845 10.62875 13.69 10.2575 12.5 9.875 C7.76465059 8.10769995 3.66187686 5.49631327 0 2 C0 1.34 0 0.68 0 0 Z " fill="#FD9EA4" transform="translate(723,351)"/>
<path d="M0 0 C2.8125 0.5 2.8125 0.5 4.8125 2.5 C4.8125 3.49 4.8125 4.48 4.8125 5.5 C3.6678125 5.4071875 3.6678125 5.4071875 2.5 5.3125 C-0.69402837 5.53533919 -1.1095993 6.23319924 -3.1875 8.5 C-4.1775 8.5 -5.1675 8.5 -6.1875 8.5 C-5.836875 9.758125 -5.48625 11.01625 -5.125 12.3125 C-4.25140515 15.44716388 -4.11510703 16.28282108 -5.1875 19.5 C-7.255885 17.81118565 -8.10817819 16.88404974 -8.65625 14.23046875 C-8.70964304 9.8856099 -8.71780543 6.46394509 -6.0625 2.875 C-3.1875 0.5 -3.1875 0.5 0 0 Z " fill="#525255" transform="translate(852.1875,501.5)"/>
<path d="M0 0 C8.06358382 3.76300578 8.06358382 3.76300578 10.125 8.6875 C12.42689778 12.75418608 15.32355075 15.11591308 18.85546875 18.1171875 C21.23742028 20.2084455 23.09026931 22.4764273 25 25 C26.6459651 26.68711423 28.31237149 28.3545622 30 30 C31.33333333 31.33333333 32.66666667 32.66666667 34 34 C29.75096527 33.50065953 27.75241007 31.11100696 24.82421875 28.15234375 C24.33597122 27.66222305 23.84772369 27.17210236 23.34468079 26.66712952 C22.31162945 25.62736182 21.28217932 24.5840055 20.25610352 23.53735352 C18.71016129 21.96061275 17.15414653 20.39445375 15.59570312 18.83007812 C0 3.11557918 0 3.11557918 0 0 Z " fill="#FEACB1" transform="translate(674,304)"/>
<path d="M0 0 C0.66 0 1.32 0 2 0 C2.50757862 1.41396902 3.00574925 2.83131729 3.5 4.25 C3.7784375 5.03890625 4.056875 5.8278125 4.34375 6.640625 C5 9 5 9 5 13 C5.66 13 6.32 13 7 13 C7.99 16.63 8.98 20.26 10 24 C5.69694307 21.84847154 5.24764208 21.23946612 3.3125 17.125 C2.89613281 16.26132812 2.47976563 15.39765625 2.05078125 14.5078125 C-0.04911802 9.49615699 -0.08972905 5.38374296 0 0 Z " fill="#23A39E" transform="translate(350,415)"/>
<path d="M0 0 C0.74900574 0.00141495 1.49801147 0.0028299 2.26971436 0.00428772 C4.65380912 0.00986966 7.03780878 0.0224188 9.421875 0.03515625 C11.04166531 0.04017359 12.66145709 0.04473609 14.28125 0.04882812 C18.24482812 0.05983317 22.20833545 0.07708534 26.171875 0.09765625 C17.00140174 5.08269553 0.50717355 3.8579837 -9.828125 3.09765625 C-10.488125 2.43765625 -11.148125 1.77765625 -11.828125 1.09765625 C-7.93852673 -0.17394318 -4.04248921 -0.02885562 0 0 Z " fill="#3D3D3F" transform="translate(173.828125,476.90234375)"/>
<path d="M0 0 C1.1055189 0.93590504 2.20935453 1.87379858 3.3125 2.8125 C3.92738281 3.33457031 4.54226563 3.85664063 5.17578125 4.39453125 C8.51952278 7.3373102 8.51952278 7.3373102 10 9 C10 9.66 10 10.32 10 11 C10.99 11 11.98 11 13 11 C14.6875 12.5 14.6875 12.5 16 14 C16.66 13.67 17.32 13.34 18 13 C18 14.65 18 16.3 18 18 C13.39991997 17.51361161 11.21623942 15.80905548 7.875 12.6875 C7.02679688 11.90761719 6.17859375 11.12773437 5.3046875 10.32421875 C0 4.97457627 0 4.97457627 0 0 Z " fill="#2EA7A2" transform="translate(476,438)"/>
<path d="M0 0 C0.73863281 0.00064453 1.47726562 0.00128906 2.23828125 0.00195312 C6.83396896 0.03842684 11.21617835 0.43786018 15.75 1.1875 C15.75 1.5175 15.75 1.8475 15.75 2.1875 C13.69921875 2.41536458 11.6484375 2.64322917 9.59765625 2.87109375 C7.73859771 3.00636614 7.73859771 3.00636614 6.75 4.1875 C4.27836314 4.31432623 1.84709389 4.37270251 -0.625 4.375 C-1.31078125 4.38724609 -1.9965625 4.39949219 -2.703125 4.41210938 C-6.44296797 4.42302331 -8.0599737 4.3141842 -11.25 2.1875 C-7.4475409 -0.34747273 -4.39741204 -0.07141096 0 0 Z " fill="#78787A" transform="translate(774.25,487.8125)"/>
<path d="M0 0 C0.375 2.1875 0.375 2.1875 0 5 C-3.84795182 8.84795182 -8.12120571 11.60662922 -13 14 C-13.99 13.67 -14.98 13.34 -16 13 C-12.87608257 9.77531104 -9.63668034 6.70607022 -6.3125 3.6875 C-5.54550781 2.99011719 -4.77851562 2.29273438 -3.98828125 1.57421875 C-2 0 -2 0 0 0 Z " fill="#E2E2E2" transform="translate(638,554)"/>
<path d="M0 0 C0.53625 0.268125 1.0725 0.53625 1.625 0.8125 C1.29800016 3.7554986 0.82441672 4.65085986 -1.51953125 6.55078125 C-2.39996094 7.07027344 -3.28039062 7.58976562 -4.1875 8.125 C-5.06019531 8.65738281 -5.93289063 9.18976563 -6.83203125 9.73828125 C-9.61146682 10.91238998 -10.62435425 10.90891124 -13.375 9.8125 C-11.72946591 8.11856785 -10.07080608 6.45517377 -8.375 4.8125 C-7.61896484 4.07966797 -7.61896484 4.07966797 -6.84765625 3.33203125 C-2.92538149 -0.23095117 -2.92538149 -0.23095117 0 0 Z " fill="#50C3C3" transform="translate(305.375,390.1875)"/>
<path d="M0 0 C3.93214301 1.58939426 6.33020346 4.16342502 9.25 7.1875 C13.19209933 11.2432179 17.21662981 15.01934254 21.63671875 18.5625 C23 20 23 20 23 23 C19.45566346 21.58226538 18.66193881 20.32387762 17 17 C16.38898437 16.70738281 15.77796875 16.41476562 15.1484375 16.11328125 C12.63749482 14.81215641 11.40451891 13.37221453 9.625 11.1875 C7.41626821 8.55896606 5.25450385 6.25696522 2.5625 4.125 C1.716875 3.42375 0.87125 2.7225 0 2 C0 1.34 0 0.68 0 0 Z " fill="#FE989F" transform="translate(684,313)"/>
<path d="M0 0 C1.546875 0.433125 1.546875 0.433125 3.125 0.875 C4.07375 1.24625 5.0225 1.6175 6 2 C6.33 2.99 6.66 3.98 7 5 C-1.42857143 7.28571429 -1.42857143 7.28571429 -6 7 C-5.49396008 4.83125748 -5.00016187 3.00032373 -4 1 C-4.99 0.67 -5.98 0.34 -7 0 C-3.98968256 -0.93423645 -3.13349732 -1.04449911 0 0 Z " fill="#B2E8E9" transform="translate(439,208)"/>
<path d="M0 0 C1.91635217 -0.05423638 3.83314925 -0.09289963 5.75 -0.125 C7.35101562 -0.15980469 7.35101562 -0.15980469 8.984375 -0.1953125 C11.92470106 -0.00487687 13.52361878 0.47329896 16 2 C16 3.98 16 5.96 16 8 C15.34 6.68 14.68 5.36 14 4 C9.05 4 4.1 4 -1 4 C-0.67 2.68 -0.34 1.36 0 0 Z " fill="#7E7D80" transform="translate(608,470)"/>
<path d="M0 0 C2.52201094 3.14118728 4.33247199 6.39692863 6.125 10 C6.64320313 11.03125 7.16140625 12.0625 7.6953125 13.125 C8.75465021 15.45934896 9.50719748 17.49992869 10 20 C6.61743279 18.60802671 5.16311318 17.1974504 3.3125 14.0625 C2.89613281 13.37285156 2.47976563 12.68320312 2.05078125 11.97265625 C-0.11522297 7.90636579 -0.08554446 4.53385645 0 0 Z " fill="#1AB3B1" transform="translate(419,423)"/>
<path d="M0 0 C0.33 0.99 0.66 1.98 1 3 C-1.59857627 6.32040301 -3.97707834 6.34319646 -8 7 C-10.32219658 8.44730093 -10.32219658 8.44730093 -12 10 C-12.375 7.8125 -12.375 7.8125 -12 5 C-8.10914359 0.83122528 -5.88270107 -0.70032156 0 0 Z " fill="#39B8B8" transform="translate(348,344)"/>
<path d="M0 0 C1.40907283 2.81814566 0.50872691 4.17277204 -0.4375 7.125 C-0.72496094 8.03507813 -1.01242187 8.94515625 -1.30859375 9.8828125 C-1.53675781 10.58148437 -1.76492188 11.28015625 -2 12 C-0.35 11.67 1.3 11.34 3 11 C3 12.32 3 13.64 3 15 C-3.875 14.125 -3.875 14.125 -5 13 C-5.04562943 8.50093778 -4.79845438 4.99201907 -1.9375 1.4375 C-1.298125 0.963125 -0.65875 0.48875 0 0 Z " fill="#515153" transform="translate(507,573)"/>
<path d="M0 0 C0.66 0 1.32 0 2 0 C0.38477868 4.19957543 -2.5893065 7.16895638 -6 10 C-8.6875 11.1875 -8.6875 11.1875 -11 12 C-12.77277259 13.52007842 -12.77277259 13.52007842 -14 15 C-14.99 14.67 -15.98 14.34 -17 14 C-15.51829055 9.9558048 -13.40769399 8.86599382 -9.625 7 C-5.70688295 5.05678292 -3.04804654 3.11518413 0 0 Z " fill="#9ADBDD" transform="translate(319,374)"/>
<path d="M0 0 C0.66 0.33 1.32 0.66 2 1 C1.39671875 1.53367188 0.7934375 2.06734375 0.171875 2.6171875 C-4.9618932 7.4031843 -8.07352598 11.25208907 -10.05078125 18.03125 C-11 20 -11 20 -13.10546875 20.78125 C-13.73066406 20.8534375 -14.35585938 20.925625 -15 21 C-15.39374866 17.65313642 -15.23161741 16.32477908 -13.2421875 13.53515625 C-12.07042969 12.31119141 -12.07042969 12.31119141 -10.875 11.0625 C-10.05902344 10.20011719 -9.24304688 9.33773437 -8.40234375 8.44921875 C-7.60957031 7.64097656 -6.81679688 6.83273438 -6 6 C-5.36191406 5.34644531 -4.72382812 4.69289062 -4.06640625 4.01953125 C-2.72517547 2.66543495 -1.36506611 1.33006441 0 0 Z " fill="#FC9CA2" transform="translate(529,213)"/>
<path d="M0 0 C0.33 0 0.66 0 1 0 C1 9.9 1 19.8 1 30 C-0.9756562 27.03651571 -1.26376859 26.31979627 -1.4140625 22.98828125 C-1.47207031 21.85229492 -1.47207031 21.85229492 -1.53125 20.69335938 C-1.5621875 19.90767578 -1.593125 19.12199219 -1.625 18.3125 C-1.66367187 17.51521484 -1.70234375 16.71792969 -1.7421875 15.89648438 C-1.83632494 13.93136525 -1.91924632 11.9657146 -2 10 C-1.34 10 -0.68 10 0 10 C0 6.7 0 3.4 0 0 Z " fill="#FC8D94" transform="translate(565,415)"/>
<path d="M0 0 C6.01893759 3.08453491 11.00623769 6.43123874 16 11 C15.34 11.66 14.68 12.32 14 13 C8.58143868 9.89189123 4.16339678 6.68382138 0 2 C0 1.34 0 0.68 0 0 Z " fill="#FC989E" transform="translate(655,400)"/>
<path d="M0 0 C0.99 0.33 1.98 0.66 3 1 C3.33 2.98 3.66 4.96 4 7 C3.01 7.495 3.01 7.495 2 8 C1.52425562 10.54024004 1.15992453 13.00051464 0.875 15.5625 C0.78863281 16.27341797 0.70226562 16.98433594 0.61328125 17.71679688 C0.40065217 19.47689312 0.19927303 21.23834164 0 23 C-0.33 23 -0.66 23 -1 23 C-1.02887512 19.35418313 -1.04675585 15.70839537 -1.0625 12.0625 C-1.07087891 11.02158203 -1.07925781 9.98066406 -1.08789062 8.90820312 C-1.09272461 7.42416992 -1.09272461 7.42416992 -1.09765625 5.91015625 C-1.10289307 4.99371338 -1.10812988 4.07727051 -1.11352539 3.13305664 C-1 1 -1 1 0 0 Z " fill="#E9F1F2" transform="translate(507,267)"/>
<path d="M0 0 C1.65 0.33 3.3 0.66 5 1 C1.13237464 4.38417219 -3.83573776 7.05363156 -9.07421875 6.96484375 C-10.73026211 6.72634663 -12.36914714 6.37373711 -14 6 C-13.67 5.34 -13.34 4.68 -13 4 C-9.91051895 3.35336443 -6.81613929 2.97571651 -3.6875 2.5625 C-2.800625 2.376875 -1.91375 2.19125 -1 2 C-0.67 1.34 -0.34 0.68 0 0 Z " fill="#3DAFAA" transform="translate(374,434)"/>
<path d="M0 0 C-0.57725676 3.89648316 -2.31875268 6.1697945 -5 9 C-7.5 10.1875 -7.5 10.1875 -10 11 C-11.34006144 11.65303719 -12.67462181 12.31765487 -14 13 C-3.15384615 0 -3.15384615 0 0 0 Z " fill="#70CED0" transform="translate(411,221)"/>
<path d="M0 0 C4.875 0.875 4.875 0.875 6 2 C6.04080783 3.99958364 6.04254356 6.00045254 6 8 C4.02 8.99 4.02 8.99 2 10 C2 7.69 2 5.38 2 3 C1.34 3 0.68 3 0 3 C0 2.01 0 1.02 0 0 Z " fill="#515153" transform="translate(901,525)"/>
<path d="M0 0 C1.65 0 3.3 0 5 0 C4.67 2.31 4.34 4.62 4 7 C2.68 7 1.36 7 0 7 C-0.66 6.34 -1.32 5.68 -2 5 C-1.34 3.35 -0.68 1.7 0 0 Z " fill="#51C4C3" transform="translate(377,271)"/>
<path d="M0 0 C0.66 0.33 1.32 0.66 2 1 C-2.95 5.95 -7.9 10.9 -13 16 C-13.66 15.67 -14.32 15.34 -15 15 C-13.06629992 12.87143092 -11.12827941 10.7470979 -9.1875 8.625 C-8.64029297 8.02171875 -8.09308594 7.4184375 -7.52929688 6.796875 C-6.99755859 6.21679688 -6.46582031 5.63671875 -5.91796875 5.0390625 C-5.43094482 4.50490723 -4.9439209 3.97075195 -4.44213867 3.42041016 C-3 2 -3 2 0 0 Z " fill="#818182" transform="translate(350,520)"/>
<path d="M0 0 C1.65 0.33 3.3 0.66 5 1 C1.57611908 4.82669043 -1.00724943 6.72278474 -6 8 C-4.02 5.36 -2.04 2.72 0 0 Z " fill="#DADADC" transform="translate(231,524)"/>
<path d="M0 0 C0.66 0 1.32 0 2 0 C2.99 3.63 3.98 7.26 5 11 C0.81800367 8.90900184 0.00340633 8.00681267 -2 4 C-2 3.34 -2 2.68 -2 2 C-1.34 2 -0.68 2 0 2 C0 1.34 0 0.68 0 0 Z " fill="#31B1AE" transform="translate(355,428)"/>
<path d="M0 0 C2.475 0.99 2.475 0.99 5 2 C4.67 3.65 4.34 5.3 4 7 C3.67 6.01 3.34 5.02 3 4 C2.34 3.67 1.68 3.34 1 3 C0.855625 3.78375 0.71125 4.5675 0.5625 5.375 C0 8 0 8 -1 10 C-1.66 10 -2.32 10 -3 10 C-2.25 3.375 -2.25 3.375 0 0 Z " fill="#35B8B7" transform="translate(375,277)"/>
<path d="M0 0 C1.258125 -0.020625 2.51625 -0.04125 3.8125 -0.0625 C4.52019531 -0.07410156 5.22789062 -0.08570313 5.95703125 -0.09765625 C8 0 8 0 11 1 C11 1.99 11 2.98 11 4 C5.72 3.67 0.44 3.34 -5 3 C-5 2.67 -5 2.34 -5 2 C-3.35 1.67 -1.7 1.34 0 1 C0 0.67 0 0.34 0 0 Z " fill="#7AD1D3" transform="translate(456,209)"/>
<path d="M0 0 C1.98 0 3.96 0 6 0 C6.12375 0.556875 6.2475 1.11375 6.375 1.6875 C7.05976855 4.22114364 7.99133763 6.57921032 9 9 C5.18063472 7.44396229 2.73955562 5.04395069 0 2 C0 1.34 0 0.68 0 0 Z " fill="#FD9DA3" transform="translate(669,297)"/>
<path d="M0 0 C0.66 0.33 1.32 0.66 2 1 C1.67 1.33 1.34 1.66 1 2 C2.32 2.66 3.64 3.32 5 4 C0.545 6.97 0.545 6.97 -4 10 C-4.66 9.67 -5.32 9.34 -6 9 C-5.54625 8.608125 -5.0925 8.21625 -4.625 7.8125 C-2.72197695 5.68989737 -1.9789061 3.65703083 -1 1 C-0.67 0.67 -0.34 0.34 0 0 Z " fill="#BDEBEC" transform="translate(413,218)"/>
<path d="M0 0 C0.33 0.66 0.66 1.32 1 2 C1.66 2 2.32 2 3 2 C3 2.66 3 3.32 3 4 C-3.625 7 -3.625 7 -7 7 C-6.3125 4.625 -6.3125 4.625 -5 2 C-2.375 0.6875 -2.375 0.6875 0 0 Z " fill="#B2E7E9" transform="translate(427,213)"/>
<path d="M0 0 C-1.38188453 3.21043882 -2.92421903 5.04936365 -5.625 7.25 C-6.57246094 8.03117188 -6.57246094 8.03117188 -7.5390625 8.828125 C-8.02117187 9.21484375 -8.50328125 9.6015625 -9 10 C-9.66 9.67 -10.32 9.34 -11 9 C-10.06725891 7.87105124 -9.12859878 6.74699124 -8.1875 5.625 C-7.66542969 4.99851562 -7.14335937 4.37203125 -6.60546875 3.7265625 C-4.60437547 1.57453518 -3.0502442 0 0 0 Z " fill="#D7D6D7" transform="translate(287,524)"/>
<path d="M0 0 C0.99 0.33 1.98 0.66 3 1 C2.34 2.32 1.68 3.64 1 5 C-0.32 5 -1.64 5 -3 5 C-3.33 5.99 -3.66 6.98 -4 8 C-5.32 7.34 -6.64 6.68 -8 6 C-6.7391988 4.96680187 -5.46596742 3.94875621 -4.1875 2.9375 C-3.47980469 2.36902344 -2.77210938 1.80054688 -2.04296875 1.21484375 C-1.36878906 0.81394531 -0.69460938 0.41304688 0 0 Z " fill="#0DACA9" transform="translate(377,429)"/>
<path d="M0 0 C0.9075 0.309375 1.815 0.61875 2.75 0.9375 C7.28923591 2.47817276 7.28923591 2.47817276 12 3 C12 3.66 12 4.32 12 5 C10.20841511 5.02696365 8.41671527 5.04637917 6.625 5.0625 C5.62726562 5.07410156 4.62953125 5.08570313 3.6015625 5.09765625 C1 5 1 5 -1 4 C-0.67 2.68 -0.34 1.36 0 0 Z " fill="#170E11" transform="translate(569,297)"/>
<path d="M0 0 C0.66 0.33 1.32 0.66 2 1 C1.43410156 1.47308594 0.86820312 1.94617188 0.28515625 2.43359375 C-3.68481041 6.01284313 -6.45205387 8.51184116 -7 14 C-7 15.32 -7 16.64 -7 18 C-7.33 18 -7.66 18 -8 18 C-8.86091417 8.31949849 -8.86091417 8.31949849 -5.6875 4.5 C-3 2 -3 2 0 0 Z " fill="#858587" transform="translate(394,553)"/>
<path d="M0 0 C0.33 0 0.66 0 1 0 C1.33611568 2.10372401 1.66879946 4.20799657 2 6.3125 C2.185625 7.48425781 2.37125 8.65601563 2.5625 9.86328125 C3 13 3 13 3 16 C2.01 16.33 1.02 16.66 0 17 C0 11.39 0 5.78 0 0 Z " fill="#FA727A" transform="translate(563,432)"/>
<path d="M0 0 C1.32 0.66 2.64 1.32 4 2 C3.67 2.99 3.34 3.98 3 5 C0.69 5.33 -1.62 5.66 -4 6 C-2.68 4.02 -1.36 2.04 0 0 Z " fill="#71CFCF" transform="translate(289,397)"/>
<path d="M0 0 C0.66 0.33 1.32 0.66 2 1 C-1.3 4.3 -4.6 7.6 -8 11 C-8 7.0234755 -6.61988497 5.9109833 -4 3 C-1.75 1.1875 -1.75 1.1875 0 0 Z " fill="#858586" transform="translate(276,518)"/>
<path d="M0 0 C2.125 0.375 2.125 0.375 4 1 C1.6875 3.5 1.6875 3.5 -1 6 C-1.99 6 -2.98 6 -4 6 C-2.84826645 3.53199953 -1.95216435 1.95216435 0 0 Z " fill="#2BB5B4" transform="translate(308,385)"/>
<path d="M0 0 C5.75 3.625 5.75 3.625 8 7 C5.25851328 6.62952882 3.41406801 6.31412056 1.1875 4.625 C0 3 0 3 0 0 Z " fill="#FC8890" transform="translate(666,290)"/>
<path d="M0 0 C0.99 0 1.98 0 3 0 C2.3125 2.4375 2.3125 2.4375 1 5 C-1.625 5.8125 -1.625 5.8125 -4 6 C-2.1875 3 -2.1875 3 0 0 Z " fill="#87D9DB" transform="translate(417,215)"/>
<path d="M0 0 C4.67692308 1.47692308 4.67692308 1.47692308 6.3125 4.125 C6.539375 4.74375 6.76625 5.3625 7 6 C4.0625 5.25 4.0625 5.25 1 4 C0.125 1.875 0.125 1.875 0 0 Z " fill="#FA8F96" transform="translate(734,354)"/>
<path d="M0 0 C0.66 0.33 1.32 0.66 2 1 C0.35 2.65 -1.3 4.3 -3 6 C-3.66 5.67 -4.32 5.34 -5 5 C-5 4.34 -5 3.68 -5 3 C-2.625 1.3125 -2.625 1.3125 0 0 Z " fill="#54C2C1" transform="translate(299,386)"/>
<path d="M0 0 C1.65 0.33 3.3 0.66 5 1 C2.61426621 2.89213369 0.92824652 4.02391783 -2 5 C-1.34 3.35 -0.68 1.7 0 0 Z " fill="#32ABA6" transform="translate(374,434)"/>
</svg>
