<?xml version="1.0" encoding="UTF-8"?>
<svg xmlns="http://www.w3.org/2000/svg"
     width="1500"
     height="1200"
     viewBox="0 0 1500 1200">

    <!-- Background -->
    <rect width="100%" height="100%" fill="#ffffff"/>

    <!-- Logo Group -->
    <g transform="translate(750 430)">

        <!-- LEFT CHARACTER -->
        <path
            d="M-170 -140
               C-260 -140 -300 -20 -270 90
               C-255 140 -245 185 -235 220
               C-210 195 -185 195 -160 220
               C-135 195 -110 195 -85 220
               C-75 185 -65 140 -50 90
               C-20 -20 -70 -140 -170 -140 Z"
            fill="#00a7a0"/>

        <!-- LEFT FACE -->
        <path d="M-200 -40 Q-185 -25 -170 -40"
              stroke="#222" stroke-width="6" fill="none"
              stroke-linecap="round"/>
        <path d="M-145 -40 Q-130 -25 -115 -40"
              stroke="#222" stroke-width="6" fill="none"
              stroke-linecap="round"/>
        <path d="M-165 -5 Q-155 5 -145 -5"
              stroke="#222" stroke-width="6" fill="none"
              stroke-linecap="round"/>

        <!-- RIGHT CHARACTER -->
        <path
            d="M170 -140
               C260 -140 300 -20 270 90
               C255 140 245 185 235 220
               C210 195 185 195 160 220
               C135 195 110 195 85 220
               C75 185 65 140 50 90
               C20 -20 70 -140 170 -140 Z"
            fill="#ff8b91"/>

        <!-- RIGHT FACE -->
        <path d="M115 -40 Q130 -25 145 -40"
              stroke="#222" stroke-width="6" fill="none"
              stroke-linecap="round"/>
        <path d="M170 -10 Q185 0 200 -10"
              stroke="#222" stroke-width="6" fill="none"
              stroke-linecap="round"/>

    </g>

    <!-- Brand Text -->
    <text x="750" y="820"
          text-anchor="middle"
          font-family="Brush Script MT, cursive"
          font-size="160"
          fill="#555">
        Teens Together
    </text>

</svg>
