<?xml version="1.0" encoding="UTF-8"?>
<svg version="1.1" xmlns="http://www.w3.org/2000/svg" width="830" height="550">
<path d="M0 0 C1.33328842 -0.0098568 1.33328842 -0.0098568 2.69351196 -0.01991272 C5.60801294 -0.03947862 8.52246305 -0.05126502 11.43701172 -0.0612793 C12.43718197 -0.06535482 13.43735222 -0.06943035 14.46783066 -0.07362938 C19.75264016 -0.09440958 25.03742424 -0.10875104 30.32226562 -0.11816406 C35.77418507 -0.12926715 41.22570075 -0.16373478 46.67747688 -0.20333576 C50.87939209 -0.22946812 55.08120998 -0.23785244 59.28319931 -0.24144554 C61.29343293 -0.24631298 63.30366216 -0.25793143 65.31381607 -0.27648354 C68.1236027 -0.30082351 70.93232779 -0.29992045 73.7421875 -0.29296875 C74.56831543 -0.30577881 75.39444336 -0.31858887 76.24560547 -0.33178711 C81.55034086 -0.28399826 84.51934281 0.68621824 88.74169922 4.17700195 C94.09169056 10.24996509 94.5217302 14.68376628 94.0177002 22.71594238 C93.06656626 31.19706196 90.62560468 39.52825366 88.51708984 47.77856445 C87.62501539 51.26945885 86.75543516 54.76532245 85.89013672 58.26293945 C73.2313826 109.02784463 73.2313826 109.02784463 63.74169922 115.55200195 C61.30374095 116.31386391 59.28073025 116.38286933 56.74169922 116.17700195 C56.41169922 115.84700195 56.08169922 115.51700195 55.74169922 115.17700195 C56.94453846 92.72400269 65.53761646 69.2149848 71.87597656 47.79907227 C73.71091917 41.5446889 74.8951506 35.59810827 75.05419922 29.05200195 C75.09158203 28.03879883 75.12896484 27.0255957 75.16748047 25.98168945 C74.61927109 22.3705488 73.64732738 21.34538118 70.74169922 19.17700195 C66.00422464 17.21583018 61.64226324 16.88027919 56.58081055 16.88647461 C55.78496048 16.87975739 54.98911041 16.87304016 54.16914368 16.86611938 C51.55394152 16.84721066 48.9389966 16.84321984 46.32373047 16.84106445 C44.50103145 16.83463519 42.67833346 16.82790673 40.8556366 16.82089233 C37.04362594 16.80894008 33.2317058 16.80520976 29.41967773 16.80639648 C24.53009312 16.80660039 19.64108505 16.77921547 14.75163746 16.74485207 C10.9916058 16.72265077 7.23171488 16.71855673 3.47162437 16.71961594 C1.66825039 16.71725294 -0.13512707 16.70839027 -1.93843651 16.6929512 C-4.45457326 16.67341306 -6.96943967 16.67907869 -9.4855957 16.69116211 C-10.23214417 16.6799231 -10.97869263 16.66868408 -11.74786377 16.65710449 C-15.87608563 16.70628258 -15.87608563 16.70628258 -19.17280579 18.98910522 C-20.77573984 22.21993926 -21.65230455 25.56790804 -22.50830078 29.05200195 C-22.81320435 30.26605713 -22.81320435 30.26605713 -23.12426758 31.50463867 C-23.58251058 33.34539184 -24.03552742 35.18745092 -24.484375 37.03051758 C-25.34472898 40.52838575 -26.24234567 44.01593478 -27.13720703 47.50512695 C-31.62880789 65.39029573 -34.2161764 80.83648902 -30.25830078 99.17700195 C-27.35913279 100.00113302 -24.74482779 100.3181161 -21.73461914 100.36645508 C-20.84021118 100.38320786 -19.94580322 100.39996063 -19.02429199 100.41722107 C-18.05866333 100.43076126 -17.09303467 100.44430145 -16.09814453 100.45825195 C-15.08780151 100.47634415 -14.0774585 100.49443634 -13.03649902 100.51307678 C-10.87453437 100.55155323 -8.71253424 100.58807641 -6.55050659 100.62283325 C-0.97375183 100.71288155 4.60271809 100.81760751 10.17919922 100.9230957 C11.8175045 100.95378395 11.8175045 100.95378395 13.48890686 100.98509216 C25.57979947 101.21915293 37.66048755 101.63770859 49.74169922 102.17700195 C49.8148023 107.26375775 49.61815963 111.39202791 47.74169922 116.17700195 C44.24014204 118.75458335 40.33278479 118.47283972 36.16259766 118.4675293 C35.0251989 118.47760513 35.0251989 118.47760513 33.86482239 118.48788452 C31.36017279 118.50686765 28.85579127 118.51078924 26.35107422 118.51293945 C24.60475556 118.51936858 22.85843798 118.52609703 21.11212158 118.53311157 C17.45037338 118.54508613 13.78871952 118.54879236 10.12695312 118.54760742 C5.44853896 118.54740455 0.77073438 118.57467313 -3.90753555 118.60915184 C-7.51593773 118.63146009 -11.12419432 118.63544372 -14.73265839 118.63438797 C-16.45654139 118.63673931 -18.18042869 118.64553643 -19.90424347 118.6610527 C-22.32379468 118.68078714 -24.74204615 118.67484582 -27.16162109 118.6628418 C-27.86528305 118.67408081 -28.56894501 118.68531982 -29.29393005 118.69689941 C-35.52420913 118.61888337 -40.56833869 116.45152588 -45.28173828 112.46606445 C-45.72775391 111.91692383 -46.17376953 111.3677832 -46.63330078 110.80200195 C-47.09478516 110.25801758 -47.55626953 109.7140332 -48.03173828 109.15356445 C-51.82652303 103.03840176 -51.5927583 96.76692793 -51.57080078 89.80200195 C-51.58691406 88.81844727 -51.60302734 87.83489258 -51.61962891 86.8215332 C-51.62902011 72.19003449 -47.63974632 57.94305044 -44.03417969 43.85668945 C-43.37938817 41.28664502 -42.7425359 38.71254731 -42.10595703 36.13793945 C-36.6535771 14.4959608 -36.6535771 14.4959608 -28.25830078 7.17700195 C-27.63955078 6.45512695 -27.02080078 5.73325195 -26.38330078 4.98950195 C-19.71853924 -0.6951476 -8.38317127 0.02742015 0 0 Z " fill="#1F1B9F" transform="translate(113.25830078125,94.822998046875)"/>
<path d="M0 0 C0.89739899 -0.00274933 1.79479797 -0.00549866 2.71939087 -0.0083313 C4.18458664 0.00245453 4.18458664 0.00245453 5.67938232 0.01345825 C6.71384491 0.0131662 7.7483075 0.01287415 8.81411743 0.01257324 C12.23380924 0.01396672 15.65328325 0.029529 19.07293701 0.04519653 C21.44376506 0.04892659 23.81459466 0.0517736 26.1854248 0.05377197 C32.42600763 0.06140896 38.6664974 0.08105811 44.90704346 0.10317993 C51.2748285 0.12363689 57.64262858 0.13277338 64.01043701 0.14285278 C76.50526957 0.16430385 89.00003305 0.19844068 101.49481201 0.24050903 C101.98981201 2.22050903 101.98981201 2.22050903 102.49481201 4.24050903 C103.11356201 4.28175903 103.73231201 4.32300903 104.36981201 4.36550903 C106.49481201 5.24050903 106.49481201 5.24050903 107.74481201 7.55300903 C110.11112211 19.18736702 107.29084633 29.52555675 104.38543701 40.76443481 C103.3564071 44.78069794 102.36134354 48.80470226 101.36981201 52.83035278 C99.45945159 60.57656479 97.51647148 68.31412988 95.55535889 76.04763794 C94.89631338 78.64732919 94.24457466 81.2484095 93.59832764 83.85134888 C87.96747072 106.50089136 87.96747072 106.50089136 79.93231201 114.92800903 C76.91599659 116.55217888 75.72597484 116.04157935 72.49481201 115.24050903 C72.8346216 100.59780488 77.18713576 86.37664334 80.75653076 72.26785278 C80.95521759 71.48056793 81.15390442 70.69328308 81.35861206 69.88214111 C82.35363544 65.94182452 83.35563474 62.00356219 84.37176514 58.06863403 C87.25882934 46.79406342 89.83869495 35.63824636 89.61981201 23.92800903 C89.60176514 22.65312622 89.58371826 21.37824341 89.56512451 20.06472778 C89.54192139 19.1327356 89.51871826 18.20074341 89.49481201 17.24050903 C81.8461659 14.79139895 74.22812232 14.90855513 66.27996826 14.86160278 C64.7818652 14.84537042 63.2837722 14.82818478 61.78569031 14.81010437 C57.84163237 14.7645665 53.89755872 14.72975082 49.95336914 14.69790649 C42.95794935 14.63981477 35.96270075 14.56362589 28.96746826 14.48660278 C28.21661579 14.47871105 27.46576332 14.47081932 26.69215775 14.46268845 C13.27992837 14.31813125 -0.10737147 13.90046083 -13.50518799 13.24050903 C-12.74402234 8.71195786 -11.35113422 5.89958276 -8.50518799 2.24050903 C-5.59709359 0.42093706 -3.40351298 -0.0080652 0 0 Z " fill="#2A2A2A" transform="translate(126.50518798828125,72.75949096679688)"/>
<path d="M0 0 C0.98162109 -0.020625 1.96324219 -0.04125 2.97460938 -0.0625 C9.99638255 -0.10017551 15.02166037 0.58175165 20.625 5.125 C24.33880909 9.80164848 24.95739737 14.39474132 24.3125 20.25 C22.72939777 28.49809563 18.89913353 36.77829142 12.3125 42.25 C11.3225 42.25 10.3325 42.25 9.3125 42.25 C9.5290625 42.81847656 9.745625 43.38695312 9.96875 43.97265625 C13.23888977 53.04123831 12.61257607 60.23967996 9.3125 69.25 C4.56190563 79.12955467 -1.32557313 84.57376855 -11.6875 88.25 C-15.32920183 89.1177584 -18.68633423 89.36765329 -22.42578125 89.34765625 C-24.02583008 89.34282227 -24.02583008 89.34282227 -25.65820312 89.33789062 C-27.31239258 89.32532227 -27.31239258 89.32532227 -29 89.3125 C-30.12212891 89.30798828 -31.24425781 89.30347656 -32.40039062 89.29882812 C-35.1628151 89.28707313 -37.92512998 89.27064077 -40.6875 89.25 C-41.72541337 86.06949599 -41.64120757 84.21395699 -40.61645508 81.04663086 C-40.35080246 80.2139418 -40.08514984 79.38125275 -39.81144714 78.52333069 C-39.5088649 77.617155 -39.20628265 76.71097931 -38.89453125 75.77734375 C-38.42392021 74.33547951 -38.42392021 74.33547951 -37.94380188 72.86448669 C-33.71631231 60.07683411 -29.02908888 47.44935758 -24.375 34.8125 C-23.01413428 31.10989267 -21.65466221 27.40678942 -20.29804993 23.70262146 C-19.46263415 21.42224093 -18.62471352 19.14277592 -17.78385925 16.86439514 C-15.45787077 10.53083567 -15.45787077 10.53083567 -13.54223633 4.06616211 C-13.26017334 3.13682861 -12.97811035 2.20749512 -12.6875 1.25 C-8.86637162 -0.66056419 -4.20348704 0.02165351 0 0 Z M-3.26171875 15.41015625 C-5.13092466 17.82220004 -5.9635994 20.17350381 -6.9375 23.0625 C-7.29328125 24.07957031 -7.6490625 25.09664062 -8.015625 26.14453125 C-8.75522314 29.56302266 -8.53441037 31.8771302 -7.6875 35.25 C-6.50325674 36.66577477 -6.50325674 36.66577477 -3.125 36.3125 C-1.4234375 36.2815625 -1.4234375 36.2815625 0.3125 36.25 C0.3125 35.59 0.3125 34.93 0.3125 34.25 C2.2925 34.25 4.2725 34.25 6.3125 34.25 C6.43625 33.528125 6.56 32.80625 6.6875 32.0625 C7.3125 29.25 7.3125 29.25 8.375 26.875 C9.59417339 23.46131452 9.71214543 20.84680885 9.3125 17.25 C7.85208234 15.13329643 7.85208234 15.13329643 5.3125 14.25 C0.7642993 13.64650165 0.7642993 13.64650165 -3.26171875 15.41015625 Z M6.3125 42.25 C6.3125 42.91 6.3125 43.57 6.3125 44.25 C6.9725 43.92 7.6325 43.59 8.3125 43.25 C7.6525 42.92 6.9925 42.59 6.3125 42.25 Z M-16.6875 52.25 C-18.05101335 54.72266196 -19.04706554 56.88005881 -20 59.5 C-20.26361328 60.15613281 -20.52722656 60.81226563 -20.79882812 61.48828125 C-22.34480251 65.52789225 -23.15505192 68.93605431 -22.6875 73.25 C-22.0275 74.24 -21.3675 75.23 -20.6875 76.25 C-17.70333097 76.72118458 -16.23024138 76.60617403 -13.6875 74.9375 C-13.0275 74.380625 -12.3675 73.82375 -11.6875 73.25 C-10.8625 72.816875 -10.0375 72.38375 -9.1875 71.9375 C-5.49910269 69.44783181 -3.35670944 66.57174703 -2.11328125 62.2578125 C-1.53159337 58.94281703 -1.60346861 56.49684221 -2.6875 53.3125 C-6.68089364 49.19431281 -11.96686296 49.47709037 -16.6875 52.25 Z " fill="#1C199A" transform="translate(537.6875,98.75)"/>
<path d="M0 0 C1.50433594 0.01353516 1.50433594 0.01353516 3.0390625 0.02734375 C3.80992187 0.03894531 4.58078125 0.05054687 5.375 0.0625 C5.58667872 5.14601492 5.0033626 9.01939997 3.32421875 13.8125 C3.10295822 14.44953857 2.88169769 15.08657715 2.6537323 15.74291992 C-0.33297297 24.24390064 -3.5830393 32.65162368 -6.8125 41.0625 C-8.05938167 44.31121495 -9.30226851 47.56142012 -10.54296875 50.8125 C-10.82319382 51.53864502 -11.10341888 52.26479004 -11.39213562 53.01293945 C-13.56462561 58.7060243 -15.60830583 64.40390537 -16.25 70.5 C-16.37375 71.675625 -16.4975 72.85125 -16.625 74.0625 C-15.965 74.0625 -15.305 74.0625 -14.625 74.0625 C-14.13 75.0525 -14.13 75.0525 -13.625 76.0625 C-9.94696713 76.41278885 -7.8614061 76.17597493 -4.5 74.5625 C0.87324263 69.89011511 2.9679 62.8785263 5.29296875 56.28515625 C5.55174805 55.56427826 5.81052734 54.84340027 6.07714844 54.10067749 C6.91013385 51.77704561 7.73624725 49.4510333 8.5625 47.125 C9.13854688 45.51616687 9.71513009 43.90752569 10.29223633 42.29907227 C12.47923597 36.19859116 14.65307971 30.09344556 16.82421875 23.98730469 C17.68199083 21.57560679 18.54102266 19.16435638 19.40161133 16.75366211 C20.15807018 14.63350919 20.91070438 12.51198655 21.65893555 10.38891602 C21.9919165 9.45490967 22.32489746 8.52090332 22.66796875 7.55859375 C22.9518042 6.75607178 23.23563965 5.9535498 23.52807617 5.12670898 C24.375 3.0625 24.375 3.0625 26.375 0.0625 C29.1953125 -0.23046875 29.1953125 -0.23046875 32.5 -0.125 C34.14355469 -0.08439453 34.14355469 -0.08439453 35.8203125 -0.04296875 C37.08488281 0.00923828 37.08488281 0.00923828 38.375 0.0625 C37.9058381 6.02042568 36.91197509 11.36453288 34.9375 17 C34.55259399 18.12849365 34.55259399 18.12849365 34.15991211 19.27978516 C31.35720345 27.35927316 28.24156549 35.32288684 25.12817383 43.28662109 C22.77205854 49.33379136 20.54235405 55.39514497 18.48657227 61.55078125 C14.54528279 73.32662602 10.87958384 82.05568189 -0.625 88.0625 C-6.95095774 90.73886674 -13.85751611 90.76889974 -20.625 90.0625 C-25.15342355 87.91745727 -27.79762229 85.15955252 -30.625 81.0625 C-33.28541847 67.01705545 -26.23773685 51.38800062 -21.375 38.5 C-20.64507942 36.54604689 -19.91713872 34.59136281 -19.18919373 32.63667297 C-18.70322288 31.33254369 -18.21638348 30.02873771 -17.72865295 28.7252655 C-16.18148673 24.5848435 -14.67605929 20.43161027 -13.19921875 16.265625 C-12.83538086 15.24283447 -12.47154297 14.22004395 -12.09667969 13.16625977 C-11.42150584 11.26235238 -10.75135163 9.35665534 -10.08691406 7.44897461 C-9.78881836 6.61374268 -9.49072266 5.77851074 -9.18359375 4.91796875 C-8.92892334 4.19246826 -8.67425293 3.46696777 -8.41186523 2.71948242 C-6.73004169 -0.82210505 -3.45396331 -0.04016236 0 0 Z " fill="#767676" transform="translate(423.625,98.9375)"/>
<path d="M0 0 C4.65796882 3.04846472 7.98615875 7.32822082 10.70703125 12.1171875 C12.36491396 27.07624412 3.17410158 43.57452246 -2.29296875 57.1171875 C-2.67203369 58.08358154 -3.05109863 59.04997559 -3.44165039 60.0456543 C-7.39899329 70.13272436 -12.38871736 79.50667127 -21.29296875 86.1171875 C-26.30467096 87.99657583 -31.04818381 88.45493624 -36.35546875 88.4296875 C-37.03673828 88.44580078 -37.71800781 88.46191406 -38.41992188 88.47851562 C-43.12882999 88.48303907 -46.29354116 87.57338972 -50.29296875 85.1171875 C-53.85747424 81.55268201 -54.64239505 78.37735755 -54.91796875 73.4921875 C-54.59311289 63.93059657 -51.36776315 55.0884089 -48.29296875 46.1171875 C-47.97730957 45.18535645 -47.66165039 44.25352539 -47.33642578 43.29345703 C-36.87537863 12.67359038 -36.87537863 12.67359038 -28.29296875 5.1171875 C-27.63296875 5.1171875 -26.97296875 5.1171875 -26.29296875 5.1171875 C-26.29296875 4.4571875 -26.29296875 3.7971875 -26.29296875 3.1171875 C-18.85129372 -1.40025208 -8.33783654 -3.21013809 0 0 Z M-21.04296875 15.8046875 C-26.78407193 23.28938498 -29.30642195 32.19174487 -32.2578125 41.04736328 C-33.32715299 44.21856313 -34.44393124 47.36957321 -35.57421875 50.51953125 C-36.31413189 52.59363238 -37.05372436 54.66784793 -37.79296875 56.7421875 C-38.14359375 57.71953857 -38.49421875 58.69688965 -38.85546875 59.70385742 C-39.335 61.07247925 -39.335 61.07247925 -39.82421875 62.46875 C-40.10845703 63.27135254 -40.39269531 64.07395508 -40.68554688 64.90087891 C-41.46918327 67.3771373 -41.46918327 67.3771373 -41.29296875 71.1171875 C-40.63296875 71.1171875 -39.97296875 71.1171875 -39.29296875 71.1171875 C-39.62296875 72.4371875 -39.95296875 73.7571875 -40.29296875 75.1171875 C-37.11836233 75.93644077 -33.99634817 76.28417802 -30.73046875 76.4296875 C-29.98667969 76.46707031 -29.24289062 76.50445312 -28.4765625 76.54296875 C-25.3631492 75.935881 -24.35540238 74.50500926 -22.29296875 72.1171875 C-20.72114893 69.16647666 -20.72114893 69.16647666 -19.40234375 65.82421875 C-19.14958679 65.21351028 -18.89682983 64.60280182 -18.63641357 63.97358704 C-16.03191293 57.61674468 -13.60678125 51.19041546 -11.25048828 44.73803711 C-10.53597942 42.78558863 -9.81123036 40.83713636 -9.0859375 38.88867188 C-4.05461361 26.80068682 -4.05461361 26.80068682 -3.29296875 14.1171875 C-5.82844522 12.01636414 -7.5752782 11.18720609 -10.85546875 10.8671875 C-15.58487408 11.35225471 -17.84917284 12.1291827 -21.04296875 15.8046875 Z " fill="#272727" transform="translate(291.29296875,99.8828125)"/>
<path d="M0 0 C3.96 0 7.92 0 12 0 C11.07033152 11.62085595 6.91494075 22.51220356 2.84692383 33.34155273 C0.4785696 39.65114716 -1.74876195 46.00109055 -3.9375 52.375 C-6.64042553 60.20925038 -9.43981632 67.99960676 -12.375 75.75 C-12.87567993 77.0810376 -12.87567993 77.0810376 -13.38647461 78.43896484 C-13.69979736 79.2583252 -14.01312012 80.07768555 -14.3359375 80.921875 C-14.60970215 81.63956055 -14.8834668 82.35724609 -15.16552734 83.09667969 C-16 85 -16 85 -18 88 C-20.27734375 88.328125 -20.27734375 88.328125 -22.9375 88.25 C-23.81277344 88.23453125 -24.68804688 88.2190625 -25.58984375 88.203125 C-28 88 -28 88 -31 87 C-32.67331342 87.64980338 -34.3392935 88.31862189 -36 89 C-41.41471421 89.73907737 -45.60608938 90.05254475 -50.0625 86.6875 C-54.39525152 80.67755434 -54.43189682 77.40256031 -53.38378906 70.11328125 C-50.27613398 53.00140949 -43.77333274 33.38126084 -29 23 C-25.57767028 21.85922343 -22.91326783 21.90184883 -19.3125 21.9375 C-17.54326172 21.95103516 -17.54326172 21.95103516 -15.73828125 21.96484375 C-14.83464844 21.97644531 -13.93101562 21.98804687 -13 22 C-12.505 23.485 -12.505 23.485 -12 25 C-11.34 25.33 -10.68 25.66 -10 26 C-8.89521463 23.16690656 -7.7911567 20.3335331 -6.6875 17.5 C-6.37876953 16.70851563 -6.07003906 15.91703125 -5.75195312 15.1015625 C-3.79729059 10.08116609 -1.88152393 5.04827343 0 0 Z M-26.96875 38.66796875 C-29.46929892 41.53879126 -31.01097869 44.62330165 -32.5625 48.0625 C-33.01701538 49.05842163 -33.01701538 49.05842163 -33.48071289 50.07446289 C-37.13146819 58.27804104 -39.51178513 65.95846273 -39 75 C-38.67 74.01 -38.34 73.02 -38 72 C-37.113125 72.391875 -36.22625 72.78375 -35.3125 73.1875 C-32.05304015 74.32191933 -32.05304015 74.32191933 -29.25 72.9375 C-26.73425357 70.77116279 -25.9363937 69.14968791 -25 66 C-24.34 66 -23.68 66 -23 66 C-18.55765781 56.95666054 -14.34140561 46.22318108 -15 36 C-15.33 35.34 -15.66 34.68 -16 34 C-20.44441075 34 -23.6038349 35.8171379 -26.96875 38.66796875 Z " fill="#1B189B" transform="translate(734,100)"/>
<path d="M0 0 C2.08218362 -0.10832169 4.16599129 -0.18573541 6.25 -0.25 C7.99023438 -0.31960937 7.99023438 -0.31960937 9.765625 -0.390625 C13 0 13 0 15.359375 1.828125 C19.07109988 6.74174175 18.7587883 12.86849157 18.3125 18.79296875 C16.01225319 35.03846181 6.58904248 55.35137384 -6 66 C-10.64786168 67.76882186 -16.1314685 67.66037801 -21 67 C-23.58059339 65.59419103 -24.97536894 64.18879034 -27 62 C-27.13921875 63.41152344 -27.13921875 63.41152344 -27.28125 64.8515625 C-28.00500649 69.91021262 -29.7740217 74.58523693 -31.5 79.375 C-31.82097656 80.28894531 -32.14195312 81.20289063 -32.47265625 82.14453125 C-34.85611679 88.85611679 -34.85611679 88.85611679 -36 90 C-38.01964199 90.07244053 -40.04167124 90.08377188 -42.0625 90.0625 C-43.16722656 90.05347656 -44.27195312 90.04445313 -45.41015625 90.03515625 C-46.26480469 90.02355469 -47.11945313 90.01195312 -48 90 C-47.43787948 82.76269829 -45.34357444 76.34574292 -43 69.5 C-42.60063232 68.31817139 -42.20126465 67.13634277 -41.78979492 65.91870117 C-38.08878539 55.06351773 -34.09602726 44.32646142 -29.99609375 33.61669922 C-29.08749384 31.22984289 -28.19503491 28.83800014 -27.3125 26.44140625 C-24.14078393 17.8333265 -20.69832063 9.39335179 -17 1 C-15.37536158 0.94604522 -13.75021459 0.90722805 -12.125 0.875 C-10.76761719 0.84019531 -10.76761719 0.84019531 -9.3828125 0.8046875 C-7 1 -7 1 -5 3 C-3.68 3 -2.36 3 -1 3 C-0.67 2.01 -0.34 1.02 0 0 Z M-12 20 C-17.00437656 29.29384218 -21.9753413 40.65967008 -19.4375 51.375 C-17.95753227 53.30784358 -17.95753227 53.30784358 -14.75 54.1875 C-10.77461124 53.98873056 -10.39052936 53.96755374 -7.875 51.25 C-0.82457424 41.76192704 5.57785852 26.94664306 4 15 C-2.84207844 10.43861437 -7.41671377 14.35834239 -12 20 Z " fill="#757576" transform="translate(483,122)"/>
<path d="M0 0 C1.08667969 0.02707031 2.17335938 0.05414063 3.29296875 0.08203125 C4.54013672 0.13423828 4.54013672 0.13423828 5.8125 0.1875 C8.51684465 5.59618929 5.41672252 15.59428088 3.5625 21.24609375 C3.10782691 22.58198054 2.64949662 23.91662823 2.1875 25.25 C-1.07742613 34.8084089 -1.07352165 44.28588633 0.8125 54.1875 C4.07702145 54.90906482 7.13478124 55.3234244 10.47583008 55.37695312 C11.37058548 55.39367065 12.26534088 55.41038818 13.18721008 55.4276123 C14.14250107 55.44118774 15.09779205 55.45476318 16.08203125 55.46875 C17.57448616 55.49636414 17.57448616 55.49636414 19.09709167 55.52453613 C22.27300246 55.58314048 25.44896672 55.63599025 28.625 55.6875 C32.79828109 55.75552362 36.97140709 55.8292589 41.14453125 55.90625 C42.09374954 55.91982544 43.04296783 55.93340088 44.02095032 55.9473877 C49.36080136 56.04611358 54.52574457 56.42234738 59.8125 57.1875 C59.50499629 59.33405501 59.1913634 61.47973285 58.875 63.625 C58.70097656 64.81996094 58.52695313 66.01492187 58.34765625 67.24609375 C57.8125 70.1875 57.8125 70.1875 56.8125 71.1875 C50.21592188 72.27401232 43.68254732 72.37947496 37.0078125 72.42578125 C35.88865448 72.433853 34.76949646 72.44192474 33.61642456 72.45024109 C31.25813314 72.46401599 28.89982233 72.47476734 26.54150391 72.48266602 C24.14235546 72.49420507 21.74323307 72.51468694 19.34423828 72.54418945 C15.85692096 72.58700944 12.37036055 72.60305223 8.8828125 72.61328125 C7.82208527 72.63078934 6.76135803 72.64829742 5.66848755 72.66633606 C-3.24825562 72.64062243 -11.67941548 70.69558452 -18.1875 64.1875 C-22.14924142 52.30227573 -19.3619089 36.84284457 -17 24.875 C-16.80390137 23.85712402 -16.60780273 22.83924805 -16.40576172 21.79052734 C-14.32829486 12.10471679 -11.56231788 -0.372978 0 0 Z " fill="#797979" transform="translate(111.1875,115.8125)"/>
<path d="M0 0 C1.25425781 0.00902344 2.50851562 0.01804687 3.80078125 0.02734375 C4.75339844 0.03894531 5.70601562 0.05054687 6.6875 0.0625 C7.1825 1.5475 7.1825 1.5475 7.6875 3.0625 C10.18509982 4.76132448 10.18509982 4.76132448 12.6875 6.0625 C12.83217771 17.20268379 9.50392048 26.67996054 5.77148438 37.03125 C4.59412541 40.32361235 3.45982186 43.62917901 2.328125 46.9375 C1.5324509 49.2295839 0.73559518 51.52125799 -0.0625 53.8125 C-0.43890625 54.91432617 -0.8153125 56.01615234 -1.203125 57.15136719 C-1.74453125 58.67745605 -1.74453125 58.67745605 -2.296875 60.234375 C-2.61366211 61.1428418 -2.93044922 62.05130859 -3.25683594 62.98730469 C-4.3125 65.0625 -4.3125 65.0625 -7.3125 66.0625 C-9.46875 65.94140625 -9.46875 65.94140625 -11.8125 65.625 C-16.61166879 64.80651079 -16.61166879 64.80651079 -21.16015625 66.0390625 C-25.30116626 68.008109 -29.8413336 67.55929627 -34.3125 67.0625 C-37.4375 65.75 -37.4375 65.75 -39.3125 63.0625 C-41.54633119 54.38166232 -39.63478653 47.70707305 -35.75 39.9375 C-29.20888268 32.22233598 -20.78438368 28.76410365 -11.47021484 25.45922852 C-10.71820801 25.18908936 -9.96620117 24.9189502 -9.19140625 24.640625 C-8.5166626 24.40762695 -7.84191895 24.17462891 -7.14672852 23.93457031 C-5.04511014 22.93537148 -3.80812917 21.83590505 -2.3125 20.0625 C-1.74232192 18.02149762 -1.74232192 18.02149762 -1.625 15.875 C-1.521875 14.616875 -1.41875 13.35875 -1.3125 12.0625 C-5.17504199 12.26894621 -8.68771761 12.6699577 -12.3125 14.0625 C-14.55285835 17.01545426 -15.22673042 19.44326807 -16.3125 23.0625 C-20.6025 23.0625 -24.8925 23.0625 -29.3125 23.0625 C-29.3125 18.0625 -29.3125 18.0625 -27.98046875 16.5234375 C-27.43003906 16.04132813 -26.87960937 15.55921875 -26.3125 15.0625 C-25.39521058 13.61756623 -24.5007607 12.15797498 -23.625 10.6875 C-20.19699346 5.45168902 -16.11615291 2.09454917 -10.0234375 0.44140625 C-6.65622747 -0.02922685 -3.39889381 -0.03176536 0 0 Z M-21.3125 42.0625 C-22.19072312 44.14783633 -22.19072312 44.14783633 -22.3125 46.0625 C-22.9725 46.0625 -23.6325 46.0625 -24.3125 46.0625 C-23.9825 47.7125 -23.6525 49.3625 -23.3125 51.0625 C-20.9829053 51.56491322 -20.9829053 51.56491322 -18.3125 51.0625 C-15.04832423 47.25429494 -13.78526621 44.02654523 -13.3125 39.0625 C-16.95728912 39.0625 -18.40553401 39.92052506 -21.3125 42.0625 Z " fill="#1D1A9B" transform="translate(622.3125,121.9375)"/>
<path d="M0 0 C3.19846893 2.64540035 4.87250749 4.65307345 5.5625 8.80078125 C6.52845002 19.55626325 2.95178866 26.92488176 -1.4375 36.80078125 C-11.0075 36.80078125 -20.5775 36.80078125 -30.4375 36.80078125 C-31.12293143 40.91336984 -31.55476187 44.12340263 -31.5 48.17578125 C-31.48646484 49.48675781 -31.48646484 49.48675781 -31.47265625 50.82421875 C-31.46105469 51.47648437 -31.44945312 52.12875 -31.4375 52.80078125 C-26.24669277 52.77757307 -26.24669277 52.77757307 -21.828125 50.46875 C-20.09841796 48.37783943 -18.65130459 46.22839042 -17.4375 43.80078125 C-13.4775 43.80078125 -9.5175 43.80078125 -5.4375 43.80078125 C-6.31409564 51.16418459 -8.88571729 55.89455466 -14.4375 60.80078125 C-20.10300202 64.8799427 -23.79095199 65.98249795 -30.75 66.11328125 C-32.04550781 66.15066406 -33.34101563 66.18804687 -34.67578125 66.2265625 C-39.06893484 65.72931043 -41.1133643 64.68300822 -44.4375 61.80078125 C-46.37450384 58.3553635 -46.71016973 55.40447704 -46.6875 51.48828125 C-46.69265625 50.60527344 -46.6978125 49.72226563 -46.703125 48.8125 C-45.13812997 31.06821812 -35.72913184 12.93033902 -22.55078125 1.296875 C-16.80103447 -2.77364814 -6.18170977 -3.04132196 0 0 Z M-17.125 13.48828125 C-19.254921 15.61820225 -20.5462521 16.94878798 -21.4375 19.80078125 C-21.14615843 21.14391526 -20.81724823 22.47991783 -20.4375 23.80078125 C-18.98007537 23.88174928 -17.52137193 23.93995899 -16.0625 23.98828125 C-14.84433594 24.04048828 -14.84433594 24.04048828 -13.6015625 24.09375 C-12.88742187 23.99707031 -12.17328125 23.90039062 -11.4375 23.80078125 C-9.37824319 20.71189603 -9.1984626 20.09142198 -9.3125 16.61328125 C-9.374375 14.72609375 -9.374375 14.72609375 -9.4375 12.80078125 C-12.88939238 11.61727529 -13.96161559 11.50197011 -17.125 13.48828125 Z " fill="#2B2B2B" transform="translate(388.4375,123.19921875)"/>
<path d="M0 0 C2.69522564 2.28685812 3.77587024 4.39041104 4.50390625 7.84375 C4.97034489 17.11233707 1.45287521 25.1810412 -1.78125 33.68994141 C-3.07783869 37.12141156 -4.3373962 40.56532006 -5.59375 44.01171875 C-7.35495959 48.82682668 -9.1162029 53.64184794 -10.8984375 58.44921875 C-11.26759277 59.44783936 -11.63674805 60.44645996 -12.01708984 61.4753418 C-12.9375 63.75 -12.9375 63.75 -13.9375 64.75 C-15.95714199 64.82244053 -17.97917124 64.83377188 -20 64.8125 C-21.10472656 64.80347656 -22.20945312 64.79445313 -23.34765625 64.78515625 C-24.20230469 64.77355469 -25.05695312 64.76195312 -25.9375 64.75 C-27.06255964 61.37482109 -26.84813945 60.78226866 -25.68994141 57.57324219 C-25.39278229 56.73517029 -25.09562317 55.89709839 -24.78945923 55.03363037 C-24.45932831 54.1305011 -24.12919739 53.22737183 -23.7890625 52.296875 C-23.29108658 50.89649994 -23.29108658 50.89649994 -22.78305054 49.46783447 C-21.71814103 46.47539723 -20.64140912 43.48741576 -19.5625 40.5 C-18.49158952 37.52658623 -17.42347986 34.55229586 -16.3633728 31.57501221 C-15.70324774 29.7217243 -15.03688367 27.87064338 -14.36343384 26.02215576 C-12.65575772 21.23513153 -11.44199063 16.8120951 -10.9375 11.75 C-13.5775 11.75 -16.2175 11.75 -18.9375 11.75 C-19.2675 12.74 -19.5975 13.73 -19.9375 14.75 C-20.57236328 15.37398682 -21.20722656 15.99797363 -21.86132812 16.64086914 C-24.06094911 18.87540885 -24.98921676 20.60893769 -26.15625 23.49609375 C-26.52911133 24.40963623 -26.90197266 25.32317871 -27.28613281 26.2644043 C-27.66608398 27.22902588 -28.04603516 28.19364746 -28.4375 29.1875 C-28.83549805 30.1772583 -29.23349609 31.1670166 -29.64355469 32.18676758 C-32.09316788 38.35977264 -34.21147922 44.51239005 -36.03125 50.8984375 C-37.56010293 55.70905232 -39.7233424 60.22186622 -41.9375 64.75 C-43.89553507 64.80389087 -45.85398909 64.84274217 -47.8125 64.875 C-49.44832031 64.90980469 -49.44832031 64.90980469 -51.1171875 64.9453125 C-53.9375 64.75 -53.9375 64.75 -55.9375 62.75 C-55.2775 62.75 -54.6175 62.75 -53.9375 62.75 C-53.79489746 62.16911621 -53.65229492 61.58823242 -53.50537109 60.98974609 C-51.29422882 52.43064175 -48.38409451 44.150359 -45.43164062 35.82617188 C-44.56719902 33.38825228 -43.70890287 30.94823726 -42.8515625 28.5078125 C-33.69290536 2.50540536 -33.69290536 2.50540536 -30.9375 -0.25 C-28.3359375 -0.4453125 -28.3359375 -0.4453125 -25.3125 -0.375 C-23.80816406 -0.34792969 -23.80816406 -0.34792969 -22.2734375 -0.3203125 C-21.50257813 -0.29710938 -20.73171875 -0.27390625 -19.9375 -0.25 C-19.9375 0.41 -19.9375 1.07 -19.9375 1.75 C-18.803125 1.255 -17.66875 0.76 -16.5 0.25 C-10.87294555 -1.84517985 -5.59469798 -2.38072254 0 0 Z " fill="#1B179C" transform="translate(680.9375,123.25)"/>
<path d="M0 0 C2.80102123 4.38420714 2.60025631 9.27134717 1.50439453 14.25292969 C-0.4984924 21.70121015 -3.02492896 28.92635584 -5.70629883 36.15283203 C-6.43829175 38.12713549 -7.16202034 40.10432622 -7.88476562 42.08203125 C-9.88970032 47.54328693 -11.92646743 52.99486319 -14.16015625 58.3671875 C-14.44640869 59.0566748 -14.73266113 59.74616211 -15.02758789 60.45654297 C-16 62 -16 62 -19 63 C-20.39439664 63.06665376 -21.79169875 63.08538199 -23.1875 63.0625 C-24.445625 63.041875 -25.70375 63.02125 -27 63 C-28.62521833 58.97272943 -27.29261119 55.56944321 -26.0625 51.625 C-25.84231201 50.89474609 -25.62212402 50.16449219 -25.39526367 49.41210938 C-23.1344654 42.09331863 -20.48960088 34.91086547 -17.76782227 27.75244141 C-15.68590554 22.20779159 -14.15180392 16.81217977 -13 11 C-15.64 10.67 -18.28 10.34 -21 10 C-26.9948649 16.6330068 -29.68231981 24.32638457 -32.5625 32.625 C-33.02151183 33.91581855 -33.48179255 35.2061866 -33.94335938 36.49609375 C-34.85419604 39.04846882 -35.75723422 41.6033714 -36.65283203 44.16113281 C-38.03244294 48.10017029 -39.43396782 52.03120938 -40.83984375 55.9609375 C-41.25484131 57.12157715 -41.66983887 58.2822168 -42.09741211 59.47802734 C-42.39526611 60.31027832 -42.69312012 61.1425293 -43 62 C-48.94 62.495 -48.94 62.495 -55 63 C-56.10670984 58.57316065 -55.47832458 56.06968034 -54.1875 51.875 C-53.97029297 51.15143311 -53.75308594 50.42786621 -53.52929688 49.68237305 C-50.61607772 40.32162809 -46.94966972 31.22810657 -43.375 22.10546875 C-41.09821326 16.29127627 -38.97032105 10.44321187 -36.9375 4.5390625 C-36.09516524 2.2577392 -35.13901324 0.14581959 -34 -2 C-29.33333333 -2 -24.66666667 -2 -20 -2 C-19.38769531 -2.15984375 -18.77539062 -2.3196875 -18.14453125 -2.484375 C-11.66192234 -4.04303506 -5.71849263 -3.38441401 0 0 Z " fill="#272727" transform="translate(344,125)"/>
<path d="M0 0 C2 2 2 2 2.23046875 5.66015625 C2.22647733 7.12766864 2.21172158 8.59518209 2.1875 10.0625 C2.18685547 10.80822266 2.18621094 11.55394531 2.18554688 12.32226562 C2.14028159 17.85971841 2.14028159 17.85971841 1 19 C-0.68608966 19.07205511 -2.37500659 19.08386068 -4.0625 19.0625 C-4.98160156 19.05347656 -5.90070312 19.04445312 -6.84765625 19.03515625 C-7.55792969 19.02355469 -8.26820313 19.01195312 -9 19 C-9.66 16.03 -10.32 13.06 -11 10 C-14.43230448 10.26393501 -14.43230448 10.26393501 -18 11 C-20.23455541 13.77202718 -20.23455541 13.77202718 -20.0625 16.6875 C-18.32633521 22.10024906 -14.43316082 26.2595228 -9.83203125 29.55078125 C-8 31 -8 31 -7 34 C-6.15707638 42.58577918 -6.54362632 50.01886601 -12 57 C-18.22097578 62.51225702 -23.78782751 64.12430348 -32 64.25 C-33.010625 64.27578125 -34.02125 64.3015625 -35.0625 64.328125 C-38.51982939 63.94193395 -40.28600716 63.16742484 -43 61 C-45.17503887 57.18218252 -45.29765224 53.65299563 -45.3125 49.3125 C-45.32925781 48.17425781 -45.34601562 47.03601563 -45.36328125 45.86328125 C-45.24339844 44.91839844 -45.12351562 43.97351563 -45 43 C-40.66314105 40.1087607 -38.07581238 41.26437502 -33 42 C-33 44.97 -33 47.94 -33 51 C-31.741875 51.04125 -30.48375 51.0825 -29.1875 51.125 C-28.12595703 51.15980469 -28.12595703 51.15980469 -27.04296875 51.1953125 C-24.68640281 51.13254462 -24.68640281 51.13254462 -22 49 C-21.28102921 45.95036555 -21.43100824 43.07040837 -22 40 C-24.1028059 37.31273442 -24.1028059 37.31273442 -27 35 C-30.98077752 30.43524534 -34.27041098 26.14939319 -35 20 C-34.0214155 11.96337477 -30.80715666 5.62568302 -25 0 C-17.28695231 -4.89481873 -7.81306581 -4.32212151 0 0 Z " fill="#1C1899" transform="translate(775,125)"/>
<path d="M0 0 C-0.9528038 9.36923732 -0.9528038 9.36923732 -3 13 C-5.6796875 14.1875 -5.6796875 14.1875 -8.875 15 C-14.03225318 16.31782391 -15.91993326 17.67995603 -19 22 C-23.43273719 30.74391548 -26.22040245 40.32174255 -29.25 49.625 C-29.91799147 51.66415722 -30.58733106 53.70285909 -31.25823975 55.74105835 C-31.85739204 57.56300524 -32.4527342 59.38620381 -33.04785156 61.20947266 C-34 64 -34 64 -35 66 C-38.96 66 -42.92 66 -47 66 C-48.15601711 61.37593154 -47.24982243 58.7962473 -45.75390625 54.47265625 C-45.50755936 53.7352269 -45.26121246 52.99779755 -45.00740051 52.23802185 C-44.20331524 49.84234866 -43.38356634 47.45240125 -42.5625 45.0625 C-42.00756414 43.4246184 -41.45304028 41.78659716 -40.89892578 40.1484375 C-30.74067961 10.26133847 -30.74067961 10.26133847 -26 1 C-21.33333333 1 -16.66666667 1 -12 1 C-11.2575 0.835 -10.515 0.67 -9.75 0.5 C-6.46403444 -0.09744828 -3.33271778 -0.06534741 0 0 Z " fill="#1B189B" transform="translate(596,122)"/>
<path d="M0 0 C0.98162109 -0.020625 1.96324219 -0.04125 2.97460938 -0.0625 C10.04562508 -0.10043972 15.1768033 0.52689497 20.6875 5.3125 C23.83069807 9.06015924 23.64934771 12.54234791 23.3125 17.25 C22.84512643 20.04942313 22.17268731 22.52607351 21.3125 25.25 C20.3225 25.745 20.3225 25.745 19.3125 26.25 C18.17899466 28.26669827 18.17899466 28.26669827 17.3125 30.25 C16.6525 28.93 15.9925 27.61 15.3125 26.25 C13.9925 26.25 12.6725 26.25 11.3125 26.25 C10.9825 26.91 10.6525 27.57 10.3125 28.25 C9.29809031 24.62710825 8.83477141 20.97118378 8.3125 17.25 C7.99283861 15.58065717 7.66518934 13.9126783 7.3125 12.25 C5.70917209 12.16878076 4.10465974 12.11070866 2.5 12.0625 C1.60667969 12.02769531 0.71335937 11.99289063 -0.20703125 11.95703125 C-3.15183437 12.30484264 -3.82704408 13.03197898 -5.6875 15.25 C-6.6775 15.745 -6.6775 15.745 -7.6875 16.25 C-7.3575 16.91 -7.0275 17.57 -6.6875 18.25 C-7.6775 18.58 -8.6675 18.91 -9.6875 19.25 C-10.3475 19.91 -11.0075 20.57 -11.6875 21.25 C-12.3475 20.59 -13.0075 19.93 -13.6875 19.25 C-15.0075 20.24 -16.3275 21.23 -17.6875 22.25 C-17.378125 21.239375 -17.06875 20.22875 -16.75 19.1875 C-16.02439661 16.66564767 -15.56194999 14.37114992 -15.1875 11.75 C-14.66534842 8.09493896 -13.87589076 4.74526693 -12.6875 1.25 C-8.86637162 -0.66056419 -4.20348704 0.02165351 0 0 Z " fill="#1D199F" transform="translate(537.6875,98.75)"/>
<path d="M0 0 C0.7293576 0.16109253 1.45871521 0.32218506 2.21017456 0.48815918 C4.75141253 0.95439241 7.06020242 1.14795257 9.63720703 1.18945312 C10.53153946 1.2062059 11.42587189 1.22295868 12.3473053 1.24021912 C13.78800636 1.2605294 13.78800636 1.2605294 15.2578125 1.28125 C16.26674057 1.29934219 17.27566864 1.31743439 18.31517029 1.33607483 C20.47115921 1.37451096 22.62718284 1.41103916 24.78323364 1.4458313 C30.34655865 1.53601058 35.90960283 1.64063193 41.47265625 1.74609375 C42.56176804 1.76655258 43.65087982 1.78701141 44.772995 1.80809021 C56.85525089 2.04268656 68.92740464 2.46109126 81 3 C81.07310308 8.0867558 80.87646041 12.21502596 79 17 C75.48710448 19.59508366 71.55809254 19.2824355 67.37329102 19.25878906 C66.6102063 19.2622937 65.84712158 19.26579834 65.06091309 19.26940918 C62.54181789 19.27820178 60.02300424 19.27238554 57.50390625 19.265625 C55.75040127 19.2669725 53.99689665 19.26891374 52.24339294 19.27142334 C48.56904543 19.27437137 44.89479519 19.27008779 41.22045898 19.26074219 C36.51501742 19.24935625 31.80980423 19.25590369 27.10437107 19.26788712 C23.4832335 19.27512155 19.86214988 19.27281036 16.24101067 19.26763153 C14.50629588 19.26629898 12.77157617 19.26792892 11.03686714 19.27259064 C8.60981443 19.27768096 6.18312895 19.26991019 3.75610352 19.25878906 C3.04165573 19.26283752 2.32720795 19.26688599 1.59111023 19.27105713 C-2.37746543 19.23744192 -5.42402941 18.74576008 -9 17 C-5.28974469 15.76324823 -1.89910931 15.91299675 1.9597168 15.97827148 C2.76970123 15.98787903 3.57968567 15.99748657 4.41421509 16.00738525 C7.092638 16.04037751 9.77089793 16.08070902 12.44921875 16.12109375 C14.30580571 16.14539464 16.16239871 16.16923822 18.01899719 16.19264221 C22.90661494 16.25548618 27.79412585 16.324552 32.68164062 16.39489746 C37.66857028 16.46557803 42.65557571 16.53039666 47.64257812 16.59570312 C57.42846869 16.72471952 67.21425643 16.86030654 77 17 C77 15.68 77 14.36 77 13 C77.66 13 78.32 13 79 13 C79 10.03 79 7.06 79 4 C53.26 4 27.52 4 1 4 C0.67 2.68 0.34 1.36 0 0 Z " fill="#1B197C" transform="translate(82,194)"/>
<path d="M0 0 C0.67328842 -0.00014603 1.34657684 -0.00029205 2.04026794 -0.0004425 C4.26955366 0.00025512 6.4987562 0.0080405 8.72802734 0.01586914 C10.27216547 0.01773385 11.81630419 0.01915751 13.36044312 0.02015686 C17.42766957 0.02397785 21.49486039 0.03380457 25.56207275 0.04486084 C29.71113605 0.05508395 33.86020509 0.05965641 38.00927734 0.06469727 C46.15252287 0.0754272 54.29573943 0.09249862 62.43896484 0.11352539 C62.43896484 1.10352539 62.43896484 2.09352539 62.43896484 3.11352539 C39.00896484 3.11352539 15.57896484 3.11352539 -8.56103516 3.11352539 C-8.56103516 2.45352539 -8.56103516 1.79352539 -8.56103516 1.11352539 C-5.68359248 -0.32519595 -3.21537593 -0.00584614 0 0 Z " fill="#0F0C9C" transform="translate(96.56103515625,207.886474609375)"/>
<path d="M0 0 C52.82489528 -0.21177018 52.82489528 -0.21177018 76 1 C76 3.97 76 6.94 76 10 C75.34 10 74.68 10 74 10 C74.33 7.69 74.66 5.38 75 3 C73.65696053 3.00333092 73.65696053 3.00333092 72.28678894 3.00672913 C63.85537396 3.02675306 55.42396696 3.0419849 46.99253368 3.05181217 C42.65769119 3.05703427 38.32286831 3.06411976 33.98803711 3.07543945 C29.80593485 3.08629217 25.62385148 3.09228192 21.44173622 3.09487724 C19.84491999 3.09672718 18.24810482 3.10033955 16.65129662 3.10573006 C14.41749194 3.1129721 12.18376567 3.1139896 9.94995117 3.11352539 C8.04133553 3.11685631 8.04133553 3.11685631 6.09416199 3.12025452 C3 3 3 3 0 2 C0 1.34 0 0.68 0 0 Z " fill="#0F0B96" transform="translate(85,197)"/>
<path d="M0 0 C27.72 0.33 55.44 0.66 84 1 C84.495 1.99 84.495 1.99 85 3 C43.42 3.495 43.42 3.495 1 4 C0.67 2.68 0.34 1.36 0 0 Z " fill="#252386" transform="translate(94,108)"/>
<path d="M0 0 C0.66 0.33 1.32 0.66 2 1 C1.505 1.433125 1.01 1.86625 0.5 2.3125 C-1.33218192 3.99740483 -1.33218192 3.99740483 -1 7 C1.26601865 8.29042763 1.26601865 8.29042763 4 9 C6.32511472 7.73647948 6.32511472 7.73647948 8 6 C8.8971875 6.495 8.8971875 6.495 9.8125 7 C12.05386471 8.20787988 12.05386471 8.20787988 15 8 C15.66 9.32 16.32 10.64 17 12 C16.01 13.485 16.01 13.485 15 15 C14.34 13.68 13.68 12.36 13 11 C8.59885603 11.50298788 6.28804981 13.08772731 3 16 C2.67 15.34 2.34 14.68 2 14 C-0.25371265 13.53069588 -0.25371265 13.53069588 -2.875 13.375 C-3.75929688 13.30023438 -4.64359375 13.22546875 -5.5546875 13.1484375 C-7.36712973 13.03841705 -9.18422157 13 -11 13 C-7.61227103 8.30840284 -4.21814817 3.9700218 0 0 Z " fill="#282828" transform="translate(365,125)"/>
<path d="M0 0 C2.24379806 1.90382866 3.0006766 3.03173209 4.0625 5.75 C4.2578125 8.546875 4.2578125 8.546875 4.1875 11.5 C4.16945313 12.48484375 4.15140625 13.4696875 4.1328125 14.484375 C4.10960937 15.23203125 4.08640625 15.9796875 4.0625 16.75 C3.7325 16.75 3.4025 16.75 3.0625 16.75 C2.5675 10.81 2.5675 10.81 2.0625 4.75 C0.7425 4.42 -0.5775 4.09 -1.9375 3.75 C-1.9375 2.76 -1.9375 1.77 -1.9375 0.75 C-2.618125 1.03875 -3.29875 1.3275 -4 1.625 C-6.9375 2.75 -6.9375 2.75 -10.625 3.75 C-13.98100571 4.47845517 -13.98100571 4.47845517 -15.9375 6.75 C-16.9275 6.75 -17.9175 6.75 -18.9375 6.75 C-18.9375 6.09 -18.9375 5.43 -18.9375 4.75 C-19.5975 4.75 -20.2575 4.75 -20.9375 4.75 C-20.9375 3.43 -20.9375 2.11 -20.9375 0.75 C-22.5440676 1.00620684 -24.1477483 1.28055871 -25.75 1.5625 C-26.64332031 1.71332031 -27.53664063 1.86414063 -28.45703125 2.01953125 C-31.12071256 2.80395393 -32.19440322 3.63627799 -33.9375 5.75 C-32.0625 0.875 -32.0625 0.875 -30.9375 -0.25 C-29.08462498 -0.32226502 -27.22916122 -0.3338122 -25.375 -0.3125 C-24.36308594 -0.30347656 -23.35117187 -0.29445313 -22.30859375 -0.28515625 C-21.13490234 -0.26775391 -21.13490234 -0.26775391 -19.9375 -0.25 C-19.9375 0.41 -19.9375 1.07 -19.9375 1.75 C-18.2359375 1.0075 -18.2359375 1.0075 -16.5 0.25 C-10.87294555 -1.84517985 -5.59469798 -2.38072254 0 0 Z " fill="#1D198D" transform="translate(680.9375,123.25)"/>
<path d="M0 0 C1.75 1.5625 1.75 1.5625 3 4 C2.92630834 8.12673287 2.62661572 10.25945415 -0.0625 13.4375 C-0.701875 13.953125 -1.34125 14.46875 -2 15 C-1.01 11.7 -0.02 8.4 1 5 C-3.96309296 6.62581757 -3.96309296 6.62581757 -7.4375 10.1875 C-7.623125 10.785625 -7.80875 11.38375 -8 12 C-8.66 12 -9.32 12 -10 12 C-9.67 13.65 -9.34 15.3 -9 17 C-7.35 17 -5.7 17 -4 17 C-4.33 17.66 -4.66 18.32 -5 19 C-7.31 18.34 -9.62 17.68 -12 17 C-11.10638298 11.38297872 -11.10638298 11.38297872 -10.375 8.75 C-9.7885147 6.9023914 -9.7885147 6.9023914 -11 5 C-8.19499369 0.79249053 -4.97384386 0 0 0 Z " fill="#181A9B" transform="translate(608,156)"/>
<path d="M0 0 C1.13583456 3.71727674 0.66670026 5.47051709 -1 9 C-0.01 9 0.98 9 2 9 C2 8.34 2 7.68 2 7 C2.66 7.33 3.32 7.66 4 8 C3.6875 10.375 3.6875 10.375 3 13 C0 15 0 15 -3 15 C-3 15.66 -3 16.32 -3 17 C-1.35 17 0.3 17 2 17 C2 17.66 2 18.32 2 19 C0.35 19.33 -1.3 19.66 -3 20 C-2.01 21.32 -1.02 22.64 0 24 C-3.375 24.625 -3.375 24.625 -7 25 C-7.66 24.34 -8.32 23.68 -9 23 C-8.34 23 -7.68 23 -7 23 C-6.82984375 22.34515625 -6.6596875 21.6903125 -6.484375 21.015625 C-4.5974203 13.90943391 -2.39016561 6.95210608 0 0 Z " fill="#1C1A91" transform="translate(634,163)"/>
<path d="M0 0 C0.98162109 -0.020625 1.96324219 -0.04125 2.97460938 -0.0625 C9.6814021 -0.09848547 14.99798877 0.36316764 20.25 4.9375 C20.7759375 5.5871875 20.7759375 5.5871875 21.3125 6.25 C18.92685923 5.67415568 16.64567216 5.02772405 14.3125 4.25 C14.3125 3.59 14.3125 2.93 14.3125 2.25 C10.70840081 2.19199172 7.10442149 2.15640131 3.5 2.125 C1.96375977 2.09986328 1.96375977 2.09986328 0.39648438 2.07421875 C-0.58642578 2.06777344 -1.56933594 2.06132813 -2.58203125 2.0546875 C-3.48800049 2.04421387 -4.39396973 2.03374023 -5.32739258 2.02294922 C-7.95686448 2.08834609 -7.95686448 2.08834609 -10.6875 4.25 C-10.5225 4.848125 -10.3575 5.44625 -10.1875 6.0625 C-9.6875 8.25 -9.6875 8.25 -9.6875 11.25 C-10.3475 11.91 -11.0075 12.57 -11.6875 13.25 C-13.8125 12.875 -13.8125 12.875 -15.6875 12.25 C-15.23899342 10.43504338 -14.77840429 8.62306866 -14.3125 6.8125 C-14.05726563 5.80316406 -13.80203125 4.79382813 -13.5390625 3.75390625 C-11.68906327 -1.68577039 -4.86519554 0.02506218 0 0 Z " fill="#1D1987" transform="translate(537.6875,98.75)"/>
<path d="M0 0 C3.63 0 7.26 0 11 0 C12.02757588 5.13787939 12.05478369 6.42343632 10 11 C8.44247895 13.13672419 6.77910757 15.03361795 5 17 C4.67 16.34 4.34 15.68 4 15 C3.278125 15.495 2.55625 15.99 1.8125 16.5 C-1.14848659 18.07919285 -2.71253029 18.28178312 -6 18 C-6 18.66 -6 19.32 -6 20 C-9.13498292 21.85776765 -11.37471432 22.20140476 -15 22 C-12.80946491 19.54425861 -10.96105877 18.39012954 -7.875 17.28125 C-7.08609375 16.98863281 -6.2971875 16.69601563 -5.484375 16.39453125 C-3.828125 15.79817708 -2.171875 15.20182292 -0.515625 14.60546875 C0.66773438 14.16654297 0.66773438 14.16654297 1.875 13.71875 C2.59429688 13.46029297 3.31359375 13.20183594 4.0546875 12.93554688 C6.20381545 11.90198032 7.47298687 10.82194113 9 9 C9.57017808 6.95899762 9.57017808 6.95899762 9.6875 4.8125 C9.790625 3.554375 9.89375 2.29625 10 1 C6.37 1.33 2.74 1.66 -1 2 C-0.67 1.34 -0.34 0.68 0 0 Z " fill="#1E1A82" transform="translate(611,133)"/>
<path d="M0 0 C0.66 0.66 1.32 1.32 2 2 C1.86767578 3.92138672 1.86767578 3.92138672 1.3203125 6.3046875 C1.11954102 7.20026367 0.91876953 8.09583984 0.71191406 9.01855469 C0.47698242 10.00243164 0.24205078 10.98630859 0 12 C-0.36399902 13.56476074 -0.36399902 13.56476074 -0.73535156 15.16113281 C-1.51740111 18.48607923 -2.31838929 21.80593201 -3.125 25.125 C-3.54072266 26.84589844 -3.54072266 26.84589844 -3.96484375 28.6015625 C-4.64148762 31.40146817 -5.31990614 34.20093071 -6 37 C-6.33 37 -6.66 37 -7 37 C-7.9319181 32.65104888 -7.88932722 29.34782197 -7 25 C-7 24.34 -7 23.68 -7 23 C-6.01 23 -5.02 23 -4 23 C-4.061875 21.989375 -4.12375 20.97875 -4.1875 19.9375 C-3.98027265 15.58572563 -2.71275484 12.97359123 -1 9 C-0.48320269 6.00927483 -0.19907401 3.02729781 0 0 Z " fill="#201D80" transform="translate(89,118)"/>
<path d="M0 0 C0.53625 0.2475 1.0725 0.495 1.625 0.75 C-0.355 1.74 -2.335 2.73 -4.375 3.75 C-3.385 4.74 -2.395 5.73 -1.375 6.75 C-2.365 7.245 -2.365 7.245 -3.375 7.75 C-3.705 8.74 -4.035 9.73 -4.375 10.75 C-6.375 9.75 -6.375 9.75 -7.375 6.75 C-8.035 6.42 -8.695 6.09 -9.375 5.75 C-10.8356285 8.39738916 -11.375 9.64448334 -11.375 12.75 C-12.695 13.08 -14.015 13.41 -15.375 13.75 C-13.48992637 7.75203846 -6.94676541 -0.73123846 0 0 Z " fill="#1F1B91" transform="translate(612.375,123.25)"/>
<path d="M0 0 C0.33 0 0.66 0 1 0 C0.835 1.299375 0.67 2.59875 0.5 3.9375 C-0.62284727 15.23013539 -0.36151045 26.74322611 1 38 C-1 37 -1 37 -2 34 C-2.2051777 29.56678244 -2.1858021 25.13123416 -2.18530273 20.69384766 C-2.18749205 18.50794081 -2.20566857 16.32253653 -2.22460938 14.13671875 C-2.22754301 12.74739756 -2.22952801 11.35807397 -2.23046875 9.96875 C-2.23457764 8.70482422 -2.23868652 7.44089844 -2.24291992 6.13867188 C-2 3 -2 3 0 0 Z " fill="#1D1A7B" transform="translate(81,155)"/>
<path d="M0 0 C0 3.72820818 -0.84132013 4.97784819 -3 8 C-7.08288449 11.89729884 -10.74086383 14.00152825 -16 16 C-14.95125002 13.37812506 -14.35068687 12.20628639 -11.875 10.75 C-11.25625 10.5025 -10.6375 10.255 -10 10 C-10.99 9.67 -11.98 9.34 -13 9 C-13 8.34 -13 7.68 -13 7 C-11.35 7.33 -9.7 7.66 -8 8 C-7.67 7.34 -7.34 6.68 -7 6 C-6.01 6.33 -5.02 6.66 -4 7 C-3.896875 6.21625 -3.79375 5.4325 -3.6875 4.625 C-3 2 -3 2 0 0 Z " fill="#1D1988" transform="translate(544,170)"/>
<path d="M0 0 C0.66 1.32 1.32 2.64 2 4 C1.53722656 4.40863281 1.07445312 4.81726563 0.59765625 5.23828125 C-1.18479407 7.20377047 -1.78187155 8.6671853 -2.5625 11.1875 C-2.81 11.9815625 -3.0575 12.775625 -3.3125 13.59375 C-4.29789373 17.04262804 -5.14348901 20.51685531 -6 24 C-6.645124 26.00705243 -7.30356015 28.01017187 -8 30 C-9.09074706 26.71372691 -8.8941826 24.7358104 -7.890625 21.4453125 C-7.63023437 20.58292969 -7.36984375 19.72054687 -7.1015625 18.83203125 C-6.82054687 17.93871094 -6.53953125 17.04539063 -6.25 16.125 C-5.98445312 15.23941406 -5.71890625 14.35382813 -5.4453125 13.44140625 C-3.99149792 8.70592283 -2.38097426 4.34599518 0 0 Z " fill="#1D1B82" transform="translate(690,142)"/>
<path d="M0 0 C2 2 2 2 2.265625 4.9765625 C2.23699643 11.66133462 2.04296272 17.61574151 0 24 C-0.33 24 -0.66 24 -1 24 C-1.33 19.38 -1.66 14.76 -2 10 C-1.34 9.67 -0.68 9.34 0 9 C0 6.03 0 3.06 0 0 Z " fill="#2A288F" transform="translate(205,104)"/>
<path d="M0 0 C0.33 0 0.66 0 1 0 C1.58698004 3.34323413 2.04856459 6.60047905 2 10 C0.1875 12.125 0.1875 12.125 -2 14 C-2.94314582 16.64905438 -3.44621895 19.23109473 -4 22 C-4.66 22 -5.32 22 -6 22 C-4.47536437 14.50387484 -2.31993846 7.28640866 0 0 Z " fill="#1E1B86" transform="translate(554,165)"/>
<path d="M0 0 C0.33 0 0.66 0 1 0 C1.05398987 2.27057377 1.09278742 4.54151288 1.125 6.8125 C1.14820312 8.07707031 1.17140625 9.34164062 1.1953125 10.64453125 C1 14 1 14 -1 17 C-1.38499891 18.65549531 -1.72793135 20.3222433 -2 22 C-2.66 22 -3.32 22 -4 22 C-3.51298949 14.40935336 -2.00236413 7.32940833 0 0 Z " fill="#1F1B78" transform="translate(67,149)"/>
<path d="M0 0 C0.33 0 0.66 0 1 0 C1.4554447 8.19800459 -0.04266739 16.24000099 -5 23 C-5.33 23 -5.66 23 -6 23 C-5.505 18.545 -5.505 18.545 -5 14 C-4.01 13.67 -3.02 13.34 -2 13 C-2.061875 11.7315625 -2.061875 11.7315625 -2.125 10.4375 C-1.98464972 6.57786731 -1.17219836 3.66311987 0 0 Z " fill="#1C1984" transform="translate(561,111)"/>
<path d="M0 0 C4.29 0 8.58 0 13 0 C13 1.98 13 3.96 13 6 C12.01 5.67 11.02 5.34 10 5 C10 4.34 10 3.68 10 3 C6.37 3 2.74 3 -1 3 C-0.67 2.01 -0.34 1.02 0 0 Z " fill="#3230AC" transform="translate(535,108)"/>
<path d="M0 0 C2.31 0 4.62 0 7 0 C5.96039604 10.22277228 5.96039604 10.22277228 4 13 C1.04705636 14.03298944 -1.90620599 14.5734893 -5 15 C-4.67 14.34 -4.34 13.68 -4 13 C-3.01 13 -2.02 13 -1 13 C-1 12.34 -1 11.68 -1 11 C0.65 11 2.3 11 4 11 C4 10.01 4 9.02 4 8 C3.34 7.67 2.68 7.34 2 7 C2.33 6.01 2.66 5.02 3 4 C3.99 4 4.98 4 6 4 C6 3.01 6 2.02 6 1 C4.02 1 2.04 1 0 1 C0 0.67 0 0.34 0 0 Z " fill="#1A1881" transform="translate(589,122)"/>
<path d="M0 0 C0.66 0 1.32 0 2 0 C0.79618552 2.49361571 -0.45428722 4.68143083 -2 7 C-4.6015625 7.29296875 -4.6015625 7.29296875 -7.625 7.1875 C-9.12933594 7.14689453 -9.12933594 7.14689453 -10.6640625 7.10546875 C-11.82035156 7.05326172 -11.82035156 7.05326172 -13 7 C-13.33 6.01 -13.66 5.02 -14 4 C-10.4735864 2.8245288 -7.727703 3.05296896 -4.05859375 3.2578125 C-3.37925781 3.17273438 -2.69992187 3.08765625 -2 3 C-1.34 2.01 -0.68 1.02 0 0 Z " fill="#26262F" transform="translate(379,143)"/>
<path d="M0 0 C1.98 0 3.96 0 6 0 C5.60167969 0.6290625 5.20335937 1.258125 4.79296875 1.90625 C1.5403507 7.16108792 -1.04551616 12.13654848 -3 18 C-3.33 18 -3.66 18 -4 18 C-4.19622241 13.78121808 -3.80230168 10.82989106 -2 7 C-1.34 7 -0.68 7 0 7 C-0.2784375 5.824375 -0.2784375 5.824375 -0.5625 4.625 C-1 2 -1 2 0 0 Z " fill="#1E1C87" transform="translate(575,138)"/>
<path d="M0 0 C3.3 0.33 6.6 0.66 10 1 C10 1.99 10 2.98 10 4 C9.38511719 3.94199219 8.77023437 3.88398437 8.13671875 3.82421875 C5.67691462 3.68690911 3.43942535 3.639729 1 4 C-1.04418684 6.26719745 -1.04418684 6.26719745 -2 9 C-2.66 9.66 -3.32 10.32 -4 11 C-3.67 9.35 -3.34 7.7 -3 6 C-3.99 5.67 -4.98 5.34 -6 5 C-5.195625 4.54625 -4.39125 4.0925 -3.5625 3.625 C-0.91143428 2.25274335 -0.91143428 2.25274335 0 0 Z " fill="#080788" transform="translate(535,110)"/>
<path d="M0 0 C5 0 10 0 15 0 C14.34 1.98 13.68 3.96 13 6 C12.34 6 11.68 6 11 6 C11 4.68 11 3.36 11 2 C9.35333797 2.1135629 7.70763918 2.24117381 6.0625 2.375 C5.14597656 2.44460937 4.22945313 2.51421875 3.28515625 2.5859375 C2.53105469 2.72257812 1.77695312 2.85921875 1 3 C0.67 3.66 0.34 4.32 0 5 C-0.66 4.67 -1.32 4.34 -2 4 C-1.34 2.68 -0.68 1.36 0 0 Z " fill="#212122" transform="translate(310,123)"/>
<path d="M0 0 C0.99 0.33 1.98 0.66 3 1 C3 5.62 3 10.24 3 15 C2.34 15 1.68 15 1 15 C1 17.31 1 19.62 1 22 C0.34 21.67 -0.32 21.34 -1 21 C-0.7525 19.4221875 -0.7525 19.4221875 -0.5 17.8125 C0.25711395 11.89421488 0.08169679 5.95478821 0 0 Z " fill="#1D1B83" transform="translate(188,117)"/>
<path d="M0 0 C0.66 0.33 1.32 0.66 2 1 C-0.04161327 9.4462681 -2.07391272 17.80695561 -5 26 C-6.3582089 22.26039816 -5.62928896 19.59470752 -4.625 15.8125 C-4.21121094 14.21341797 -4.21121094 14.21341797 -3.7890625 12.58203125 C-3 10 -3 10 -2 9 C-1.79395915 7.67218122 -1.6337041 6.33704105 -1.5 5 C-1.11111111 1.11111111 -1.11111111 1.11111111 0 0 Z " fill="#222078" transform="translate(192,170)"/>
<path d="M0 0 C-0.33 1.65 -0.66 3.3 -1 5 C-1.9075 4.814375 -2.815 4.62875 -3.75 4.4375 C-6.68314324 4.04265379 -8.2644657 4.05308428 -11 5 C-10.625 3.0625 -10.625 3.0625 -10 1 C-6.78548731 -0.60725635 -3.56387464 -0.05748185 0 0 Z " fill="#120E9C" transform="translate(660,124)"/>
<path d="M0 0 C1.65 0 3.3 0 5 0 C5 2.31 5 4.62 5 7 C9.29 7.66 13.58 8.32 18 9 C18 9.33 18 9.66 18 10 C8.09305994 10.7807571 8.09305994 10.7807571 3.9375 7.8125 C2.15910573 5.23095993 0.937376 2.98255999 0 0 Z " fill="#1B1A7E" transform="translate(680,179)"/>
<path d="M0 0 C0.66 0 1.32 0 2 0 C1.54548816 1.73017508 1.08621143 3.45909877 0.625 5.1875 C0.36976563 6.15042969 0.11453125 7.11335937 -0.1484375 8.10546875 C-0.94766296 10.82210207 -1.9031362 13.39137175 -3 16 C-5.09350689 12.5980513 -5.17942163 9.94727588 -5 6 C-3.35 5.34 -1.7 4.68 0 4 C0 2.68 0 1.36 0 0 Z " fill="#1C1988" transform="translate(723,164)"/>
<path d="M0 0 C2.125 1.1875 2.125 1.1875 3.125 4.1875 C2.465 4.8475 1.805 5.5075 1.125 6.1875 C0.939375 5.548125 0.75375 4.90875 0.5625 4.25 C-0.79845696 1.81091121 -0.79845696 1.81091121 -4.25 1.375 C-8.20859504 1.13767142 -8.20859504 1.13767142 -11.875 2.1875 C-13.00570444 4.03477567 -13.00570444 4.03477567 -13.625 6.25 C-13.86734375 6.98347656 -14.1096875 7.71695313 -14.359375 8.47265625 C-14.61460937 9.32150391 -14.61460937 9.32150391 -14.875 10.1875 C-15.90366653 6.98334277 -15.92983179 6.32732105 -14.625 3 C-11.36484617 -2.23953294 -5.48509773 -1.55013631 0 0 Z " fill="#000078" transform="translate(533.875,148.8125)"/>
<path d="M0 0 C0.66 0.66 1.32 1.32 2 2 C1.01 2.495 1.01 2.495 0 3 C2.97 3.33 5.94 3.66 9 4 C9 4.66 9 5.32 9 6 C4.71 6 0.42 6 -4 6 C-4 4.35 -4 2.7 -4 1 C-2.125 0.375 -2.125 0.375 0 0 Z " fill="#25237B" transform="translate(597,139)"/>
<path d="M0 0 C0.66 1.32 1.32 2.64 2 4 C1.01 5.485 1.01 5.485 0 7 C-0.66 5.68 -1.32 4.36 -2 3 C-6.40114397 3.50298788 -8.71195019 5.08772731 -12 8 C-12.33 7.34 -12.66 6.68 -13 6 C-8.74265389 1.25610005 -6.2657479 0 0 0 Z " fill="#1E1E1E" transform="translate(380,133)"/>
<path d="M0 0 C3.96 0 7.92 0 12 0 C12 1.98 12 3.96 12 6 C11.01 6.495 11.01 6.495 10 7 C9.67 5.35 9.34 3.7 9 2 C5.7 2.33 2.4 2.66 -1 3 C-0.67 2.01 -0.34 1.02 0 0 Z " fill="#6C6C6C" transform="translate(450,99)"/>
<path d="M0 0 C1.9375 0.5 1.9375 0.5 4 2 C4.68790422 4.69658452 4.81946464 7.2017019 5 10 C5.99 10.33 6.98 10.66 8 11 C7.67 11.66 7.34 12.32 7 13 C6.34 13 5.68 13 5 13 C3.37485532 14.45833358 3.37485532 14.45833358 2 16 C1.01 15.67 0.02 15.34 -1 15 C-0.01 14.34 0.98 13.68 2 13 C2.43995262 10.93326515 2.43995262 10.93326515 2.3125 8.625 C2.30863281 7.85414063 2.30476562 7.08328125 2.30078125 6.2890625 C1.97634488 3.81997531 1.23105029 2.14820728 0 0 Z " fill="#19167D" transform="translate(751,161)"/>
<path d="M0 0 C1.06486707 3.28587554 0.92821001 5.62950178 0.25 9 C0.01023437 10.2684375 0.01023437 10.2684375 -0.234375 11.5625 C-1.07720056 14.24578137 -2.22031983 15.84281191 -4 18 C-4.66 18.99 -5.32 19.98 -6 21 C-5.42381249 15.85404946 -4.25256722 11.44921945 -2.4375 6.5625 C-1.98246094 5.32628906 -1.52742187 4.09007812 -1.05859375 2.81640625 C-0.70925781 1.88699219 -0.35992188 0.95757812 0 0 Z " fill="#1F1C81" transform="translate(663,159)"/>
<path d="M0 0 C0.99 0 1.98 0 3 0 C3 0.66 3 1.32 3 2 C3.99 2.33 4.98 2.66 6 3 C5.236875 3.2475 4.47375 3.495 3.6875 3.75 C0.73819971 5.12176758 -0.17431019 6.3918717 -2 9 C-2.66 9 -3.32 9 -4 9 C-4.33 9.99 -4.66 10.98 -5 12 C-5 8.21850924 -4.92257897 7.035651 -3 4 C-2.01 3.34 -1.02 2.68 0 2 C0 1.34 0 0.68 0 0 Z " fill="#131280" transform="translate(709,132)"/>
<path d="M0 0 C0.66 0.66 1.32 1.32 2 2 C1.01 2 0.02 2 -1 2 C-1 2.66 -1 3.32 -1 4 C-4.50776784 5.60355101 -7.14354879 6.22036864 -11 6 C-8.6911898 2.39825609 -7.59843036 1.15476647 -3.375 0.0625 C-1.704375 0.0315625 -1.704375 0.0315625 0 0 Z " fill="#2D2CA4" transform="translate(589,131)"/>
<path d="M0 0 C1.97677816 1.23548635 3.43672433 2.53039676 5 4.25 C4.67 4.91 4.34 5.57 4 6.25 C3.34 5.92 2.68 5.59 2 5.25 C1.67 6.57 1.34 7.89 1 9.25 C0.34 7.93 -0.32 6.61 -1 5.25 C-0.34 5.25 0.32 5.25 1 5.25 C1 4.26 1 3.27 1 2.25 C-0.98 2.58 -2.96 2.91 -5 3.25 C-5 2.26 -5 1.27 -5 0.25 C-2 -0.75 -2 -0.75 0 0 Z " fill="#211D90" transform="translate(200,97.75)"/>
<path d="M0 0 C0.66 0 1.32 0 2 0 C-1.07517084 11.52164009 -1.07517084 11.52164009 -3 17 C-3.33 17 -3.66 17 -4 17 C-4.02712066 15.56260487 -4.04645067 14.12506137 -4.0625 12.6875 C-4.07410156 11.88699219 -4.08570313 11.08648437 -4.09765625 10.26171875 C-4 8 -4 8 -3 5 C-2.34 5 -1.68 5 -1 5 C-0.67 3.35 -0.34 1.7 0 0 Z " fill="#1E1881" transform="translate(647,160)"/>
<path d="M0 0 C1 3 1 3 0.0625 5.1875 C-0.4634375 6.0846875 -0.4634375 6.0846875 -1 7 C-1.66 7 -2.32 7 -3 7 C-2.67 8.65 -2.34 10.3 -2 12 C-0.35 12 1.3 12 3 12 C2.67 12.66 2.34 13.32 2 14 C-0.31 13.34 -2.62 12.68 -5 12 C-4.4550102 7.31308775 -3.42897592 3.42897592 0 0 Z " fill="#000A7B" transform="translate(601,161)"/>
<path d="M0 0 C2 3.75 2 3.75 2 6 C1.34 6 0.68 6 0 6 C0.0825 7.051875 0.165 8.10375 0.25 9.1875 C-0.03525487 13.53763669 -1.02449969 14.9315153 -4 18 C-3.31195504 11.80759538 -1.71951285 5.98044406 0 0 Z " fill="#262185" transform="translate(183,151)"/>
<path d="M0 0 C0.99 0.66 1.98 1.32 3 2 C2.50769231 8.4 2.50769231 8.4 -0.0625 11.4375 C-1.0215625 12.2109375 -1.0215625 12.2109375 -2 13 C-1.01 9.7 -0.02 6.4 1 3 C-0.98 3.66 -2.96 4.32 -5 5 C-4 2 -4 2 -1.9375 0.8125 C-1.298125 0.544375 -0.65875 0.27625 0 0 Z " fill="#000378" transform="translate(608,158)"/>
<path d="M0 0 C2 3 2 3 3 6 C5.31 6.33 7.62 6.66 10 7 C8 9 8 9 5.6171875 9.1953125 C4.71226562 9.17210937 3.80734375 9.14890625 2.875 9.125 C1.50988281 9.09792969 1.50988281 9.09792969 0.1171875 9.0703125 C-0.58148437 9.04710937 -1.28015625 9.02390625 -2 9 C-1.34 6.03 -0.68 3.06 0 0 Z " fill="#030086" transform="translate(528,128)"/>
<path d="M0 0 C5.94 0.66 11.88 1.32 18 2 C14.69613642 4.20257572 13.43182123 4.32249903 9.5625 4.375 C8.61503906 4.40335938 7.66757812 4.43171875 6.69140625 4.4609375 C4 4 4 4 0 0 Z " fill="#1C197A" transform="translate(584,185)"/>
<path d="M0 0 C0.33 2.97 0.66 5.94 1 9 C-2.57104439 7.12050295 -4.54744301 5.82946843 -6 2 C-2.25 0 -2.25 0 0 0 Z " fill="#1E1B8B" transform="translate(750,152)"/>
<path d="M0 0 C2.93307315 0.87199472 4.70723066 1.68703967 6.8125 3.9375 C8.60800078 8.56800202 8.23208546 13.09182224 8 18 C7.67 18 7.34 18 7 18 C6.67 14.04 6.34 10.08 6 6 C4.68 5.67 3.36 5.34 2 5 C2 4.01 2 3.02 2 2 C1.34 2 0.68 2 0 2 C0 1.34 0 0.68 0 0 Z " fill="#1C1979" transform="translate(677,122)"/>
<path d="M0 0 C0.33 0 0.66 0 1 0 C1.42159892 6.3239838 0.15339068 12.04360284 -2 18 C-2.66 18.66 -3.32 19.32 -4 20 C-3.83628906 19.29488281 -3.67257812 18.58976562 -3.50390625 17.86328125 C-2.98300176 14.90341312 -2.90133268 12.18938727 -2.9375 9.1875 C-2.94652344 8.21167969 -2.95554687 7.23585937 -2.96484375 6.23046875 C-2.97644531 5.49441406 -2.98804688 4.75835937 -3 4 C-2.67 4.66 -2.34 5.32 -2 6 C-1.34 6 -0.68 6 0 6 C0 4.02 0 2.04 0 0 Z " fill="#1E1880" transform="translate(549,150)"/>
<path d="M0 0 C2.31309705 0.11341637 4.62550185 0.24103807 6.9375 0.375 C8.86916016 0.47941406 8.86916016 0.47941406 10.83984375 0.5859375 C12.40412109 0.79089844 12.40412109 0.79089844 14 1 C14.33 1.66 14.66 2.32 15 3 C10.05 3 5.1 3 0 3 C0 2.01 0 1.02 0 0 Z " fill="#3A3A3A" transform="translate(349,184)"/>
<path d="M0 0 C1 2 1 2 0.00390625 5.4765625 C-0.46900047 6.86197936 -0.94981644 8.24471547 -1.4375 9.625 C-1.68048828 10.33140625 -1.92347656 11.0378125 -2.17382812 11.765625 C-2.77587205 13.51273287 -3.38708017 15.25667786 -4 17 C-6.0390625 13.328125 -6.0390625 13.328125 -5.6875 10.375 C-5 8 -5 8 -4 6 C-3.34 6 -2.68 6 -2 6 C-1.34 4.02 -0.68 2.04 0 0 Z " fill="#1C1984" transform="translate(567,165)"/>
<path d="M0 0 C2.475 0.99 2.475 0.99 5 2 C4.01 3.485 4.01 3.485 3 5 C2.01 5 1.02 5 0 5 C-0.99 7.97 -1.98 10.94 -3 14 C-4 12 -4 12 -3.22265625 9.1796875 C-2.83980469 8.08914062 -2.45695313 6.99859375 -2.0625 5.875 C-1.68222656 4.77929688 -1.30195312 3.68359375 -0.91015625 2.5546875 C-0.60980469 1.71164063 -0.30945313 0.86859375 0 0 Z " fill="#1C1A85" transform="translate(561,145)"/>
<path d="M0 0 C0.66 0.33 1.32 0.66 2 1 C2 1.66 2 2.32 2 3 C3.98 3 5.96 3 8 3 C8 2.34 8 1.68 8 1 C8.66 1 9.32 1 10 1 C9.67 2.32 9.34 3.64 9 5 C5.7 5.33 2.4 5.66 -1 6 C-0.67 4.02 -0.34 2.04 0 0 Z " fill="#2727A5" transform="translate(551,180)"/>
<path d="M0 0 C0.5534764 2.07553648 1 3.84365964 1 6 C1.99 5.67 2.98 5.34 4 5 C3.34 6.65 2.68 8.3 2 10 C1.34 10 0.68 10 0 10 C-0.66 10.66 -1.32 11.32 -2 12 C-2.17835515 7.45194365 -1.99785435 4.1205746 0 0 Z " fill="#1F1C8F" transform="translate(514,132)"/>
<path d="M0 0 C0.33 0 0.66 0 1 0 C1.77001757 6.9301581 -0.9101944 11.89763393 -4 18 C-4.66 17.67 -5.32 17.34 -6 17 C-4.02 11.39 -2.04 5.78 0 0 Z " fill="#1C1985" transform="translate(646,129)"/>
<path d="M0 0 C0.94314127 3.41610225 1.08065117 6.45134864 1 10 C0.01 10.495 0.01 10.495 -1 11 C-1 12.65 -1 14.3 -1 16 C-1.99 15.34 -2.98 14.68 -4 14 C-3.36843005 8.94744036 -1.86540627 4.70406799 0 0 Z " fill="#1D1988" transform="translate(639,149)"/>
<path d="M0 0 C0.66 0 1.32 0 2 0 C1.35083537 6.00477279 -0.85795003 11.400781 -3 17 C-4.56393356 13.02623171 -3.36145292 10.18622097 -2.0625 6.25 C-1.68222656 5.07953125 -1.30195312 3.9090625 -0.91015625 2.703125 C-0.60980469 1.81109375 -0.30945313 0.9190625 0 0 Z " fill="#1F1B7F" transform="translate(681,143)"/>
<path d="M0 0 C0 0.66 0 1.32 0 2 C-2.40545638 3.20272819 -3.94996953 3.10071472 -6.625 3.0625 C-7.85089844 3.04896484 -7.85089844 3.04896484 -9.1015625 3.03515625 C-10.04128906 3.01775391 -10.04128906 3.01775391 -11 3 C-7.60432574 -0.67206635 -4.86456286 -1.62152095 0 0 Z " fill="#1818A4" transform="translate(560,185)"/>
<path d="M0 0 C0 1.65 0 3.3 0 5 C-1.65 5 -3.3 5 -5 5 C-5.66 3.68 -6.32 2.36 -7 1 C-4 0 -4 0 0 0 Z " fill="#201FAA" transform="translate(639,183)"/>
<path d="M0 0 C1.13643966 3.40931897 0.86747764 4.00335456 -0.4375 7.1875 C-0.72496094 7.90292969 -1.01242187 8.61835938 -1.30859375 9.35546875 C-1.53675781 9.89816406 -1.76492188 10.44085938 -2 11 C-2.33 11 -2.66 11 -3 11 C-4.125 3.25 -4.125 3.25 -3 1 C-2.01 0.67 -1.02 0.34 0 0 Z " fill="#232088" transform="translate(670,176)"/>
<path d="M0 0 C0.66 0.33 1.32 0.66 2 1 C-1.0684847 3.97550031 -2.46236331 4.96474513 -6.8125 5.25 C-7.864375 5.1675 -8.91625 5.085 -10 5 C-9.67 3.68 -9.34 2.36 -9 1 C-8.071875 1.20625 -7.14375 1.4125 -6.1875 1.625 C-2.84826598 2.36692966 -2.84826598 2.36692966 0 0 Z " fill="#020473" transform="translate(705,171)"/>
<path d="M0 0 C1.3805087 3.76668598 0.59568159 6.44789173 -0.4375 10.25 C-0.72496094 11.32765625 -1.01242188 12.4053125 -1.30859375 13.515625 C-1.53675781 14.33546875 -1.76492187 15.1553125 -2 16 C-3.34600485 11.03932084 -3.90239525 6.7671907 -1.5 2.0625 C-1.005 1.381875 -0.51 0.70125 0 0 Z " fill="#201F81" transform="translate(197,152)"/>
<path d="M0 0 C-0.33 0.66 -0.66 1.32 -1 2 C-1.9590625 2.2165625 -1.9590625 2.2165625 -2.9375 2.4375 C-5.38210855 2.86165035 -5.38210855 2.86165035 -7 6 C-8.32 5.67 -9.64 5.34 -11 5 C-11 4.34 -11 3.68 -11 3 C-7.28026121 0.15549386 -4.62609198 -0.3227506 0 0 Z " fill="#2D2BA2" transform="translate(535,180)"/>
<path d="M0 0 C0.66 0.33 1.32 0.66 2 1 C1.690625 2.0725 1.38125 3.145 1.0625 4.25 C0.33187904 6.82866222 -0.37482904 9.39512102 -1 12 C-2.32 12 -3.64 12 -5 12 C-4.731875 11.505 -4.46375 11.01 -4.1875 10.5 C-2.56124507 7.0763054 -1.30484829 3.55867715 0 0 Z " fill="#120C8A" transform="translate(546,123)"/>
<path d="M0 0 C0.66 0 1.32 0 2 0 C2 1.32 2 2.64 2 4 C2.66 4.33 3.32 4.66 4 5 C3.34 6.65 2.68 8.3 2 10 C1.34 10 0.68 10 0 10 C0 10.66 0 11.32 0 12 C-0.66 12 -1.32 12 -2 12 C-1.855625 11.30132812 -1.71125 10.60265625 -1.5625 9.8828125 C-1.376875 8.97273437 -1.19125 8.06265625 -1 7.125 C-0.814375 6.22007812 -0.62875 5.31515625 -0.4375 4.3828125 C0.06019595 2.07592097 0.06019595 2.07592097 0 0 Z " fill="#28289C" transform="translate(610,158)"/>
<path d="M0 0 C0.66 0 1.32 0 2 0 C2.33 4.62 2.66 9.24 3 14 C2.34 13.67 1.68 13.34 1 13 C0.14428627 8.63585999 -0.10827397 4.43923267 0 0 Z " fill="#5E5E5E" transform="translate(108,154)"/>
<path d="M0 0 C0 0.99 0 1.98 0 3 C-0.66 3 -1.32 3 -2 3 C-3.4606285 5.64738916 -4 6.89448334 -4 10 C-5.32 10.33 -6.64 10.66 -8 11 C-6.60366572 6.55711819 -4.39598172 4.13475236 -1 1 C-0.67 0.67 -0.34 0.34 0 0 Z " fill="#1C197F" transform="translate(605,126)"/>
<path d="M0 0 C0.66 0.33 1.32 0.66 2 1 C-0.475 5.455 -0.475 5.455 -3 10 C-2.34 10.33 -1.68 10.66 -1 11 C-2.32 11 -3.64 11 -5 11 C-4.46884894 6.48521602 -2.63379708 3.65333143 0 0 Z " fill="#1C1B1F" transform="translate(118,75)"/>
<path d="M0 0 C0.99 0.33 1.98 0.66 3 1 C2.75 4.375 2.75 4.375 2 8 C0.02 8.99 0.02 8.99 -2 10 C-1.34 6.7 -0.68 3.4 0 0 Z " fill="#222224" transform="translate(211,130)"/>
<path d="M0 0 C1.32 0.33 2.64 0.66 4 1 C3.34 6.28 2.68 11.56 2 17 C1.67 17 1.34 17 1 17 C1.01160156 15.94039062 1.02320312 14.88078125 1.03515625 13.7890625 C1.04453476 12.40104342 1.05363489 11.01302245 1.0625 9.625 C1.07087891 8.92632812 1.07925781 8.22765625 1.08789062 7.5078125 C1.1835442 3.62704624 1.1835442 3.62704624 0 0 Z " fill="#606060" transform="translate(114,116)"/>
<path d="M0 0 C0.99 0.33 1.98 0.66 3 1 C3.25 8.625 3.25 8.625 1 12 C0.67 8.04 0.34 4.08 0 0 Z " fill="#251F94" transform="translate(203,116)"/>
<path d="M0 0 C1.98 0 3.96 0 6 0 C5.67 1.32 5.34 2.64 5 4 C3.35 4 1.7 4 0 4 C0 2.68 0 1.36 0 0 Z " fill="#1B18B9" transform="translate(660,184)"/>
<path d="M0 0 C0.625 1.8125 0.625 1.8125 1 4 C0.01 5.485 0.01 5.485 -1 7 C-1.38499891 8.65549531 -1.72793135 10.3222433 -2 12 C-2.66 12 -3.32 12 -4 12 C-4.37096774 6.43548387 -4.37096774 6.43548387 -2.5625 4.3125 C-1.7890625 3.6628125 -1.7890625 3.6628125 -1 3 C-0.67 2.01 -0.34 1.02 0 0 Z " fill="#201D88" transform="translate(67,159)"/>
<path d="M0 0 C3.3 0 6.6 0 10 0 C9.67 0.99 9.34 1.98 9 3 C6.03 2.67 3.06 2.34 0 2 C0 1.34 0 0.68 0 0 Z " fill="#0E0B8A" transform="translate(571,124)"/>
<path d="M0 0 C0.99 0 1.98 0 3 0 C3.66 0.99 4.32 1.98 5 3 C3.35 4.65 1.7 6.3 0 8 C0 5.36 0 2.72 0 0 Z " fill="#29208D" transform="translate(547,115)"/>
<path d="M0 0 C0.33 1.32 0.66 2.64 1 4 C-5.625 7.125 -5.625 7.125 -9 6 C-7.68 5.67 -6.36 5.34 -5 5 C-5 4.34 -5 3.68 -5 3 C-3.35 3 -1.7 3 0 3 C0 2.01 0 1.02 0 0 Z " fill="#232781" transform="translate(593,130)"/>
<path d="M0 0 C0.66 0.33 1.32 0.66 2 1 C1.88637738 2.4800841 1.75877092 3.95910074 1.625 5.4375 C1.52058594 6.67306641 1.52058594 6.67306641 1.4140625 7.93359375 C1.27742188 8.61550781 1.14078125 9.29742187 1 10 C0.01 10.495 0.01 10.495 -1 11 C-2.0257259 6.58937864 -2.03684712 4.07369424 0 0 Z " fill="#0F0B93" transform="translate(88,117)"/>
<path d="M0 0 C0.28571429 7.42857143 0.28571429 7.42857143 -2 11 C-2.66 10.01 -3.32 9.02 -4 8 C-3.67 7.34 -3.34 6.68 -3 6 C-2.34 6 -1.68 6 -1 6 C-1 4.68 -1 3.36 -1 2 C-2.65 2 -4.3 2 -6 2 C-6 1.67 -6 1.34 -6 1 C-1.125 0 -1.125 0 0 0 Z " fill="#616161" transform="translate(429,99)"/>
<path d="M0 0 C1.65 0 3.3 0 5 0 C1.55384615 5.78461538 1.55384615 5.78461538 -1.25 6.875 C-1.8275 6.91625 -2.405 6.9575 -3 7 C-2.01 4.69 -1.02 2.38 0 0 Z " fill="#221D86" transform="translate(178,203)"/>
<path d="M0 0 C2.97 0.495 2.97 0.495 6 1 C5.01 2.485 5.01 2.485 4 4 C0.875 4.1875 0.875 4.1875 -2 4 C-1.34 2.68 -0.68 1.36 0 0 Z " fill="#1C16A8" transform="translate(592,183)"/>
<path d="M0 0 C0.99 0.33 1.98 0.66 3 1 C2.01 4.3 1.02 7.6 0 11 C-0.66 11 -1.32 11 -2 11 C-1.34 7.37 -0.68 3.74 0 0 Z " fill="#222225" transform="translate(204,159)"/>
<path d="M0 0 C1.32 0.33 2.64 0.66 4 1 C4 2.98 4 4.96 4 7 C3.01 6.67 2.02 6.34 1 6 C0.67 4.02 0.34 2.04 0 0 Z " fill="#211DA3" transform="translate(750,155)"/>
<path d="M0 0 C0.66 0.99 1.32 1.98 2 3 C1.5390625 5.26171875 1.5390625 5.26171875 0.625 7.6875 C0.18027344 8.89986328 0.18027344 8.89986328 -0.2734375 10.13671875 C-0.51320313 10.75160156 -0.75296875 11.36648437 -1 12 C-1.66 11.67 -2.32 11.34 -3 11 C-2.01 7.37 -1.02 3.74 0 0 Z " fill="#03036D" transform="translate(717,146)"/>
<path d="M0 0 C1.98 0 3.96 0 6 0 C5.34 0.70125 4.68 1.4025 4 2.125 C1.69766797 5.43460229 1.63369844 7.06225823 2 11 C1.34 10.67 0.68 10.34 0 10 C0 6.7 0 3.4 0 0 Z " fill="#211E87" transform="translate(753,134)"/>
<path d="M0 0 C0.33 0 0.66 0 1 0 C2.125 6.625 2.125 6.625 1 10 C0.01 10 -0.98 10 -2 10 C-1.34 6.7 -0.68 3.4 0 0 Z " fill="#232283" transform="translate(498,177)"/>
<path d="M0 0 C1.32 0.33 2.64 0.66 4 1 C3.67 2.32 3.34 3.64 3 5 C1.35 5 -0.3 5 -2 5 C-1.34 3.35 -0.68 1.7 0 0 Z " fill="#1A15B0" transform="translate(734,166)"/>
<path d="M0 0 C2.78637633 4.1795645 1.79562512 6.14668677 1 11 C0.34 11 -0.32 11 -1 11 C-1.02688151 9.35425434 -1.04634123 7.70838587 -1.0625 6.0625 C-1.07410156 5.14597656 -1.08570312 4.22945312 -1.09765625 3.28515625 C-1 1 -1 1 0 0 Z " fill="#6E6E6E" transform="translate(93,153)"/>
<path d="M0 0 C0.99 0 1.98 0 3 0 C2.39009109 3.55780196 1.4216319 6.6828589 0 10 C-1.2380014 6.42355152 -0.74926071 3.66305234 0 0 Z " fill="#201D82" transform="translate(626,154)"/>
<path d="M0 0 C1.125 1.5 1.125 1.5 2 4 C1.57598348 6.7773082 0.81108065 9.29639783 0 12 C-0.66 12 -1.32 12 -2 12 C-2 10.68 -2 9.36 -2 8 C-1.34 8 -0.68 8 0 8 C0 5.36 0 2.72 0 0 Z " fill="#110E7E" transform="translate(161,199)"/>
<path d="M0 0 C0.33 0 0.66 0 1 0 C1 2.31 1 4.62 1 7 C1.99 7.33 2.98 7.66 4 8 C2.35 8 0.7 8 -1 8 C-2.2077558 4.37673261 -1.54311128 3.35853631 0 0 Z " fill="#19187C" transform="translate(656,180)"/>
<path d="M0 0 C0.33 0.99 0.66 1.98 1 3 C-0.21484375 4.82421875 -0.21484375 4.82421875 -1.9375 6.6875 C-2.50339844 7.31011719 -3.06929688 7.93273437 -3.65234375 8.57421875 C-4.09707031 9.04472656 -4.54179687 9.51523438 -5 10 C-5 5.88168014 -2.91010261 2.91010261 0 0 Z " fill="#686869" transform="translate(486,174)"/>
<path d="M0 0 C0.66 0.33 1.32 0.66 2 1 C2 1.66 2 2.32 2 3 C2.99 3.33 3.98 3.66 5 4 C3.02 5.32 1.04 6.64 -1 8 C-0.67 5.36 -0.34 2.72 0 0 Z " fill="#232323" transform="translate(201,170)"/>
<path d="M0 0 C0.66 0 1.32 0 2 0 C0.79618552 2.49361571 -0.45428722 4.68143083 -2 7 C-3.98 6.34 -5.96 5.68 -8 5 C-8 4.67 -8 4.34 -8 4 C-7.05125 3.896875 -6.1025 3.79375 -5.125 3.6875 C-1.70892499 3.31460705 -1.70892499 3.31460705 0 0 Z " fill="#171719" transform="translate(379,143)"/>
<path d="M0 0 C0.66 0 1.32 0 2 0 C0.7508258 3.45925163 -0.67527795 6.14693203 -3 9 C-3 4.73350364 -2.43160605 3.36683915 0 0 Z " fill="#666666" transform="translate(471,139)"/>
<path d="M0 0 C0.66 0 1.32 0 2 0 C1.44894091 3.9492568 0.61064629 7.34920174 -1 11 C-1.66 10.67 -2.32 10.34 -3 10 C-2.69201674 8.51988629 -2.378482 7.04092675 -2.0625 5.5625 C-1.88847656 4.73878906 -1.71445312 3.91507812 -1.53515625 3.06640625 C-1 1 -1 1 0 0 Z " fill="#6F6F6F" transform="translate(425,110)"/>
<path d="M0 0 C1.65 0 3.3 0 5 0 C5.33 0.99 5.66 1.98 6 3 C3.69 3 1.38 3 -1 3 C-0.67 2.01 -0.34 1.02 0 0 Z " fill="#2A2BA4" transform="translate(535,108)"/>
<path d="M0 0 C0.33 0.99 0.66 1.98 1 3 C-0.4375 5.6875 -0.4375 5.6875 -2 8 C-2.66 7.67 -3.32 7.34 -4 7 C-3.6875 4.625 -3.6875 4.625 -3 2 C-2.01 1.34 -1.02 0.68 0 0 Z " fill="#191874" transform="translate(718,180)"/>
<path d="M0 0 C1.4540625 0.0309375 1.4540625 0.0309375 2.9375 0.0625 C0.08443203 2.38722205 -2.60324837 3.8133258 -6.0625 5.0625 C-3.64893617 0.07446809 -3.64893617 0.07446809 0 0 Z " fill="#292685" transform="translate(534.0625,180.9375)"/>
<path d="M0 0 C2.64 0 5.28 0 8 0 C7.67 1.65 7.34 3.3 7 5 C6.34 4.01 5.68 3.02 5 2 C2.41619823 1.74969023 2.41619823 1.74969023 0 2 C0 1.34 0 0.68 0 0 Z " fill="#0E0C8B" transform="translate(652,124)"/>
<path d="" fill="#000000" transform="translate(0,0)"/>
<path d="" fill="#000000" transform="translate(0,0)"/>
<path d="" fill="#000000" transform="translate(0,0)"/>
<path d="" fill="#000000" transform="translate(0,0)"/>
<path d="" fill="#000000" transform="translate(0,0)"/>
<path d="" fill="#000000" transform="translate(0,0)"/>
<path d="" fill="#000000" transform="translate(0,0)"/>
</svg>
