<?xml version="1.0" encoding="UTF-8"?>
<svg version="1.1" xmlns="http://www.w3.org/2000/svg" width="911" height="776">
<path d="M0 0 C300.63 0 601.26 0 911 0 C911 256.08 911 512.16 911 776 C610.37 776 309.74 776 0 776 C0 519.92 0 263.84 0 0 Z " fill="#3C3C3C" transform="translate(0,0)"/>
<path d="M0 0 C1.52029584 -0.00131319 3.04059101 -0.00394562 4.56088257 -0.00778198 C8.73919824 -0.01450401 12.91728284 -0.00248018 17.09556918 0.01254536 C21.67024132 0.02564932 26.24490288 0.02126126 30.81958866 0.01909161 C39.69907583 0.01749684 48.57847195 0.03134675 57.45793572 0.05059559 C67.72917337 0.07219498 78.00035633 0.0745798 88.2716217 0.07695007 C115.38943399 0.09270131 142.50722599 0.13458465 169.62501526 0.17326355 C230.20064026 0.23513855 290.77626526 0.29701355 353.18751526 0.36076355 C353.18751526 183.84076355 353.18751526 367.32076355 353.18751526 556.36076355 C292.63251526 556.42263855 232.07751526 556.48451355 169.68751526 556.54826355 C150.54815979 556.57557556 131.40880432 556.60288757 111.68946838 556.63102722 C88.3662262 556.64457703 88.3662262 556.64457703 77.45692444 556.64709473 C69.81724794 556.6498962 62.17763701 556.66091706 54.53797913 556.67749023 C45.72990432 556.69656992 36.92189255 556.7052752 28.11379692 556.7010984 C23.60690168 556.69928907 19.10014739 556.70218233 14.59327793 556.71840894 C10.51764458 556.73299389 6.44225202 556.73374288 2.36660767 556.72346687 C0.89351139 556.72219482 -0.57959991 556.72599892 -2.05266666 556.73541129 C-12.41532495 556.79773151 -20.3775378 556.28735869 -28.27342224 549.04045105 C-34.13143112 542.64719263 -34.96178933 536.19515627 -34.94949913 527.83794212 C-34.95215096 526.96512189 -34.95480278 526.09230166 -34.95753497 525.19303232 C-34.96523697 522.24790457 -34.96578749 519.30281844 -34.96638489 516.35768127 C-34.97039891 514.23295817 -34.97483703 512.10823584 -34.97966444 509.98351443 C-34.99164239 504.12864643 -34.99728122 498.27378668 -35.0018456 492.41890883 C-35.00779699 486.11061165 -35.01940793 479.80232434 -35.03013611 473.49403381 C-35.05350991 458.97245241 -35.06806809 444.45086967 -35.08036552 429.92927525 C-35.08462042 424.9051676 -35.08918615 419.88106033 -35.09394884 414.85695314 C-35.11920843 388.14337966 -35.14125651 361.42980556 -35.15367699 334.71622276 C-35.15659831 328.52726108 -35.15956583 322.33829941 -35.1625824 316.14933777 C-35.16295331 315.38043807 -35.16332422 314.61153838 -35.16370636 313.8193387 C-35.17586226 288.88900044 -35.20680736 263.95873277 -35.24850392 239.02842767 C-35.29129185 213.39885745 -35.31791799 187.76932452 -35.3231517 162.13971761 C-35.32389214 158.51971084 -35.32480283 154.89970413 -35.32580948 151.27969742 C-35.32600009 150.567252 -35.32619071 149.85480659 -35.3263871 149.12077191 C-35.32990035 137.65622421 -35.35019663 126.19176495 -35.37660612 114.72724972 C-35.40275323 103.20283462 -35.41006281 91.67855996 -35.39950483 80.15411226 C-35.39431073 73.91086685 -35.39725428 67.66790263 -35.42197037 61.42469788 C-35.44441013 55.70883602 -35.44376353 49.99345824 -35.4247665 44.2775882 C-35.42195914 42.21024215 -35.42760566 40.14286364 -35.44257943 38.07556991 C-35.5892654 16.50433151 -35.5892654 16.50433151 -27.82267225 8.24461114 C-19.35311738 0.06186894 -11.31015294 -0.07211422 0 0 Z " fill="#BFC5C6" transform="translate(85.81248474121094,43.63923645019531)"/>
<path d="M0 0 C60.555 -0.061875 121.11 -0.12375 183.5 -0.1875 C202.63935547 -0.21481201 221.77871094 -0.24212402 241.49804688 -0.27026367 C264.82128906 -0.28381348 264.82128906 -0.28381348 275.73059082 -0.28633118 C283.37026731 -0.28913265 291.00987825 -0.30015351 298.64953613 -0.31672668 C307.45761094 -0.33580637 316.2656227 -0.34451165 325.07371834 -0.34033485 C329.58061358 -0.33852552 334.08736786 -0.34141878 338.59423733 -0.35764539 C342.66987068 -0.37223034 346.74526324 -0.37297933 350.82090759 -0.36270332 C352.29400387 -0.36143127 353.76711517 -0.36523537 355.24018192 -0.37464774 C364.63288857 -0.43113474 372.77764631 -0.32667637 380.25 6.0625 C380.87390625 6.56910156 381.4978125 7.07570313 382.140625 7.59765625 C389.03801364 16.50919829 388.5596853 26.70765911 388.48101807 37.41311646 C388.48276407 39.18303927 388.48626952 40.95296107 388.49137473 42.72287738 C388.5002928 47.56888947 388.48435471 52.41454602 388.46426249 57.26051283 C388.44695614 62.49283273 388.45283644 67.72513328 388.45587158 72.95747375 C388.45796693 82.01701719 388.44543839 91.07644522 388.42292023 100.13595963 C388.39038419 113.23440758 388.37999156 126.33279984 388.37496826 139.43128382 C388.36621814 160.68371302 388.33961019 181.93608074 388.30175781 203.18847656 C388.26503043 223.83072604 388.23672221 244.47295881 388.21972656 265.11523438 C388.21867567 266.38805425 388.21762477 267.66087413 388.21654204 268.9722643 C388.21132181 275.35775628 388.206267 281.74324838 388.20129442 288.12874055 C388.15984119 341.08586952 388.08940041 394.04293176 388 447 C387.18690872 446.38151436 387.18690872 446.38151436 386.35739136 445.75053406 C385.64245514 445.2098378 384.92751892 444.66914154 384.19091797 444.11206055 C383.48385712 443.57598679 382.77679626 443.03991302 382.04830933 442.4875946 C379.5204528 440.65172652 376.9241261 439.19655543 374.125 437.8125 C373.19945312 437.34457031 372.27390625 436.87664062 371.3203125 436.39453125 C363.21395097 432.98985941 355.28088062 431.43717921 346.55859375 430.60546875 C345.46083618 430.49267075 344.36307861 430.37987274 343.23205566 430.26365662 C339.63471546 429.89597832 336.03618286 429.54177278 332.4375 429.1875 C329.92706125 428.93314803 327.4167272 428.67776074 324.90649414 428.42138672 C320.32016341 427.95364785 315.73359346 427.48848676 311.14659786 427.02731323 C298.59133147 425.76413252 286.04311973 424.43523344 273.49462891 423.10665894 C263.66355018 422.06671421 253.83167058 421.03433126 244 420 C243.99453156 418.02921478 243.99453156 418.02921478 243.98895264 416.01861572 C243.95191874 403.60178035 243.89405423 391.18519105 243.81609726 378.76854324 C243.77668553 372.38588727 243.74446598 366.00336796 243.72900391 359.62060547 C243.71379605 353.45422294 243.67927663 347.28821631 243.63169098 341.12200165 C243.61691982 338.77627592 243.60896145 336.43049651 243.60811615 334.08472443 C243.85666607 317.08093028 243.85666607 317.08093028 239 301 C238.43318512 299.77485687 238.43318512 299.77485687 237.85491943 298.52496338 C231.74587063 285.92520671 221.08185089 277.65442618 208.26171875 272.76171875 C197.55492575 269.15580401 182.67466969 269.09326346 172.3515625 273.73046875 C171.57554687 274.14941406 170.79953125 274.56835938 170 275 C168.68128906 275.70576172 168.68128906 275.70576172 167.3359375 276.42578125 C154.81655119 283.57180264 146.84122094 293.38293286 142 307 C139.93874251 314.57097331 139.69478777 321.68318027 139.68115234 329.50610352 C139.67183694 330.8473215 139.66166591 332.18853378 139.65071106 333.52973938 C139.62357845 337.14478158 139.60831178 340.75978517 139.59528303 344.37490201 C139.57957863 348.1625719 139.55281199 351.95016381 139.5272522 355.73777771 C139.48059314 362.89855706 139.44378703 370.0593513 139.41057932 377.22020429 C139.37226659 385.37750085 139.32288061 393.53471884 139.27259517 401.69194901 C139.16946694 418.46124279 139.08014484 435.23058029 139 452 C137.69893311 452.08000244 137.69893311 452.08000244 136.37158203 452.16162109 C135.22028809 452.23977051 134.06899414 452.31791992 132.8828125 452.3984375 C131.17955811 452.50937744 131.17955811 452.50937744 129.44189453 452.62255859 C117.40296692 453.94275877 105.85077388 460.06436272 97.62109375 468.9453125 C87.65818757 481.572996 84.4054696 495.45015892 84.390625 511.2734375 C84.37499512 512.41917236 84.35936523 513.56490723 84.34326172 514.74536133 C84.29134212 518.9550355 84.27251425 523.16506587 84.25 527.375 C84.1675 536.82125 84.085 546.2675 84 556 C56.28 556 28.56 556 0 556 C0 372.52 0 189.04 0 0 Z " fill="#5F54FE" transform="translate(475,44)"/>
<path d="M0 0 C300.63 0 601.26 0 911 0 C911 256.08 911 512.16 911 776 C610.37 776 309.74 776 0 776 C0 519.92 0 263.84 0 0 Z M28 26 C18.4903147 37.60033596 13.66846642 49.44053635 13.74273109 64.39517593 C13.73922502 65.30156895 13.73571895 66.20796197 13.73210663 67.14182144 C13.72282202 70.17112725 13.72770837 73.20023957 13.73257446 76.22955322 C13.72883673 78.4265759 13.72423472 80.62359724 13.71884382 82.82061648 C13.70661373 88.85223846 13.70687431 94.88380496 13.70923257 100.91543651 C13.70964073 107.42275392 13.69860169 113.93005355 13.68911743 120.43736267 C13.67207258 133.1841049 13.66698193 145.93083135 13.66589268 158.67758378 C13.66497308 169.03862652 13.66085374 179.39966326 13.65449142 189.76070404 C13.6526963 192.74468509 13.65091667 195.72866614 13.64914167 198.7126472 C13.64869957 199.45450373 13.64825748 200.19636026 13.64780198 200.96069728 C13.63549614 221.82357611 13.6276006 242.68645286 13.62848854 263.54933548 C13.6285197 264.33567801 13.62855086 265.12202055 13.62858296 265.93219165 C13.62874917 269.91757146 13.62894725 273.90295127 13.62915237 277.88833109 C13.62921221 279.07556641 13.62921221 279.07556641 13.62927325 280.28678629 C13.62935413 281.88737185 13.62943772 283.48795741 13.62952404 285.08854296 C13.63074947 309.9895533 13.61573669 334.89050916 13.58837891 359.79150391 C13.55764474 387.77711438 13.5404472 415.76268906 13.54230535 443.74831748 C13.54245461 446.73355595 13.54255202 449.71879442 13.54261398 452.7040329 C13.54263729 453.4390571 13.5426606 454.17408131 13.54268462 454.93137897 C13.54274611 466.74930599 13.52998561 478.56718565 13.51274945 490.3850986 C13.49577963 502.26628684 13.4938297 514.14740592 13.5069681 526.02859959 C13.51350093 532.46258177 13.51360317 538.8963926 13.4962616 545.33035851 C13.48054046 551.22376479 13.48338515 557.11686372 13.50082986 563.01026246 C13.5039018 565.138745 13.50026012 567.26725042 13.48910971 569.39570597 C13.39294321 589.05968274 16.71712187 605.38496192 31 620 C31.66 620 32.32 620 33 620 C33 620.66 33 621.32 33 622 C40.77192316 628.47448264 49.25026242 633.18038948 59 636 C59.59741182 636.17293009 60.19482364 636.34586017 60.81033885 636.52403057 C70.07494118 638.77698362 79.60380968 638.27031547 89.07058716 638.24050903 C91.12924403 638.24138174 93.18790069 638.24313391 95.24655616 638.24568737 C100.89057342 638.25015212 106.53451455 638.24216915 112.17852211 638.23213124 C118.26974608 638.22348651 124.36096583 638.22641763 130.45219421 638.22793579 C141.00136405 638.22898399 151.55051198 638.22278409 162.09967422 638.21146011 C173.16086062 638.199617 184.22203714 638.19192639 195.28322983 638.18975449 C195.97155678 638.18961701 196.65988373 638.18947953 197.36906908 638.18933788 C200.86488181 638.18866119 204.36069454 638.18805844 207.85650729 638.18748413 C232.60291262 638.18328581 257.34930505 638.16981808 282.09570312 638.15087891 C306.13313732 638.13250358 330.17056799 638.11833952 354.20800781 638.10986328 C354.94923834 638.10960023 355.69046887 638.10933718 356.45416092 638.10906615 C363.89805446 638.10642906 371.34194803 638.10387744 378.78584162 638.10138843 C393.94925878 638.09631631 409.1126757 638.09067381 424.27609253 638.08468628 C424.97324762 638.0844117 425.67040272 638.08413712 426.38868373 638.08385422 C472.92579462 638.06545985 519.46289796 638.0337286 566 638 C566.30236572 638.94294922 566.60473145 639.88589844 566.91625977 640.85742188 C569.71316725 648.96776048 576.30367191 655.72409147 581.59057617 662.39550781 C612.46982845 701.41303032 612.46982845 701.41303032 612.40625 720.29296875 C612.41708618 721.24263016 612.42792236 722.19229156 612.43908691 723.17073059 C612.48460114 727.19474716 612.49643906 731.21869216 612.51123047 735.24291992 C612.52694924 738.19733369 612.55993809 741.15121554 612.59375 744.10546875 C612.59072876 745.00871384 612.58770752 745.91195892 612.58459473 746.84257507 C612.64557872 751.97777361 613.12644987 755.5645719 616 760 C622.17072217 765.90242991 626.92502829 767.30155921 635.30552673 767.26069641 C636.13861014 767.26452196 636.97169356 767.26834751 637.83002192 767.27228898 C640.61973712 767.28260244 643.40924587 767.27862997 646.19897461 767.2746582 C648.19980561 767.27900558 650.20063494 767.28418881 652.20146179 767.29014587 C657.63529832 767.303544 663.06906532 767.30411366 668.50291514 767.30158257 C673.03833024 767.30051347 677.57373124 767.30539465 682.10914332 767.310188 C692.80804311 767.32128588 703.50690779 767.32171892 714.20581055 767.31567383 C725.2456488 767.30963206 736.28535966 767.32194961 747.32517618 767.3432439 C756.80215834 767.36085201 766.27909993 767.36686252 775.75609785 767.36360615 C781.41692636 767.36179198 787.07766399 767.36444292 792.73847771 767.37832069 C798.06136123 767.39088161 803.38404594 767.38897131 808.70692635 767.37590981 C810.66044303 767.37354074 812.61397363 767.37629049 814.56747437 767.38453293 C817.23437763 767.39497406 819.90061055 767.38692095 822.56748962 767.3742218 C823.34035543 767.38159609 824.11322123 767.38897037 824.90950722 767.39656812 C831.19294577 767.33363078 835.08605622 765.69645017 839.75 761.5625 C843.91680752 756.81696921 844.28171497 753.18197176 844.2734375 746.97265625 C844.29375555 745.35871739 844.31460681 743.74478517 844.3359375 742.13085938 C844.35834541 739.61021332 844.37493577 737.08983221 844.38085938 734.5690918 C844.4341852 721.0843234 845.75710202 709.34094666 853.0625 697.625 C853.44462646 697.00761963 853.82675293 696.39023926 854.22045898 695.75415039 C857.53814605 690.493104 861.24127401 685.5369055 864.96728516 680.56176758 C872.17095928 670.84887716 877.87063868 660.77235925 881 649 C881.21269531 648.21753906 881.42539062 647.43507813 881.64453125 646.62890625 C882.7320196 641.98947752 883.01365158 637.66960372 883.03149414 632.90185547 C883.15838396 623.83972401 885.14462384 619.14204102 890.70703125 612.05859375 C897.95816844 602.3862932 900.31649853 590.50538874 900.25726891 578.66005611 C900.26252802 577.30941245 900.26252802 577.30941245 900.26789337 575.93148306 C900.27717715 572.92243498 900.27229183 569.91358173 900.26742554 566.90452576 C900.27116332 564.72201555 900.27576536 562.53950668 900.28115618 560.35699993 C900.29338586 554.36537442 900.29312573 548.37380475 900.29076743 542.3821696 C900.29035925 535.91773994 900.30139858 529.45332818 900.31088257 522.98890686 C900.32792792 510.32538004 900.33301812 497.66186911 900.33410732 484.99833202 C900.33502703 474.70310453 900.33914694 464.40788307 900.34550858 454.11265755 C900.34730372 451.14725926 900.34908335 448.18186097 900.35085833 445.21646267 C900.35130043 444.47921224 900.35174252 443.7419618 900.35219802 442.98237044 C900.36450435 422.24809931 900.37239937 401.51383027 900.37151146 380.77955532 C900.3714803 379.99803702 900.37144914 379.21651872 900.37141704 378.41131805 C900.37125083 374.45043177 900.37105275 370.4895455 900.37084763 366.52865922 C900.37080774 365.74204141 900.37076785 364.9554236 900.37072675 364.14496889 C900.37064587 362.55423541 900.37056228 360.96350192 900.37047596 359.37276844 C900.36925092 334.6328475 900.384256 309.89298142 900.41162109 285.15307617 C900.44236814 257.34432784 900.45955197 229.53561554 900.45769465 201.72684914 C900.45754539 198.75925036 900.45744798 195.79165159 900.45738602 192.82405281 C900.45736271 192.09338033 900.4573394 191.36270784 900.45731538 190.60989377 C900.45725394 178.87066504 900.47000524 167.13148408 900.48725055 155.39226954 C900.50423659 143.58496106 900.50581571 131.77772802 900.4930319 119.97041392 C900.48650704 113.57859022 900.48636793 107.18693893 900.5037384 100.79513168 C900.51949517 94.93672601 900.51657853 89.07862909 900.49917014 83.22023083 C900.496106 81.10784553 900.49971033 78.99543704 900.51089029 76.8830791 C900.61542649 55.71973512 897.56994279 38.3343346 882.45703125 22.3203125 C868.30129779 8.95225896 853.49238636 4.50948953 834.23114491 4.62526989 C832.88707713 4.6224367 831.54301161 4.61828962 830.19895139 4.61296466 C826.52756085 4.60218259 822.85641375 4.60989488 819.18503233 4.6207987 C815.18251606 4.62934953 811.18003123 4.62040278 807.17751664 4.61373454 C800.16989173 4.60445709 793.16233862 4.60628211 786.15471458 4.61546707 C775.73418988 4.62908775 765.31372015 4.62549462 754.89319142 4.61850847 C736.28156281 4.60658916 717.6699681 4.61166149 699.05834137 4.62378674 C682.7728361 4.63432432 666.48734238 4.63886205 650.20183372 4.63749123 C649.12144175 4.6374072 648.04104978 4.63732317 646.92791866 4.63723659 C642.54225231 4.63688434 638.15658597 4.63650033 633.77091962 4.63607101 C592.63617644 4.63210654 551.50145367 4.64482153 510.36671632 4.66559757 C473.81763321 4.68397074 437.26856966 4.6897788 400.71948242 4.68432617 C398.37223585 4.68397974 396.02498927 4.68363364 393.6777427 4.68328788 C391.93709352 4.68303139 391.93709352 4.68303139 390.16127971 4.68276971 C384.31986017 4.68191618 378.47844062 4.68109239 372.63702106 4.68030071 C371.4846066 4.68014363 370.33219214 4.67998655 369.14485603 4.67982471 C338.60553921 4.67583546 308.06622426 4.68130907 277.52690858 4.689812 C274.24125226 4.69071904 270.95559595 4.6916247 267.66993964 4.69252724 C265.49031882 4.69312835 263.310698 4.69373697 261.13107719 4.69435314 C245.93214345 4.69857552 230.73321341 4.69915236 215.53427927 4.69724765 C195.95042285 4.69480566 176.36658626 4.6988688 156.78273527 4.71445765 C146.42457773 4.72251261 136.06645323 4.72510593 125.70829372 4.7198153 C118.79152878 4.71684087 111.87479306 4.72113193 104.9580351 4.73136387 C101.01590976 4.73699599 97.07385183 4.73948701 93.13172594 4.73319729 C89.54314721 4.72754064 85.95469925 4.73113254 82.36613359 4.74199607 C80.47250524 4.74537938 78.57886706 4.73900893 76.68524793 4.73220173 C57.35741511 4.82154285 41.4597674 11.97374407 28 26 Z " fill="#000000" transform="translate(0,0)"/>
<path d="M0 0 C60.555 -0.061875 121.11 -0.12375 183.5 -0.1875 C202.63935547 -0.21481201 221.77871094 -0.24212402 241.49804688 -0.27026367 C264.82128906 -0.28381348 264.82128906 -0.28381348 275.73059082 -0.28633118 C283.37026731 -0.28913265 291.00987825 -0.30015351 298.64953613 -0.31672668 C307.45761094 -0.33580637 316.2656227 -0.34451165 325.07371834 -0.34033485 C329.58061358 -0.33852552 334.08736786 -0.34141878 338.59423733 -0.35764539 C342.66987068 -0.37223034 346.74526324 -0.37297933 350.82090759 -0.36270332 C352.29400387 -0.36143127 353.76711517 -0.36523537 355.24018192 -0.37464774 C364.63288857 -0.43113474 372.77764631 -0.32667637 380.25 6.0625 C380.87390625 6.56910156 381.4978125 7.07570313 382.140625 7.59765625 C389.03801364 16.50919829 388.5596853 26.70765911 388.48101807 37.41311646 C388.48276407 39.18303927 388.48626952 40.95296107 388.49137473 42.72287738 C388.5002928 47.56888947 388.48435471 52.41454602 388.46426249 57.26051283 C388.44695614 62.49283273 388.45283644 67.72513328 388.45587158 72.95747375 C388.45796693 82.01701719 388.44543839 91.07644522 388.42292023 100.13595963 C388.39038419 113.23440758 388.37999156 126.33279984 388.37496826 139.43128382 C388.36621814 160.68371302 388.33961019 181.93608074 388.30175781 203.18847656 C388.26503043 223.83072604 388.23672221 244.47295881 388.21972656 265.11523438 C388.21867567 266.38805425 388.21762477 267.66087413 388.21654204 268.9722643 C388.21132181 275.35775628 388.206267 281.74324838 388.20129442 288.12874055 C388.15984119 341.08586952 388.08940041 394.04293176 388 447 C387.18690872 446.38151436 387.18690872 446.38151436 386.35739136 445.75053406 C385.64245514 445.2098378 384.92751892 444.66914154 384.19091797 444.11206055 C383.48385712 443.57598679 382.77679626 443.03991302 382.04830933 442.4875946 C379.5204528 440.65172652 376.9241261 439.19655543 374.125 437.8125 C373.19945312 437.34457031 372.27390625 436.87664062 371.3203125 436.39453125 C363.21395097 432.98985941 355.28088062 431.43717921 346.55859375 430.60546875 C345.46083618 430.49267075 344.36307861 430.37987274 343.23205566 430.26365662 C339.63471546 429.89597832 336.03618286 429.54177278 332.4375 429.1875 C329.92706125 428.93314803 327.4167272 428.67776074 324.90649414 428.42138672 C320.32016341 427.95364785 315.73359346 427.48848676 311.14659786 427.02731323 C302.28258311 426.13550798 293.42198005 425.21304937 284.5625 424.27734375 C283.89986712 424.20736616 283.23723423 424.13738857 282.55452156 424.06529045 C279.2892465 423.7203162 276.02402192 423.37486717 272.75881958 423.02920532 C266.6610853 422.38420911 260.56295483 421.74298472 254.46484375 421.1015625 C252.41918749 420.88624908 250.37353298 420.67091912 248.32788086 420.45556641 C246.18557983 420.23006104 246.18557983 420.23006104 244 420 C244 415.38 244 410.76 244 406 C245.72605469 405.95101563 247.45210937 405.90203125 249.23046875 405.8515625 C275.77945543 405.0245033 298.26606002 402.09312835 319 384 C319.61488281 383.48050781 320.22976563 382.96101563 320.86328125 382.42578125 C333.85264766 370.57111811 342.12114128 351.36279986 343.11727285 333.95002389 C343.31745766 327.96948319 343.29408841 321.98633329 343.29052734 316.00317383 C343.29651991 313.98812615 343.30332712 311.97308075 343.31088257 309.95803833 C343.32847625 304.50942968 343.33323516 299.06088393 343.33451414 293.61224961 C343.33594014 290.2007236 343.34021822 286.78921335 343.34550858 283.37769127 C343.36398738 271.45482755 343.37218194 259.53200842 343.37060547 247.60913086 C343.36940487 236.52957203 343.3904968 225.45020825 343.4220928 214.37069875 C343.44832281 204.82974458 343.45896994 195.28885386 343.45769465 185.74786395 C343.45718697 180.06217909 343.46276245 174.37666771 343.48405075 168.69101906 C343.5035466 163.33843607 343.50348058 157.98619004 343.48901749 152.63359451 C343.48694226 150.68104365 343.49155252 148.72847105 343.5037384 146.77595711 C343.59005332 131.97477222 342.37376321 117.8655775 335.1875 104.5625 C334.84638184 103.9034668 334.50526367 103.24443359 334.15380859 102.56542969 C331.69101954 97.94044164 328.86903519 93.77794789 325.4453125 89.796875 C324 88 324 88 323.0546875 85.890625 C321.71187068 83.48350152 320.47794063 83.130842 318 82 C316.52128562 80.7954293 315.06490574 79.56320311 313.625 78.3125 C299.69101248 67.08789894 282.07328198 61.91980137 264.28105164 61.85282898 C262.31148247 61.84209602 262.31148247 61.84209602 260.30212402 61.83114624 C258.86376977 61.82830654 257.42541526 61.82559474 255.98706055 61.82299805 C254.45860137 61.81672507 252.93014368 61.81007754 251.40168762 61.80308533 C246.39670862 61.78213012 241.39172963 61.77168639 236.38671875 61.76171875 C234.65514422 61.75766708 232.92356984 61.75355004 231.19199562 61.74936867 C223.04839393 61.73033052 214.90480118 61.71610033 206.76118153 61.7077567 C197.4050107 61.69800918 188.04907801 61.67174911 178.69299096 61.63125581 C171.43402794 61.60093319 164.17513252 61.58627238 156.91610748 61.58297569 C152.59401048 61.58064229 148.27216823 61.57190891 143.95014 61.54651451 C114.15632079 60.96784493 114.15632079 60.96784493 86 69.75 C85.30269775 70.09289062 84.60539551 70.43578125 83.88696289 70.7890625 C77.95688002 73.80886542 72.87684127 77.46382044 68 82 C67.319375 82.59039062 66.63875 83.18078125 65.9375 83.7890625 C54.32291897 94.45088493 45.19173821 111.34301794 43.8134321 127.13801527 C43.74147382 129.45461819 43.72847565 131.76378373 43.73930359 134.08148193 C43.73547804 134.96189785 43.73165249 135.84231377 43.72771102 136.74940896 C43.71744249 139.68163393 43.72136148 142.61366083 43.7253418 145.54589844 C43.72099186 147.65566183 43.71580777 149.76542363 43.70985413 151.87518311 C43.69648157 157.59435882 43.69588365 163.31346837 43.69841743 169.03265667 C43.69948857 173.81370392 43.69459997 178.59473786 43.689812 183.37578225 C43.6787223 194.66036239 43.67827605 205.94490924 43.68432617 217.22949219 C43.69036285 228.85378152 43.67806143 240.47794972 43.6567561 252.10221839 C43.63911469 262.09654756 43.63314285 272.09083827 43.63639385 282.08518243 C43.63820318 288.04796915 43.63560559 294.01066951 43.62167931 299.97344208 C43.60906471 305.58447269 43.61107946 311.19531521 43.62409019 316.80634308 C43.62644782 318.85893315 43.62375067 320.91153661 43.61546707 322.96411133 C43.57652217 333.36925573 43.62510636 343.0215969 47 353 C47.35320313 354.10214844 47.70640625 355.20429688 48.0703125 356.33984375 C56.07043314 376.0438446 70.75813424 390.39723701 90.125 398.875 C95.95002883 401.13639004 101.89725278 402.6891051 108 404 C108.75313477 404.17039795 109.50626953 404.3407959 110.28222656 404.51635742 C113.27185146 405.04837745 116.14118036 405.21176484 119.17578125 405.31640625 C120.21903564 405.35451416 121.26229004 405.39262207 122.3371582 405.43188477 C124.30495239 405.49653931 124.30495239 405.49653931 126.3125 405.5625 C130.499375 405.706875 134.68625 405.85125 139 406 C139 421.18 139 436.36 139 452 C134.71 452.33 130.42 452.66 126 453 C111.65301525 456.80634289 100.25300091 463.90470363 92.3125 476.5625 C86.23687623 487.68739389 84.402399 498.72319317 84.390625 511.2734375 C84.37499512 512.41917236 84.35936523 513.56490723 84.34326172 514.74536133 C84.29134212 518.9550355 84.27251425 523.16506587 84.25 527.375 C84.1675 536.82125 84.085 546.2675 84 556 C56.28 556 28.56 556 0 556 C0 372.52 0 189.04 0 0 Z " fill="#FCFCFC" transform="translate(475,44)"/>
<path d="M0 0 C4.47870656 2.15937638 7.18198188 4.92952939 10 9 C10.9882394 11.96471821 11.12471643 13.88491376 11.12457275 16.97648621 C11.12713577 18.00398987 11.12969879 19.03149353 11.13233948 20.09013367 C11.13023972 21.21692032 11.12813995 22.34370697 11.12597656 23.50463867 C11.1278447 24.69191559 11.12971283 25.8791925 11.13163757 27.10244751 C11.1356462 29.68555166 11.13771683 32.26865936 11.13809967 34.85176659 C11.13924111 38.94144582 11.1520885 43.03103499 11.16766357 47.12068176 C11.17023643 47.81137495 11.17280928 48.50206813 11.1754601 49.21369141 C11.18072676 50.62615402 11.18601224 52.03861655 11.19131613 53.45107901 C11.22639466 62.97073643 11.25298136 72.49028232 11.25048828 82.01000977 C11.24889665 88.43289151 11.26500714 94.85546618 11.30119491 101.27824956 C11.31960942 104.67457645 11.32903814 108.07039098 11.31671906 111.46675682 C11.30709767 115.26111096 11.32828318 119.05415296 11.35644531 122.84838867 C11.34624863 123.96505417 11.33605194 125.08171967 11.32554626 126.23222351 C11.41465635 132.93755471 12.15231901 138.07746189 17 143 C21.88326668 146.55953733 27.12440689 147.67942349 33.07617188 148.21679688 C33.84214188 148.29873795 34.60811188 148.38067902 35.39729309 148.46510315 C37.91982094 148.73120216 40.44396749 148.97505575 42.96875 149.21875 C44.76735129 149.40388365 46.56581115 149.59039588 48.36413574 149.77819824 C53.11493962 150.27053812 57.8674399 150.74402691 62.62054443 151.21356201 C67.30158016 151.67921478 71.98076787 152.16265655 76.66015625 152.64453125 C90.61392763 154.07542034 104.56841077 155.49863924 118.5346756 156.80283356 C122.20309522 157.14608313 125.87083554 157.496308 129.53855896 157.84690857 C132.07915566 158.08648021 134.62058688 158.31495396 137.16223145 158.54309082 C150.73087123 159.81072858 160.61318949 161.39479179 170 172 C173.31146695 176.98030649 175.11489497 182.10948952 175.14044189 188.07603455 C175.14615204 188.87891907 175.15186218 189.68180359 175.15774536 190.50901794 C175.15942215 191.81734337 175.15942215 191.81734337 175.16113281 193.15209961 C175.16609772 194.07789825 175.17106262 195.0036969 175.17617798 195.95755005 C175.19078794 199.02248887 175.19760207 202.08737581 175.203125 205.15234375 C175.20888037 207.29024761 175.21463806 209.42815145 175.22039795 211.5660553 C175.23090667 216.05421183 175.23674921 220.54235047 175.24023438 225.03051758 C175.2456983 230.75306759 175.2696818 236.47537717 175.29820633 242.19785213 C175.31693304 246.61880659 175.32204377 251.03970451 175.32357025 255.46069527 C175.32657812 257.56839871 175.33454279 259.67610161 175.34775543 261.78376579 C175.44570123 278.61902389 174.54790422 291.56732978 165 306 C164.62188171 306.57240417 164.24376343 307.14480835 163.85418701 307.73455811 C160.48977009 312.81005561 157.06633153 317.84569104 153.61303711 322.86108398 C140.36633297 342.13860842 136.21373307 356.72533857 135 381 C82.86 381 30.72 381 -23 381 C-23.495 368.625 -23.495 368.625 -24 356 C-26.9832682 340.96891789 -33.03727323 328.82936627 -42.52880859 316.86767578 C-45.64922682 312.90630846 -48.69290676 308.88529108 -51.75 304.875 C-52.77806763 303.5278894 -52.77806763 303.5278894 -53.8269043 302.15356445 C-58.36596188 296.1904888 -62.84746295 290.18961559 -67.25 284.125 C-67.77432617 283.40683105 -68.29865234 282.68866211 -68.83886719 281.94873047 C-77.3581493 270.1306706 -79.32047055 260.79462469 -79.3359375 246.28125 C-79.34237685 244.85453156 -79.34910603 243.42781441 -79.35610962 242.00109863 C-79.36803065 239.02234842 -79.37179557 236.04371376 -79.37060547 233.06494141 C-79.370402 229.26545235 -79.3977553 225.46670887 -79.43214989 221.66739655 C-79.45447951 218.72467705 -79.45844126 215.78213573 -79.45738602 212.83934021 C-79.45973089 211.43921834 -79.46849107 210.03909072 -79.48405075 208.63905334 C-79.64208301 192.95901963 -79.64208301 192.95901963 -73.58798218 186.49157715 C-68.61401885 182.03573707 -64.1514533 180.76427384 -57.59765625 180.69140625 C-56.37755859 180.66626953 -55.15746094 180.64113281 -53.90039062 180.61523438 C-51.34575315 180.58013249 -48.79105997 180.54887047 -46.23632812 180.52148438 C-44.40424805 180.4818457 -44.40424805 180.4818457 -42.53515625 180.44140625 C-40.87045288 180.42122437 -40.87045288 180.42122437 -39.17211914 180.40063477 C-34.36271159 179.79321248 -31.07359221 178.13323622 -27.75 174.625 C-24.59665787 169.8949868 -23.75011568 166.18859622 -23.7484436 160.51673889 C-23.74306076 159.2059285 -23.73767792 157.8951181 -23.73213196 156.54458618 C-23.73614584 155.09881549 -23.74031674 153.65304522 -23.74462891 152.20727539 C-23.74187784 150.67934482 -23.73819724 149.15141568 -23.73365784 147.62348938 C-23.72555469 144.33703236 -23.72337514 141.05064335 -23.72560501 137.76417732 C-23.72844046 132.56590858 -23.71407777 127.36777548 -23.69662476 122.16954041 C-23.64961903 107.38917063 -23.62565508 92.60881035 -23.61914062 77.82836914 C-23.61538953 69.66227964 -23.59735759 61.49634389 -23.56404626 53.3303203 C-23.54383522 48.16443211 -23.54146027 42.99894051 -23.55232644 37.83302891 C-23.55493505 34.6171906 -23.54092258 31.40158287 -23.52224541 28.18580437 C-23.51692679 26.69671342 -23.51841463 25.20757991 -23.52728081 23.71850586 C-23.53842442 21.6824364 -23.52260772 19.64627303 -23.50552368 17.61024475 C-23.50388938 15.90268556 -23.50388938 15.90268556 -23.50222206 14.16063023 C-22.69911735 9.10645754 -20.14842174 6.01170487 -16.375 2.6875 C-11.25527798 -0.95019722 -6.13002394 -0.57769859 0 0 Z " fill="#FCFCFC" transform="translate(673,350)"/>
<path d="M0 0 C1.45727452 -0.00807831 1.45727452 -0.00807831 2.94398892 -0.01631981 C6.19041978 -0.03059575 9.43644269 -0.02349641 12.68289185 -0.01637268 C15.0141228 -0.02207645 17.34535095 -0.02904073 19.67657471 -0.03717041 C26.00304926 -0.05511674 32.32938522 -0.05393052 38.65587759 -0.04822803 C44.60783988 -0.04474707 50.55978098 -0.05269916 56.51173867 -0.05958868 C69.02096715 -0.07330697 81.53013303 -0.06788095 94.03936006 -0.05640347 C105.47218254 -0.04647365 116.90484312 -0.05940852 128.33764063 -0.08333766 C140.08892149 -0.10774724 151.840127 -0.11733186 163.59143269 -0.11068493 C170.18405155 -0.10731463 176.77653667 -0.10973542 183.36913681 -0.12693596 C189.56950529 -0.14240694 195.76956483 -0.1384474 201.96992111 -0.11963081 C204.243077 -0.11594532 206.51625578 -0.11905218 208.78939056 -0.1295166 C211.8975466 -0.14273053 215.00468048 -0.13117457 218.11279297 -0.11352539 C219.00784825 -0.1231304 219.90290354 -0.1327354 220.82508171 -0.14263147 C227.94041749 -0.05975968 234.00850345 1.72163169 239.52322388 6.3525238 C240.05045044 7.00350037 240.577677 7.65447693 241.12088013 8.32518005 C241.93879028 9.29777771 241.93879028 9.29777771 242.77322388 10.2900238 C245.78746807 14.77381641 246.43451819 18.57890355 246.44407654 23.94013977 C246.44790209 24.58467421 246.45172763 25.22920864 246.45566911 25.89327443 C246.46595718 28.04497657 246.46201503 30.19640977 246.45803833 32.34812927 C246.46238717 33.89414211 246.46757089 35.44015279 246.473526 36.98616028 C246.48690962 41.18043963 246.48749532 45.37462884 246.4849627 49.56892538 C246.48389244 53.07283665 246.48877784 56.57672973 246.49356812 60.0806371 C246.50466136 68.34885148 246.50510191 76.61702043 246.49905396 84.88523865 C246.49301506 93.40866678 246.50532343 101.93192981 246.52662402 110.45532978 C246.54425107 117.77863232 246.5502396 125.10188237 246.54698628 132.42520535 C246.54517485 136.79666262 246.54779548 141.16800213 246.56170082 145.53944016 C246.57429232 149.65170208 246.57232264 153.76370706 246.55928993 157.87596512 C246.55692738 159.3823836 246.55964735 160.88882024 246.56791306 162.3952179 C246.61863424 172.36011823 246.20749198 180.09482602 239.10648906 187.6963048 C232.90938078 193.14666459 224.91518318 193.97484734 216.99926758 193.89561462 C215.5370898 193.90497457 215.5370898 193.90497457 214.04537308 193.9145236 C210.80580432 193.93037386 207.56699633 193.91788047 204.3274231 193.90525818 C201.99412602 193.91068275 199.66083236 193.91780728 197.32754517 193.92649841 C191.009534 193.94469259 184.69178488 193.93768072 178.37376928 193.92498207 C172.42659739 193.91586592 166.47945751 193.92283338 160.53228475 193.92869085 C148.03830958 193.94007759 135.5444521 193.92701204 123.05049624 193.90548939 C112.34098853 193.88761173 101.63165425 193.89073163 90.92214966 193.90916443 C78.46781345 193.93059051 66.01358013 193.93898792 53.55922806 193.92671537 C46.97284223 193.92048357 40.38657574 193.91963659 33.8001976 193.93286133 C27.60962797 193.94442391 21.41938563 193.9363861 15.22885132 193.9132843 C12.95850289 193.90799994 10.68812687 193.90950628 8.41778946 193.91833496 C5.3159975 193.92928406 2.21525095 193.91553368 -0.88647461 193.89561462 C-1.78239637 193.90453751 -2.67831814 193.9134604 -3.60138905 193.92265368 C-10.54794203 193.83627004 -15.79814407 192.03279038 -21.05880737 187.4228363 C-21.86704956 186.44637146 -21.86704956 186.44637146 -22.69161987 185.45018005 C-23.24591675 184.80178162 -23.80021362 184.15338318 -24.37130737 183.4853363 C-27.44973225 179.0174602 -28.06847906 175.17989836 -28.08404541 169.8039856 C-28.08857652 169.15607317 -28.09310764 168.50816075 -28.09777606 167.84061462 C-28.11039952 165.67743752 -28.10880105 163.51451287 -28.10714722 161.3513031 C-28.1131338 159.79705991 -28.11993964 158.24281969 -28.12750244 156.68858337 C-28.14515738 152.47151872 -28.14985763 148.25453524 -28.15113401 144.0374372 C-28.15255656 141.40090388 -28.15682814 138.76439114 -28.16212845 136.12786293 C-28.18062768 126.92449765 -28.18879927 117.72119027 -28.18722534 108.51780701 C-28.18602426 99.9477789 -28.20712032 91.37800277 -28.23871267 82.80803841 C-28.2648923 75.44310566 -28.27559192 68.07825512 -28.27431452 60.71327621 C-28.27380535 56.31770932 -28.27946382 51.92236635 -28.30067062 47.52684593 C-28.32008131 43.39072494 -28.32015836 39.25504081 -28.30563736 35.11890411 C-28.30355159 33.60483726 -28.30823635 32.09074286 -28.32035828 30.5767231 C-28.38775684 21.57216551 -28.19504657 14.58259658 -22.14083862 7.3993988 C-21.33066284 6.74391052 -21.33066284 6.74391052 -20.50411987 6.07518005 C-19.97173706 5.62529724 -19.43935425 5.17541443 -18.89083862 4.7118988 C-12.54275795 0.65916933 -7.38617243 -0.04935009 0 0 Z " fill="#FCFCFC" transform="translate(138.81661987304688,105.61231994628906)"/>
<path d="M0 0 C7.79393894 5.42187057 13.21870361 13.37970292 15.6484375 22.5625 C16.47894682 31.79467337 16.28874475 40.30505885 11.6484375 48.5625 C10.99488281 49.74779297 10.99488281 49.74779297 10.328125 50.95703125 C5.65271449 58.65996168 -0.35894588 62.67972317 -8.3515625 66.5625 C-6.79308594 66.80033203 -6.79308594 66.80033203 -5.203125 67.04296875 C9.34780747 69.40928662 19.88556126 74.08361953 29.50390625 85.828125 C34.75565807 93.245414 36.6484375 99.46993612 36.6484375 108.5625 C-1.9615625 108.5625 -40.5715625 108.5625 -80.3515625 108.5625 C-79.06872626 95.73413758 -75.07957172 86.24022857 -65.3515625 77.5625 C-62.14730027 75.26871102 -58.85196869 73.36503475 -55.3515625 71.5625 C-54.2996875 70.985 -53.2478125 70.4075 -52.1640625 69.8125 C-46.21154547 67.59856775 -39.63158261 67.24950349 -33.3515625 66.5625 C-33.96902344 66.30597656 -34.58648437 66.04945313 -35.22265625 65.78515625 C-46.08488838 60.87483214 -52.89191104 53.5921737 -57.3515625 42.5625 C-59.80480388 35.20277585 -59.79578948 23.67119678 -56.7265625 16.4375 C-55.609375 14.44140625 -55.609375 14.44140625 -54.3515625 12.5625 C-53.91585937 11.87027344 -53.48015625 11.17804688 -53.03125 10.46484375 C-41.02080017 -7.09141488 -17.76897057 -10.86209497 0 0 Z " fill="#BEC5C5" transform="translate(269.3515625,153.4375)"/>
<path d="M0 0 C4.13097542 4.33752419 5.12241473 8.17901694 5.55078125 14.0625 C5.39686174 19.84806258 2.42224961 24.50820843 -1.515625 28.55859375 C-6.19670416 31.43035497 -10.14437476 31.97593801 -15.51953125 31.9296875 C-17.08138219 31.94708867 -18.6432311 31.96467282 -20.20507812 31.98242188 C-22.63130823 31.99241639 -25.0573929 31.99610848 -27.48364258 31.99438477 C-45.06270821 32.02137136 -59.02326932 35.39849183 -72.265625 47.74609375 C-82.52732772 58.55950092 -86.98181963 70.8435867 -86.88671875 85.53515625 C-86.90408969 87.60807466 -86.92167418 89.6809913 -86.93945312 91.75390625 C-86.94953528 94.97724584 -86.9531161 98.20047338 -86.95141602 101.42382812 C-86.95499687 104.56543484 -86.98236243 107.70620019 -87.01171875 110.84765625 C-87.00353622 111.80306305 -86.9953537 112.75846985 -86.98692322 113.74282837 C-87.0613067 120.47361902 -88.23361085 126.10651218 -92.99827576 131.11807251 C-98.06186596 135.53478181 -102.32259754 135.91266127 -108.79296875 135.8359375 C-114.030586 135.30240691 -116.97226692 132.30422572 -120.328125 128.55859375 C-123.22888996 124.58040181 -123.63404295 121.70061921 -123.69262695 116.86035156 C-123.70546219 115.93127991 -123.71829742 115.00220825 -123.73152161 114.04498291 C-123.73890854 113.04400574 -123.74629547 112.04302856 -123.75390625 111.01171875 C-123.761978 109.96771912 -123.77004974 108.92371948 -123.77836609 107.8480835 C-123.79219849 105.63230034 -123.80292442 103.41649596 -123.81079102 101.20068359 C-123.82223755 98.96071011 -123.84257089 96.72076228 -123.87231445 94.48095703 C-124.26888108 64.59445561 -116.76414114 40.64657108 -95.953125 18.55859375 C-76.30496839 -0.54878791 -24.16698786 -21.53340585 0 0 Z " fill="#FBFBFC" transform="translate(701.515625,166.44140625)"/>
<path d="M0 0 C6.77548718 3.81866988 8.72582556 9.15242522 10.75 16.3125 C11.34308708 19.13600001 11.67607147 21.94040459 11.9375 24.8125 C12.05484497 26.09217651 12.05484497 26.09217651 12.17456055 27.39770508 C12.89035449 36.67960884 12.99199657 45.98278411 13.04653931 55.28808594 C13.05701615 57.06822859 13.07182785 58.84835208 13.09140015 60.62841797 C13.23620336 75.87358798 12.18075127 91.05929727 7.0625 105.5625 C6.80686279 106.30008545 6.55122559 107.0376709 6.2878418 107.79760742 C0.19916979 124.60451992 -11.07073858 139.41351548 -25.25 150.3125 C-26.24 150.6425 -27.23 150.9725 -28.25 151.3125 C-28.38535156 150.46429688 -28.52070312 149.61609375 -28.66015625 148.7421875 C-30.44637762 139.00888541 -33.38183212 128.82013061 -40.09375 121.2265625 C-41.25 119.3125 -41.25 119.3125 -40.64453125 116.81640625 C-39.26606374 114.34134274 -37.79263809 112.38484849 -35.9375 110.25 C-26.14323959 98.00717448 -24.07735493 82.48271193 -24.1171875 67.2890625 C-24.11623077 66.46223969 -24.11527405 65.63541687 -24.11428833 64.78353882 C-24.11361281 63.04742354 -24.1154229 61.31130563 -24.11962891 59.57519531 C-24.12497228 56.9511127 -24.11966945 54.32720229 -24.11328125 51.703125 C-24.11029367 43.95716129 -24.1764017 36.30386516 -25.00976562 28.59375 C-25.38233399 25.05586502 -25.49563794 21.55776519 -25.5625 18 C-25.59988281 16.68386719 -25.63726563 15.36773437 -25.67578125 14.01171875 C-25.05163681 8.58910603 -22.41615004 4.87164363 -18.1875 1.5 C-12.50636021 -2.73063602 -6.31055216 -2.9252653 0 0 Z " fill="#FBFAFC" transform="translate(747.25,212.6875)"/>
<path d="M0 0 C3.23872284 2.71148889 5.79118119 5.45736239 7.6875 9.25 C7.80267484 10.79334967 7.85696618 12.34145175 7.88037109 13.88891602 C7.89643402 14.85495255 7.91249695 15.82098907 7.92904663 16.81629944 C7.97386833 21.296389 8.01468071 25.77632904 8.03759766 30.2565918 C8.05401186 32.60044382 8.08110409 34.94424892 8.11962891 37.2878418 C8.37212917 52.74195602 8.18365669 67.31763881 0.6875 81.25 C0.0483667 81.22905273 -0.5907666 81.20810547 -1.24926758 81.18652344 C-17.822205 80.29277362 -17.822205 80.29277362 -33.3125 85.25 C-34.1890625 85.72050781 -35.065625 86.19101562 -35.96875 86.67578125 C-48.54329797 93.83217841 -55.32522532 103.28217006 -61.3125 116.25 C-64.73944874 111.10957689 -65.9503929 106.41629802 -65.3125 100.25 C-62.49608398 91.23033856 -55.25072214 86.58545124 -47.8125 81.4375 C-38.44440999 74.69039916 -31.18465155 65.12791779 -28.7644043 53.65087891 C-28.20967038 49.47613905 -28.17715092 45.40120094 -28.171875 41.1953125 C-28.1535506 39.42837249 -28.13398062 37.66144503 -28.11328125 35.89453125 C-28.08433726 33.1340597 -28.06249989 30.3744027 -28.06201172 27.61376953 C-28.05865998 24.93189791 -28.02402372 22.25186261 -27.984375 19.5703125 C-27.9914447 18.75547394 -27.9985144 17.94063538 -28.00579834 17.10110474 C-27.87880056 11.05998381 -26.16657689 6.92366739 -22.3125 2.25 C-15.27203986 -3.35363154 -8.0399439 -4.24751753 0 0 Z " fill="#FBFAFC" transform="translate(678.3125,233.75)"/>
<path d="M0 0 C1.25215302 -0.01429802 1.25215302 -0.01429802 2.52960205 -0.02888489 C3.42443298 -0.02797348 4.31926392 -0.02706207 5.24121094 -0.02612305 C6.17100769 -0.03040817 7.10080444 -0.0346933 8.05877686 -0.03910828 C10.02566719 -0.04484719 11.99257874 -0.04535507 13.95947266 -0.04101562 C16.95089551 -0.03786778 19.94131742 -0.06127814 22.93261719 -0.08666992 C24.84798053 -0.08894434 26.76334652 -0.08964575 28.67871094 -0.08862305 C29.56544495 -0.09783279 30.45217896 -0.10704254 31.36578369 -0.11653137 C39.23977726 -0.05865225 45.8940098 1.60969853 51.72558594 7.2746582 C55.61279831 11.85601564 55.83967872 17.47222509 55.72558594 23.2746582 C54.79527422 29.05446719 52.0982734 32.40383146 47.63964844 36.0480957 C42.0804146 39.61054351 37.02512563 39.58166683 30.60449219 39.57543945 C29.62697495 39.57972458 28.6494577 39.5840097 27.64231873 39.58842468 C25.57885511 39.59415724 23.5153713 39.59467617 21.4519043 39.59033203 C18.302545 39.58717271 15.15412604 39.61064278 12.00488281 39.63598633 C9.99642045 39.63825956 7.98795557 39.63896271 5.97949219 39.63793945 C5.0418251 39.6471492 4.10415802 39.65635895 3.13807678 39.66584778 C-3.57254143 39.6185821 -7.81032801 38.45222262 -12.96191406 33.8996582 C-18.07922277 28.09082129 -18.82021644 24.01386284 -18.62207031 16.37231445 C-18.00241286 10.85109693 -15.25408468 8.03969723 -11.27441406 4.5246582 C-7.44409459 1.6519186 -4.82182121 0.03039633 0 0 Z " fill="#FCFCFC" transform="translate(340.2744140625,355.725341796875)"/>
<path d="M0 0 C0.83484421 -0.01283524 1.66968842 -0.02567047 2.52983093 -0.03889465 C3.87981926 -0.04997505 3.87981926 -0.04997505 5.25708008 -0.0612793 C6.18829178 -0.06935104 7.11950348 -0.07742279 8.07893372 -0.08573914 C10.05178979 -0.09957169 12.02466971 -0.11029755 13.99755859 -0.11816406 C16.99794647 -0.13533401 19.99721992 -0.17922246 22.99731445 -0.22338867 C24.91722825 -0.23351991 26.8371514 -0.24203466 28.75708008 -0.2487793 C29.64695114 -0.26628738 30.5368222 -0.28379547 31.45365906 -0.30183411 C38.36413528 -0.27806624 43.66291444 1.37447529 48.89770508 5.9934082 C49.35274414 6.56961914 49.8077832 7.14583008 50.27661133 7.73950195 C50.74969727 8.31829102 51.2227832 8.89708008 51.71020508 9.4934082 C54.97361857 14.36029823 54.46280829 20.58499172 53.83911133 26.17700195 C51.71803924 31.85452681 48.18752463 35.33210126 42.83911133 38.17700195 C40.03529733 39.03520621 37.49004387 39.31460238 34.56469727 39.35400391 C33.72992859 39.36683914 32.89515991 39.37967438 32.03509521 39.39289856 C31.14026428 39.40028549 30.24543335 39.40767242 29.32348633 39.4152832 C28.39368958 39.42335495 27.46389282 39.4314267 26.50592041 39.43974304 C24.53904064 39.45355963 22.57213714 39.4642926 20.60522461 39.47216797 C18.60157202 39.48368321 16.59794999 39.50412776 14.59448242 39.53369141 C11.69143942 39.57651691 8.78930663 39.59255804 5.88598633 39.6027832 C4.99925232 39.62029129 4.11251831 39.63779938 3.19891357 39.65583801 C-3.6932779 39.63204274 -9.22753689 38.07695694 -14.21948242 33.1418457 C-14.67452148 32.47282227 -15.12956055 31.80379883 -15.59838867 31.11450195 C-16.07147461 30.44290039 -16.54456055 29.77129883 -17.03198242 29.0793457 C-19.67274518 24.62934064 -19.72299581 20.19523383 -19.16088867 15.17700195 C-17.261036 8.49726516 -13.01742568 4.65244178 -7.16088867 1.17700195 C-4.44655584 0.27222434 -2.79610622 0.03754671 0 0 Z " fill="#FCFCFC" transform="translate(119.160888671875,355.822998046875)"/>
<path d="M0 0 C0.79472717 -0.00960754 1.58945435 -0.01921509 2.40826416 -0.02911377 C3.25934753 -0.03336365 4.11043091 -0.03761353 4.98730469 -0.04199219 C5.87270935 -0.04769226 6.75811401 -0.05339233 7.67034912 -0.05926514 C9.54307872 -0.0687011 11.41582482 -0.07524354 13.28857422 -0.07910156 C16.13506534 -0.08878515 18.98082731 -0.11981261 21.82714844 -0.15136719 C23.65136292 -0.15790013 25.47558255 -0.16314946 27.29980469 -0.16699219 C28.14279114 -0.17933899 28.98577759 -0.19168579 29.85430908 -0.20440674 C36.32792221 -0.18034246 42.0906309 0.76319079 47.18652344 5.09863281 C47.734375 5.77925781 48.28222656 6.45988281 48.84667969 7.16113281 C49.41257812 7.84175781 49.97847656 8.52238281 50.56152344 9.22363281 C53.87043781 13.98079667 53.34740327 19.60764484 52.90917969 25.16113281 C50.91221096 30.83672813 47.42511092 34.55722059 42.37548828 37.77636719 C37.75406154 39.6225943 33.69376985 39.62881243 28.76074219 39.62988281 C27.78938324 39.63749634 26.81802429 39.64510986 25.81723022 39.6529541 C23.7681535 39.66372973 21.71902197 39.66661855 19.66992188 39.66210938 C16.55081631 39.66113799 13.43417996 39.70276988 10.31542969 39.74707031 C8.31803895 39.75227868 6.32063972 39.75496548 4.32324219 39.75488281 C3.39903473 39.77127808 2.47482727 39.78767334 1.52261353 39.80456543 C-4.90705996 39.73665023 -9.08997082 38.23722137 -14.09082031 34.16113281 C-19.13585663 28.85056827 -20.6377944 23.94654466 -20.46582031 16.72363281 C-19.60179554 10.81946351 -16.19024028 6.74016727 -11.52832031 3.22363281 C-7.85870439 0.72354806 -4.40086551 0.04321448 0 0 Z " fill="#FCFCFC" transform="translate(231.0908203125,355.8388671875)"/>
<path d="M0 0 C0.99546844 -0.00145523 1.99093689 -0.00291046 3.01657104 -0.00440979 C5.10922184 -0.00275799 7.20188571 0.00872205 9.29443359 0.02954102 C12.48978375 0.05857191 15.68347994 0.05011887 18.87890625 0.03710938 C20.91927886 0.04334547 22.95964626 0.05173539 25 0.0625 C26.42519455 0.05809654 26.42519455 0.05809654 27.87918091 0.05360413 C34.17601846 0.14287648 38.63893911 1.00330394 43.44921875 5.3984375 C44.02027344 6.07003906 44.59132813 6.74164063 45.1796875 7.43359375 C45.76363281 8.10261719 46.34757812 8.77164062 46.94921875 9.4609375 C49.77743924 13.52017407 49.69027736 17.64974581 49.3671875 22.49609375 C47.76303473 29.14006505 44.67557329 32.80223337 39.39038086 37.10571289 C34.79332668 39.21991975 30.37358617 38.94398433 25.37109375 38.9296875 C24.30479233 38.93492935 23.23849091 38.9401712 22.13987732 38.9455719 C19.88810089 38.95198634 17.63629092 38.95066262 15.38452148 38.94213867 C11.94519175 38.9336321 8.50752499 38.96239448 5.06835938 38.99414062 C2.87760466 38.99575288 0.68684702 38.99517464 -1.50390625 38.9921875 C-3.04164955 39.00903847 -3.04164955 39.00903847 -4.61045837 39.02622986 C-11.66368336 38.95762323 -15.21280592 37.89172974 -20.27734375 32.86328125 C-25.43906377 26.26870918 -25.57130068 20.8058143 -24.6328125 12.49609375 C-22.27874138 6.79767805 -18.38343988 3.9995407 -12.9977417 1.36193848 C-8.7324611 -0.19966037 -4.49554013 -0.05338104 0 0 Z " fill="#FCFCFC" transform="translate(346.6328125,430.50390625)"/>
<path d="M0 0 C0.9213826 -0.00960754 1.8427652 -0.01921509 2.79206848 -0.02911377 C3.78582993 -0.03336365 4.77959137 -0.03761353 5.8034668 -0.04199219 C6.82820602 -0.04769226 7.85294525 -0.05339233 8.90873718 -0.05926514 C11.07830778 -0.06871433 13.24789272 -0.0752488 15.41748047 -0.07910156 C18.7293415 -0.08879884 22.04057977 -0.11982 25.35229492 -0.15136719 C27.4610152 -0.15789825 29.56973991 -0.16314831 31.6784668 -0.16699219 C32.66615555 -0.17933899 33.6538443 -0.19168579 34.67146301 -0.20440674 C40.91558222 -0.18427521 45.41053015 0.48752666 50.26831055 4.77441406 C54.69072298 10.05943991 56.72518247 14.12810864 56.31518555 21.16113281 C55.52014358 27.25645455 52.94670156 30.97290237 48.37768555 34.97363281 C44.75192928 37.67366408 42.30705752 38.2837182 37.91210938 38.35400391 C36.99718216 38.37006683 36.08225494 38.38612976 35.13960266 38.40267944 C30.95066189 38.4473224 26.76187728 38.48820818 22.57275391 38.51123047 C20.36821925 38.52776569 18.16373767 38.5550233 15.95947266 38.59326172 C12.77177267 38.64824267 9.58532816 38.66993898 6.3972168 38.68457031 C5.41985062 38.70723969 4.44248444 38.72990906 3.4355011 38.75326538 C-3.174279 38.73302432 -7.41699293 37.36682655 -12.55981445 33.16113281 C-16.53152979 29.01233463 -18.37735525 24.08665718 -18.6809082 18.38769531 C-18.34202774 12.15666753 -16.16188151 8.38498626 -11.55981445 4.22363281 C-7.77137227 1.07377274 -4.90960218 0.04137639 0 0 Z " fill="#FCFCFC" transform="translate(339.559814453125,504.8388671875)"/>
<path d="M0 0 C1.01953766 -0.00524185 2.03907532 -0.0104837 3.08950806 -0.0158844 C5.24293102 -0.02229811 7.39638905 -0.02097605 9.54980469 -0.01245117 C12.83332215 -0.00395346 16.11509231 -0.03269311 19.3984375 -0.06445312 C21.49479115 -0.06606566 23.59114786 -0.06548661 25.6875 -0.0625 C26.66375336 -0.07373398 27.64000671 -0.08496796 28.64584351 -0.09654236 C34.80017968 -0.03408102 38.44277923 0.8318279 43.4765625 4.43359375 C48.80536816 10.19446474 49.99165048 14.63915489 49.859375 22.38671875 C49.11437144 28.31633889 46.1226865 31.90505003 41.8515625 35.87109375 C38.47734602 38.09097301 35.8634215 38.56264173 31.91674805 38.6105957 C30.53467415 38.62984856 30.53467415 38.62984856 29.12467957 38.64949036 C27.6340374 38.66057076 27.6340374 38.66057076 26.11328125 38.671875 C25.08854202 38.67994675 24.0638028 38.68801849 23.00801086 38.69633484 C20.83844695 38.71016817 18.66886134 38.72089368 16.49926758 38.72875977 C13.18724191 38.74597328 9.87621431 38.78986699 6.56445312 38.83398438 C4.4557365 38.8441115 2.3470114 38.85262754 0.23828125 38.859375 C-0.7494075 38.87688309 -1.73709625 38.89439117 -2.75471497 38.91242981 C-9.88254196 38.89002751 -13.20569101 37.60527593 -18.38671875 32.65234375 C-18.86496094 32.08515625 -19.34320313 31.51796875 -19.8359375 30.93359375 C-20.32707031 30.36640625 -20.81820312 29.79921875 -21.32421875 29.21484375 C-24.07505218 25.12891527 -24.01551916 20.21125927 -23.5234375 15.43359375 C-21.53330792 9.2537177 -18.50095843 5.82814666 -13.51708984 1.82006836 C-9.05872718 -0.24476948 -4.8577498 -0.01454715 0 0 Z " fill="#FCFCFC" transform="translate(234.5234375,504.56640625)"/>
<path d="M0 0 C0.98931015 -0.00099701 1.9786203 -0.00199402 2.99790955 -0.00302124 C5.07624402 0.00163234 7.15459273 0.0209242 9.23266602 0.05419922 C12.39768093 0.10149283 15.55932926 0.09529051 18.72460938 0.08203125 C20.75392615 0.09318426 22.78322887 0.1074037 24.8125 0.125 C26.21750511 0.12226578 26.21750511 0.12226578 27.65089417 0.11947632 C34.67993515 0.26982037 40.19516145 1.81655799 45.43359375 6.6640625 C49.65690194 12.85824785 50.66187109 18.31917269 49.33984375 25.7265625 C47.31083055 31.34109218 43.70954295 34.67425871 38.67965698 37.69204712 C34.42178614 39.57460459 30.18614101 39.45924213 25.59375 39.42578125 C24.58320053 39.43293655 23.57265106 39.44009186 22.53147888 39.44746399 C20.40437699 39.45521301 18.27719504 39.45028856 16.15014648 39.43334961 C12.91431048 39.41413356 9.68277945 39.45354289 6.44726562 39.49804688 C4.37109122 39.4983373 2.29491291 39.49519563 0.21875 39.48828125 C-0.73776962 39.50356369 -1.69428925 39.51884613 -2.67979431 39.53459167 C-9.70229792 39.41414005 -14.41377494 37.44559877 -19.66015625 32.7265625 C-23.31314147 27.91313869 -24.33517575 23.1845236 -24.03125 17.1796875 C-23.27296881 12.16704975 -21.62964514 8.49201897 -17.81593323 5.07339478 C-11.81633879 0.78708803 -7.28888045 -0.14364531 0 0 Z " fill="#FCFCFC" transform="translate(234.66015625,430.2734375)"/>
<path d="M0 0 C0.87488571 -0.01283524 1.74977142 -0.02567047 2.65116882 -0.03889465 C3.5949086 -0.04628159 4.53864838 -0.05366852 5.51098633 -0.0612793 C6.48659012 -0.06935104 7.46219391 -0.07742279 8.46736145 -0.08573914 C10.53437527 -0.09957335 12.60141188 -0.11029847 14.66845703 -0.11816406 C17.81367965 -0.13533785 20.95784031 -0.17922575 24.1027832 -0.22338867 C26.1138432 -0.23351948 28.12491212 -0.24203437 30.13598633 -0.2487793 C31.06960495 -0.26628738 32.00322357 -0.28379547 32.96513367 -0.30183411 C39.02614424 -0.28192509 43.60212679 0.7158088 48.65551758 4.17700195 C54.13796201 9.94799609 55.06811665 14.46968867 54.89770508 22.27075195 C54.42897831 27.8954732 52.22103666 30.83655141 48.15551758 34.48950195 C44.58769834 37.47050881 41.7119684 38.29791407 37.09570312 38.35400391 C35.71362923 38.37325676 35.71362923 38.37325676 34.30363464 38.39289856 C32.81299248 38.40397896 32.81299248 38.40397896 31.29223633 38.4152832 C30.2674971 38.42335495 29.24275787 38.4314267 28.18696594 38.43974304 C26.01740203 38.45357638 23.84781641 38.46430189 21.67822266 38.47216797 C18.36619699 38.48938148 15.05516939 38.5332752 11.7434082 38.57739258 C9.63469158 38.58751971 7.52596648 38.59603575 5.41723633 38.6027832 C4.42954758 38.62029129 3.44185883 38.63779938 2.42424011 38.65583801 C-3.36628454 38.63763876 -6.78300667 38.10663512 -11.34448242 34.17700195 C-15.98239236 29.32827793 -17.98170258 25.4420205 -18.71948242 18.80200195 C-17.96106746 11.47065734 -14.64468653 6.89676789 -9.02807617 2.3059082 C-6.0739007 0.32503416 -3.45164437 0.04420692 0 0 Z " fill="#FCFCFC" transform="translate(118.344482421875,430.822998046875)"/>
<path d="M0 0 C0.89490646 -0.01606293 1.78981293 -0.03212585 2.71183777 -0.04867554 C6.80918481 -0.09333152 10.90637238 -0.13420496 15.00390625 -0.15722656 C17.15994073 -0.17376032 19.31592098 -0.20101602 21.47167969 -0.23925781 C24.58988716 -0.29425265 27.70681116 -0.31593709 30.82543945 -0.33056641 C31.78093185 -0.35323578 32.73642426 -0.37590515 33.72087097 -0.39926147 C40.20884275 -0.37895663 44.58510325 0.93828265 49.5637207 5.19287109 C54.38729072 10.52354342 55.25604863 15.29416834 54.9152832 22.42333984 C54.26294249 27.56233499 52.4394612 30.59301172 48.6262207 33.94287109 C44.63579673 36.87461116 41.99370283 38.43170093 37.01391602 38.49926758 C35.67166962 38.52324867 35.67166962 38.52324867 34.30230713 38.54771423 C33.34185486 38.55307693 32.38140259 38.55843964 31.3918457 38.56396484 C29.89726837 38.57750755 29.89726837 38.57750755 28.37249756 38.59132385 C26.26439414 38.60582405 24.15624575 38.61471251 22.0480957 38.6184082 C18.83897995 38.63027767 15.63180424 38.6794438 12.4230957 38.72998047 C10.37102171 38.73944834 8.31893596 38.74668163 6.2668457 38.75146484 C4.83831268 38.78076332 4.83831268 38.78076332 3.38092041 38.81065369 C-3.1466805 38.76693399 -7.36091603 37.34049068 -12.4362793 33.19287109 C-16.63589489 28.8827393 -18.15184379 24.75279069 -18.8112793 18.81787109 C-18.05286434 11.48652648 -14.7364834 6.91263703 -9.11987305 2.32177734 C-6.13941931 0.32328284 -3.48221352 0.05694693 0 0 Z " fill="#FCFCFC" transform="translate(118.436279296875,504.80712890625)"/>
<path d="M0 0 C0 3 0 3 -1.96875 5.26171875 C-2.8040625 6.06222656 -3.639375 6.86273438 -4.5 7.6875 C-5.3353125 8.49574219 -6.170625 9.30398437 -7.03125 10.13671875 C-7.6809375 10.75160156 -8.330625 11.36648437 -9 12 C-9.66 11.67 -10.32 11.34 -11 11 C-9.73347137 9.53792657 -8.46161082 8.08047074 -7.1875 6.625 C-6.47980469 5.81289062 -5.77210938 5.00078125 -5.04296875 4.1640625 C-3 2 -3 2 0 0 Z " fill="#B7BFC0" transform="translate(207,229)"/>
<path d="M0 0 C0 3.58912412 -0.66436554 4.10857029 -3 6.6875 C-3.556875 7.31011719 -4.11375 7.93273437 -4.6875 8.57421875 C-5.120625 9.04472656 -5.55375 9.51523437 -6 10 C-6.33 9.01 -6.66 8.02 -7 7 C-4.69 4.69 -2.38 2.38 0 0 Z " fill="#483DFE" transform="translate(735,350)"/>
</svg>
