<?xml version="1.0" encoding="UTF-8"?>
<svg version="1.1" xmlns="http://www.w3.org/2000/svg" width="512" height="512">
<path d="M0 0 C2.28703566 0.20436126 4.57413699 0.40798867 6.86129761 0.61094666 C13.0144535 1.15913855 19.1666187 1.71777624 25.31862974 2.27865171 C31.78488175 2.86657421 38.25194453 3.44544844 44.71890259 4.02554321 C55.56768533 5.00003529 66.41586794 5.98098393 77.26367188 6.96630859 C88.39398774 7.97728759 99.52481537 8.98237038 110.65625 9.98095703 C111.68617247 10.07335118 111.68617247 10.07335118 112.73690145 10.16761188 C113.4224055 10.22910784 114.10790955 10.29060379 114.81418645 10.35396326 C128.18756399 11.55372456 141.56035912 12.75986755 154.93299532 13.96786547 C158.76833741 14.31390854 162.60378187 14.65879688 166.43925095 15.00342941 C172.47588684 15.54616998 178.51212369 16.09315958 184.54808426 16.64335823 C186.75494024 16.84389135 188.96192101 17.04305693 191.16903687 17.2407093 C224.4337791 20.22242171 224.4337791 20.22242171 230.97119141 27.36181641 C231.58225235 27.98369843 232.19331329 28.60558044 232.82289124 29.24630737 C234.74485374 31.21599898 236.62455725 33.22098551 238.50634766 35.22900391 C239.79096897 36.55173733 241.07806507 37.87207197 242.36767578 39.18994141 C259.91582492 57.29659279 259.91582492 57.29659279 259.7494812 70.87658691 C259.45746008 82.01554512 258.22210824 93.12390508 257.19775391 104.21337891 C256.95225712 106.91608437 256.70873353 109.61896687 256.46507263 112.32183838 C255.95626094 117.95345328 255.44201696 123.58455012 254.92407227 129.21533203 C254.32597126 135.71792101 253.73515192 142.22113901 253.14844757 148.72476554 C252.52094678 155.68010958 251.88861832 162.63500818 251.25464129 169.5897646 C251.07304366 171.58519504 250.89230155 173.58070148 250.71173286 175.57622528 C250.37509431 179.28598427 250.03425634 182.99533266 249.69213867 186.70458984 C249.59287582 187.80586212 249.49361298 188.9071344 249.39134216 190.04177856 C249.25044662 191.5551329 249.25044662 191.5551329 249.10670471 193.09906006 C249.02650872 193.97426174 248.94631273 194.84946342 248.86368656 195.75118637 C248.58960273 197.93837821 248.15551778 199.98166544 247.56884766 202.10400391 C248.47594482 202.08043823 248.47594482 202.08043823 249.40136719 202.05639648 C252.16543061 201.99368511 254.92934386 201.95489979 257.69384766 201.91650391 C258.64517578 201.89136719 259.59650391 201.86623047 260.57666016 201.84033203 C267.14228101 201.77194015 271.51628602 202.42427423 276.61572266 206.90087891 C277.17775391 207.54541016 277.73978516 208.18994141 278.31884766 208.85400391 C278.89119141 209.48822266 279.46353516 210.12244141 280.05322266 210.77587891 C283.81149423 216.54889401 283.84405724 222.6498008 283.76074219 229.30883789 C283.75793747 230.2040918 283.75513275 231.0993457 283.75224304 232.02172852 C283.74577121 233.9554406 283.73521396 235.88914249 283.7209816 237.82281303 C283.70141852 240.88795752 283.6993255 243.95263715 283.70285034 247.01783752 C283.71251547 255.72915092 283.71288542 264.44000459 283.64794922 273.15112305 C283.60942715 278.48933987 283.609865 283.82635103 283.63552475 289.16462898 C283.63793388 291.19275437 283.6259147 293.22095201 283.5989418 295.24889946 C283.06624606 306.05339204 283.06624606 306.05339204 286.32415771 316.02859497 C288.37343397 318.16973431 288.37343397 318.16973431 290.60739136 319.69129944 C293.88702777 322.05339999 295.34796324 325.32689273 296.56884766 329.10400391 C297.59970518 336.32000658 294.43968418 341.29774912 290.56884766 347.10400391 C291.20749969 349.3766396 291.20749969 349.3766396 292.44384766 351.66650391 C294.56884766 355.95168603 294.56884766 355.95168603 294.56884766 358.10400391 C295.52984375 358.10787109 295.52984375 358.10787109 296.51025391 358.11181641 C302.40483227 358.3753594 305.82104039 359.34398765 310.19384766 363.33837891 C313.69949133 367.83994408 313.8765984 372.52449692 313.86962891 378.03759766 C313.87391403 378.79315445 313.87819916 379.54871124 313.88261414 380.3271637 C313.88833842 381.91984051 313.88887175 383.51254345 313.88452148 385.10522461 C313.88136211 387.5304054 313.90484075 389.95436437 313.93017578 392.37939453 C313.93244918 393.93212738 313.93315208 395.48486348 313.93212891 397.03759766 C313.94133865 397.75652695 313.9505484 398.47545624 313.96003723 399.21617126 C313.91101195 404.60082744 312.73861874 408.72516634 309.06884766 412.74853516 C304.02106625 416.67896912 300.90183239 417.22349418 294.56884766 417.10400391 C291.67730727 423.98500741 291.67730727 423.98500741 292.56884766 431.10400391 C293.25284403 432.39752931 293.94071864 433.68900756 294.63134766 434.97900391 C296.63498227 438.89820129 297.20514424 441.6499278 296.56884766 446.10400391 C293.53841891 453.76378929 288.52606843 458.71472963 282.69384766 464.41650391 C281.80826172 465.30917969 280.92267578 466.20185547 280.01025391 467.12158203 C269.52905717 477.50124706 269.52905717 477.50124706 261.69384766 477.60400391 C257.72858884 477.52695104 255.67071807 476.77241242 252.50634766 474.41650391 C250.07617649 472.64820863 249.19900733 472.01545206 246.17822266 472.43994141 C243.76765502 473.25130585 243.76765502 473.25130585 241.54931641 474.27197266 C239.56884766 475.10400391 239.56884766 475.10400391 236.56884766 475.10400391 C236.54306641 475.68408203 236.51728516 476.26416016 236.49072266 476.86181641 C236.09380012 482.32852231 235.25449839 485.82068007 231.56884766 490.10400391 C226.61940538 494.15776652 223.05305122 494.70951769 216.91650391 494.67041016 C216.0981456 494.67660873 215.27978729 494.68280731 214.43663025 494.68919373 C212.71289249 494.69626955 210.98908608 494.69315706 209.26538086 494.68041992 C206.641937 494.66655985 204.02206859 494.70064603 201.39892578 494.73876953 C199.71728429 494.73972095 198.03563838 494.73786067 196.35400391 494.73291016 C195.57775162 494.74616837 194.80149933 494.75942657 194.00172424 494.77308655 C188.31486082 494.67688639 184.68435846 493.06402864 180.56884766 489.10400391 C178.30809416 485.63751521 177.58701016 483.63071642 177.44384766 479.47900391 C176.94351256 476.06130388 176.94351256 476.06130388 174.65087891 474.73681641 C170.21801458 472.56957644 170.21801458 472.56957644 165.40478516 472.41650391 C163.11650333 473.27339242 161.49383585 474.61369046 159.56884766 476.10400391 C156.85675923 477.00803338 155.06492016 477.29579515 152.25634766 477.35400391 C151.51771484 477.37978516 150.77908203 477.40556641 150.01806641 477.43212891 C145.10638218 476.77410423 141.76934422 474.60294611 138.71185493 470.80652237 C134.2255512 465.2366245 129.96192799 460.19033808 122.66070175 458.81407928 C116.7969254 458.18416928 110.94342408 458.32630103 105.05664062 458.45458984 C102.80804961 458.45194618 100.55945872 458.44310213 98.31091309 458.42857361 C92.2394918 458.40647396 86.17165759 458.46977444 80.10082006 458.54842281 C73.72968819 458.61559431 67.35874366 458.60136185 60.98733521 458.59552002 C50.29273342 458.5962523 39.59943986 458.64417862 28.90527344 458.73046875 C17.92740455 458.81888886 6.94987464 458.88370736 -4.02832031 458.91308594 C-4.70486633 458.91490788 -5.38141234 458.91672982 -6.07845975 458.91860697 C-13.47610222 458.9380284 -20.87375302 458.95289209 -28.27140617 458.96759415 C-30.88795865 458.97298521 -33.50451101 458.97843592 -36.12106323 458.98394775 C-38.03811516 458.98784905 -38.03811516 458.98784905 -39.99389541 458.99182916 C-47.56585046 459.00951133 -55.13743744 459.04563688 -62.70922494 459.09884501 C-67.42533727 459.13126037 -72.1414748 459.1562984 -76.8576355 459.18051338 C-79.03603524 459.19374756 -81.21441672 459.21057994 -83.39275742 459.23137474 C-119.64933695 459.57485353 -119.64933695 459.57485353 -132.74365234 447.13525391 C-139.02425793 439.5752657 -140.5813904 431.81708973 -140.57159424 422.27334595 C-140.57456536 421.37169657 -140.57753648 420.47004719 -140.58059764 419.54107511 C-140.58928401 416.51337666 -140.59079283 413.48571775 -140.59228516 410.45800781 C-140.59691331 408.28983984 -140.60193796 406.12167268 -140.60733032 403.95350647 C-140.62045508 398.05890067 -140.62689923 392.16430626 -140.63134098 386.26968813 C-140.63427109 382.58842471 -140.63837574 378.90716441 -140.64284515 375.22590256 C-140.6565192 363.71210864 -140.66618677 352.19832184 -140.67004704 340.68452036 C-140.67453017 327.38558241 -140.69209024 314.08679188 -140.72104764 300.78788245 C-140.7426462 290.51263169 -140.75275032 280.23740985 -140.75408816 269.96213663 C-140.75513734 263.82285834 -140.76106931 257.68367657 -140.77890778 251.54442215 C-140.79535721 245.77096181 -140.79755913 239.99767087 -140.78876877 234.22419548 C-140.78799676 232.10458231 -140.79236252 229.98496015 -140.80222702 227.8653698 C-140.81489962 224.97292001 -140.80909513 222.08107447 -140.79864502 219.18862915 C-140.80670142 218.3489351 -140.81475783 217.50924106 -140.82305837 216.64410174 C-140.77436327 210.88545658 -139.75145814 206.61942633 -135.71240234 202.24072266 C-135.12458984 201.76248047 -134.53677734 201.28423828 -133.93115234 200.79150391 C-133.34333984 200.30037109 -132.75552734 199.80923828 -132.14990234 199.30322266 C-128.90777582 197.04110256 -126.04779603 196.98139905 -122.2253418 196.99047852 C-121.16446854 196.99055405 -120.10359528 196.99062958 -119.01057434 196.9907074 C-117.86674789 196.99586868 -116.72292145 197.00102997 -115.54443359 197.00634766 C-113.78621529 197.00847008 -113.78621529 197.00847008 -111.99247742 197.01063538 C-108.24284327 197.01624002 -104.49326849 197.02879334 -100.74365234 197.04150391 C-98.20393966 197.04651831 -95.66422605 197.05108132 -93.12451172 197.05517578 C-86.89337162 197.06621097 -80.66226622 197.08295365 -74.43115234 197.10400391 C-74.39481186 196.21643906 -74.35847137 195.32887421 -74.32102966 194.41441345 C-73.57632713 178.2869459 -72.01309405 162.21643165 -70.56861424 146.14022183 C-70.26188914 142.72313321 -69.95694847 139.30588617 -69.65194315 135.88864368 C-68.93218154 127.82548986 -68.20915934 119.76263297 -67.48413086 111.69995117 C-66.73906492 103.41370271 -65.9999832 95.12693535 -65.26373011 86.8398996 C-64.62782004 79.68495731 -63.98799749 72.53037197 -63.34512037 65.37605232 C-62.96273198 61.12004173 -62.5818245 56.86391231 -62.20479012 52.60742378 C-61.85058322 48.61038056 -61.49146454 44.61380757 -61.12869453 40.61753273 C-60.99716521 39.1597054 -60.86731627 37.70172522 -60.73936081 36.24357986 C-58.37497514 9.34240598 -58.37497514 9.34240598 -50.65380859 2.53759766 C-37.90211292 -6.92507714 -14.90110386 -1.37263284 0 0 Z M-40.03517818 16.15918159 C-42.11773797 19.06053096 -42.17013809 22.10998688 -42.45465088 25.56974792 C-42.52792524 26.33015983 -42.6011996 27.09057173 -42.67669439 27.87402642 C-42.91788766 30.41084786 -43.13981841 32.94898115 -43.36181641 35.48754883 C-43.52945767 37.29262286 -43.69828545 39.09758705 -43.86822891 40.90244579 C-44.3148726 45.67981038 -44.74546883 50.45849378 -45.17295265 55.23760557 C-45.58413192 59.80230336 -46.01094136 64.36552451 -46.43688965 68.92886353 C-47.39906371 79.27166749 -48.33688803 89.61660834 -49.26952267 99.96211267 C-49.54520604 103.01916724 -49.82140468 106.07617486 -50.09775543 109.13316917 C-51.06595398 119.84420737 -52.03199302 130.55543792 -52.99609375 141.2668457 C-53.88944402 151.19145773 -54.78802479 161.11558745 -55.68884063 171.03952438 C-56.46947366 179.64224132 -57.24632086 188.24529484 -58.02027345 196.84861535 C-58.47954886 201.95314273 -58.94034749 207.05752089 -59.4050827 212.16155434 C-59.83956227 216.93454679 -60.2693147 221.70794196 -60.69550133 226.48168182 C-60.85181836 228.22364978 -61.00979134 229.9654701 -61.16960335 231.7071209 C-61.38854703 234.09609394 -61.60132402 236.48554397 -61.81268311 238.87519836 C-61.87610075 239.55126155 -61.93951839 240.22732473 -62.00485778 240.92387468 C-62.50586334 246.71156685 -62.43115234 252.220576 -62.43115234 258.10400391 C-13.92115234 258.10400391 34.58884766 258.10400391 84.56884766 258.10400391 C89.51884766 249.19400391 94.46884766 240.28400391 99.56884766 231.10400391 C113.56740508 206.01225003 113.56740508 206.01225003 120.56884766 203.10400391 C122.77894974 202.84229088 122.77894974 202.84229088 125.22589111 202.82553101 C126.15694672 202.81436752 127.08800232 202.80320404 128.04727173 202.79170227 C129.56857193 202.78846199 129.56857193 202.78846199 131.12060547 202.78515625 C132.19408234 202.77511063 133.2675592 202.765065 134.37356567 202.75471497 C137.9230292 202.7238155 141.47241707 202.70682883 145.02197266 202.68994141 C147.48248956 202.67123523 149.94300002 202.65166223 152.40350342 202.6312561 C158.88073935 202.57987095 165.3579961 202.54027928 171.83532715 202.50311279 C178.44446997 202.46311323 185.05352573 202.41200242 191.66259766 202.36181641 C204.63128546 202.26498149 217.60002315 202.18022359 230.56884766 202.10400391 C232.33292483 189.02431675 233.56336073 175.91616397 234.73291016 162.77197266 C234.93162911 160.55998424 235.1305566 158.34801454 235.3296814 156.13606262 C235.74315535 151.53658009 236.15478696 146.93693791 236.56494141 142.3371582 C237.09113329 136.43669486 237.62100718 130.53656933 238.15210915 124.63654613 C238.56153133 120.08573545 238.96955116 115.53479996 239.37708664 110.98381996 C239.57214204 108.80643195 239.76751649 106.62907249 239.96321487 104.45174217 C240.23496836 101.4247343 240.5049566 98.39757433 240.77441406 95.37036133 C240.85542862 94.47121002 240.93644318 93.57205872 241.01991272 92.6456604 C241.09274979 91.82324356 241.16558685 91.00082672 241.2406311 90.15348816 C241.30440256 89.43960025 241.36817402 88.72571234 241.43387794 87.99019146 C241.55017184 86.36499652 241.56884766 84.73335434 241.56884766 83.10400391 C240.44913574 83.0037793 239.32942383 82.90355469 238.17578125 82.80029297 C234.00317002 82.42225794 229.83295581 82.02182103 225.66308594 81.61474609 C223.86157493 81.44200289 222.05947794 81.27525756 220.25683594 81.11474609 C217.6585264 80.88231863 215.06312193 80.62805726 212.46728516 80.36962891 C211.2669313 80.26935394 211.2669313 80.26935394 210.04232788 80.16705322 C204.91437568 79.62898467 201.67886895 78.44373903 197.56884766 75.10400391 C191.8264167 67.25601493 194.70344778 55.03243908 195.56884766 45.91650391 C195.66423828 44.86914062 195.75962891 43.82177734 195.85791016 42.74267578 C196.09048226 40.19601122 196.32751691 37.64985076 196.56884766 35.10400391 C188.91781758 34.40726195 181.26677358 33.71067315 173.61572266 33.01416016 C171.82212657 32.85087345 171.82212657 32.85087345 169.99229622 32.68428802 C155.27733794 31.34474257 140.56225524 30.00658278 125.84692383 28.67114258 C124.45925352 28.54519934 123.07158332 28.41925489 121.68391323 28.29330921 C120.29031819 28.16682737 118.89672313 28.04034567 117.50312805 27.91386414 C116.46620804 27.81975395 116.46620804 27.81975395 115.40834016 27.72374254 C111.88889031 27.40432377 108.36943798 27.08493233 104.84998131 26.76558876 C88.75091157 25.30472028 72.65232104 23.83889726 56.55485725 22.36041355 C47.2529815 21.50610961 37.95076135 20.65563932 28.64825249 19.8082571 C23.25334814 19.31659295 17.85867351 18.82265344 12.46447754 18.32327271 C7.42651304 17.85688974 2.38804418 17.39639923 -2.65086555 16.94034576 C-4.47239367 16.77443137 -6.29372913 16.60638408 -8.11483574 16.43590546 C-24.68184512 13.6413311 -24.68184512 13.6413311 -40.03517818 16.15918159 Z M212.56884766 37.10400391 C212.20608796 41.41582689 211.85507572 45.72852521 211.50634766 50.04150391 C211.40257812 51.27320313 211.29880859 52.50490234 211.19189453 53.77392578 C211.0984375 54.94375 211.00498047 56.11357422 210.90869141 57.31884766 C210.81966553 58.40286865 210.73063965 59.48688965 210.63891602 60.60375977 C210.61579346 61.42884033 210.5926709 62.2539209 210.56884766 63.10400391 C212.16265834 64.69781459 213.95539378 64.43735748 216.16259766 64.63916016 C217.11134766 64.72617188 218.06009766 64.81318359 219.03759766 64.90283203 C220.03791016 64.98984375 221.03822266 65.07685547 222.06884766 65.16650391 C223.03822266 65.25738281 224.00759766 65.34826172 225.00634766 65.44189453 C230.88696219 65.96751398 236.66536214 66.19548354 242.56884766 66.10400391 C239.24642071 62.10005348 235.8365058 58.32090646 232.13134766 54.66650391 C228.62487333 51.20717545 225.3501343 47.62632641 222.13134766 43.90087891 C220.03163519 41.48620957 217.96323027 39.23234401 215.56884766 37.10400391 C214.57884766 37.10400391 213.58884766 37.10400391 212.56884766 37.10400391 Z M-123.43115234 214.10400391 C-123.52141354 242.03290164 -123.59511167 269.96168145 -123.63840103 297.89068794 C-123.65903443 310.85833072 -123.68717005 323.8258765 -123.73291016 336.79345703 C-123.77275392 348.09476786 -123.79857949 359.39600846 -123.80750632 370.69738758 C-123.81272519 376.68251353 -123.82500792 382.66743854 -123.85407257 388.65250015 C-123.88120259 394.28475752 -123.88960212 399.91673096 -123.88358307 405.54904747 C-123.88468438 407.6170665 -123.89265245 409.68509492 -123.90797424 411.75305748 C-123.92786414 414.57580296 -123.92309498 417.39747525 -123.91217041 420.22024536 C-123.92382178 421.0393222 -123.93547314 421.85839903 -123.94747758 422.70229638 C-123.89233754 427.97021818 -122.87583733 430.89990445 -119.43115234 435.10400391 C-114.21278955 440.04771602 -109.47803826 441.22161535 -102.43115234 441.10400391 C-102.4289525 439.799481 -102.4289525 439.799481 -102.42670822 438.46860409 C-102.38964883 417.30262144 -102.33064556 396.13679904 -102.2472496 374.97094631 C-102.20744842 364.73526689 -102.17506139 354.49966447 -102.16015625 344.26391602 C-102.14714535 335.34193102 -102.120195 326.42011537 -102.07653928 317.49822575 C-102.05391187 312.77457424 -102.03824243 308.05113171 -102.03926849 303.32742119 C-102.04001435 298.87942122 -102.02209361 294.43188345 -101.98998451 289.98400307 C-101.98148029 288.35344425 -101.97973915 286.72283361 -101.98534966 285.09226227 C-101.99200362 282.86085182 -101.97403834 280.63090599 -101.95013428 278.39964294 C-101.94644711 277.15245704 -101.94275993 275.90527113 -101.93896103 274.62029171 C-101.15810806 269.21332671 -98.96996404 265.49268763 -94.86865234 261.79150391 C-90.8373284 259.81249034 -87.14427209 259.13680257 -82.72412109 258.49853516 C-80.47306333 258.33823584 -80.47306333 258.33823584 -79.43115234 257.10400391 C-79.12936555 254.78841073 -78.89046322 252.46458172 -78.67724609 250.13916016 C-78.57948631 249.07815346 -78.57948631 249.07815346 -78.47975159 247.99571228 C-78.34227217 246.49026256 -78.20708333 244.98460222 -78.07397461 243.47875977 C-77.87222108 241.20669358 -77.66104996 238.93565087 -77.44873047 236.66455078 C-77.31599198 235.19780601 -77.18381415 233.73101038 -77.05224609 232.26416016 C-76.98976181 231.59707535 -76.92727753 230.92999054 -76.86289978 230.24269104 C-76.3920959 224.80273094 -76.43115234 219.62680225 -76.43115234 214.10400391 C-91.94115234 214.10400391 -107.45115234 214.10400391 -123.43115234 214.10400391 Z M125.56884766 219.10400391 C123.65290577 222.45292291 121.73764961 225.80223361 119.82250977 229.15161133 C119.28417259 230.09256401 118.74583542 231.03351669 118.191185 232.00298309 C113.53404396 240.14912384 108.95069175 248.3340561 104.39892578 256.53955078 C95.39968884 272.68858331 95.39968884 272.68858331 92.56884766 274.10400391 C90.23800508 274.21081424 87.90403057 274.25073648 85.57077026 274.26222229 C84.84218909 274.26716027 84.11360792 274.27209824 83.36294854 274.27718586 C80.90928577 274.29260563 78.45564926 274.30093355 76.00195312 274.30932617 C74.24798347 274.31890118 72.49401614 274.32891103 70.74005127 274.33932495 C65.96760947 274.36642097 61.19515774 274.38740506 56.42268133 274.40732694 C51.43916851 274.42915757 46.45568649 274.45656053 41.47219849 274.48338318 C32.03038504 274.53334967 22.58855453 274.57827379 13.14670765 274.62140554 C0.39137456 274.67996348 -12.36391805 274.74627155 -25.11921501 274.81215572 C-45.22316688 274.91579228 -65.32715331 275.00904029 -85.43115234 275.10400391 C-85.43115234 330.54400391 -85.43115234 385.98400391 -85.43115234 443.10400391 C-18.44115234 443.10400391 48.54884766 443.10400391 117.56884766 443.10400391 C118.22884766 440.13400391 118.88884766 437.16400391 119.56884766 434.10400391 C120.37322266 433.15525391 121.17759766 432.20650391 122.00634766 431.22900391 C123.88947142 428.25877298 123.88947142 428.25877298 123.02978516 425.36181641 C120.94936336 419.70726818 120.94936336 419.70726818 116.42822266 416.09228516 C114.88920498 415.80699106 113.33900511 415.5768545 111.78369141 415.40087891 C108.24815304 414.92697958 106.20732182 413.428374 103.56884766 411.10400391 C99.97576685 404.14987868 100.07823029 397.60710804 100.12280273 389.91625977 C100.13131473 387.6751722 100.1025003 385.43663753 100.07080078 383.19580078 C100.03279082 375.68938319 100.07130425 369.43711715 104.56884766 363.10400391 C106.46337891 361.51806641 106.46337891 361.51806641 108.38134766 360.72900391 C109.4196875 360.27074219 109.4196875 360.27074219 110.47900391 359.80322266 C112.56884766 359.10400391 112.56884766 359.10400391 116.31884766 358.54150391 C120.28080763 356.78909853 120.62254146 355.69593532 122.25634766 351.79150391 C123.24777252 348.88578834 123.24777252 348.88578834 123.56884766 346.10400391 C122.06543308 343.03514877 122.06543308 343.03514877 119.56884766 341.10400391 C118.57476828 338.12176577 118.33843787 335.91525269 118.25634766 332.79150391 C118.20027344 331.40511719 118.20027344 331.40511719 118.14306641 329.99072266 C119.3219347 321.99821195 127.07659482 316.26426732 132.50634766 310.85400391 C133.4003125 309.94392578 134.29427734 309.03384766 135.21533203 308.09619141 C136.08351563 307.22736328 136.95169922 306.35853516 137.84619141 305.46337891 C138.63243896 304.67415039 139.41868652 303.88492188 140.22875977 303.07177734 C144.60093071 299.39523088 148.74054393 298.67037439 154.29150391 298.77197266 C158.00585044 299.31351546 160.43422583 301.07571919 163.56884766 303.10400391 C167.9489771 304.76135018 171.19233385 303.42024907 175.36181641 301.67431641 C178.15129455 299.68959036 178.43503931 298.494996 179.00634766 295.16650391 C179.10302734 294.28994141 179.19970703 293.41337891 179.29931641 292.51025391 C179.65239429 289.35813828 180.51994579 287.51878111 182.56884766 285.10400391 C187.50192085 282.04137207 191.4126769 281.64866971 197.03759766 281.67041016 C198.23539856 281.66254738 198.23539856 281.66254738 199.45739746 281.65452576 C201.13825319 281.64812963 202.81915383 281.64941122 204.5 281.65795898 C207.06152436 281.66647955 209.62082382 281.63766 212.18212891 281.60595703 C213.82145116 281.60434494 215.46077733 281.60492269 217.10009766 281.60791016 C218.23940735 281.59105919 218.23940735 281.59105919 219.4017334 281.5738678 C224.55914094 281.64097576 227.45376115 282.74550456 231.56884766 286.10400391 C234.1071869 289.27692797 234.64974747 291.74948909 235.13134766 295.66650391 C235.73495408 298.77819907 236.11772682 299.78432475 238.74072266 301.64306641 C243.84020403 303.9296871 243.84020403 303.9296871 249.22119141 303.28759766 C250.95353676 302.41421888 252.6486034 301.46596642 254.31884766 300.47900391 C257.47256326 299.14473961 258.95446655 298.95171628 262.27197266 299.01806641 C263.48095215 299.03667725 263.48095215 299.03667725 264.71435547 299.05566406 C265.32633789 299.07161621 265.93832031 299.08756836 266.56884766 299.10400391 C266.61515005 289.11628273 266.65070619 279.12858702 266.672472 269.14078045 C266.68291751 264.50323895 266.69709069 259.86577078 266.71972656 255.22827148 C266.74142761 250.75439036 266.7534105 246.28057985 266.75860214 241.80665016 C266.76230283 240.09818217 266.76952917 238.38971813 266.78030777 236.68128014 C266.79478637 234.29174769 266.79682713 231.90250857 266.79589844 229.51293945 C266.80308899 228.80371841 266.81027954 228.09449738 266.81768799 227.36378479 C266.80227247 223.707935 266.65736388 222.23677824 264.56884766 219.10400391 C262.04858502 218.65573655 262.04858502 218.65573655 259.05136108 218.74324036 C257.87904434 218.73911636 256.7067276 218.73499237 255.49888611 218.73074341 C254.20632401 218.74152924 252.9137619 218.75231506 251.58203125 218.76342773 C250.21229572 218.76427361 248.84255883 218.76379963 247.4728241 218.76210022 C243.74773629 218.76123729 240.02293661 218.77891082 236.29791594 218.79982209 C232.40749784 218.81853956 228.5170736 218.82033543 224.62661743 218.82389832 C217.25655734 218.83323333 209.88663029 218.8578667 202.51662886 218.88794678 C194.12740173 218.92144561 185.73816835 218.93796541 177.34889102 218.95303309 C160.08879953 218.98441507 142.82883765 219.03720373 125.56884766 219.10400391 Z M194.56884766 298.10400391 C194.43929687 299.45945312 194.43929687 299.45945312 194.30712891 300.84228516 C194.16662109 302.02177734 194.02611328 303.20126953 193.88134766 304.41650391 C193.75373047 305.58826172 193.62611328 306.76001953 193.49462891 307.96728516 C192.56884766 311.10400391 192.56884766 311.10400391 190.42431641 312.86572266 C186.01107989 314.77953384 181.50055158 316.29075862 176.94384766 317.82275391 C173.86887673 318.99010398 171.34839847 320.3734314 168.56884766 322.10400391 C164.82516454 323.21914356 163.12300309 323.31458297 159.44384766 321.91650391 C156.72870975 320.20478653 154.70415485 318.4856927 152.56884766 316.10400391 C149.52552 317.4624241 147.44575615 318.98863415 145.11572266 321.36181641 C144.49697266 321.98701172 143.87822266 322.61220703 143.24072266 323.25634766 C142.60650391 323.90732422 141.97228516 324.55830078 141.31884766 325.22900391 C140.66916016 325.88771484 140.01947266 326.54642578 139.35009766 327.22509766 C137.75173038 328.84697033 136.15822868 330.47333201 134.56884766 332.10400391 C135.20113281 332.82716797 135.20113281 332.82716797 135.84619141 333.56494141 C136.39404297 334.19658203 136.94189453 334.82822266 137.50634766 335.47900391 C138.05162109 336.10548828 138.59689453 336.73197266 139.15869141 337.37744141 C142.04055358 340.9059264 141.88497293 343.60494565 141.56884766 348.10400391 C140.55526931 350.6976537 139.52794077 353.02650937 138.25634766 355.47900391 C136.1422351 359.7383189 134.18929423 363.84587938 132.81884766 368.41650391 C131.56884766 372.10400391 131.56884766 372.10400391 128.56884766 374.10400391 C122.62884766 374.59900391 122.62884766 374.59900391 116.56884766 375.10400391 C116.56884766 383.35400391 116.56884766 391.60400391 116.56884766 400.10400391 C120.52884766 400.43400391 124.48884766 400.76400391 128.56884766 401.10400391 C132.53704323 405.07219948 133.4141818 406.7334839 135.06884766 411.85400391 C136.43721084 415.94214778 137.78587607 419.77261686 139.88134766 423.54150391 C141.81860306 427.63126531 142.44329065 429.65229412 141.56884766 434.10400391 C139.48494572 437.03594535 137.13219826 439.58642742 134.56884766 442.10400391 C139.8398618 448.51469678 145.66012918 454.28990903 151.56884766 460.10400391 C152.71511088 459.12534053 153.86084554 458.14605803 155.00634766 457.16650391 C155.64443359 456.62123047 156.28251953 456.07595703 156.93994141 455.51416016 C157.83875914 454.73604696 158.72821294 453.94463863 159.56884766 453.10400391 C166.5125811 452.16927056 171.05585067 454.45113477 177.23291016 457.51806641 C181.19999346 459.40405683 185.23126857 460.76009233 189.42431641 462.04931641 C191.56884766 463.10400391 191.56884766 463.10400391 193.56884766 467.10400391 C194.06384766 472.54900391 194.06384766 472.54900391 194.56884766 478.10400391 C202.81884766 478.10400391 211.06884766 478.10400391 219.56884766 478.10400391 C219.67197266 476.02087891 219.77509766 473.93775391 219.88134766 471.79150391 C220.18238575 465.7105344 220.18238575 465.7105344 221.69384766 463.33837891 C224.39490746 461.5601812 227.18903193 460.67788909 230.25634766 459.66650391 C234.31956944 458.30394592 238.19765148 456.90014128 241.94384766 454.79150391 C246.54075836 452.65156272 248.55728777 452.30851821 253.56884766 453.10400391 C256.2045786 454.8344838 258.39800642 456.82462061 260.56884766 459.10400391 C263.61217531 457.74558371 265.69193917 456.21937367 268.02197266 453.84619141 C268.64072266 453.22099609 269.25947266 452.59580078 269.89697266 451.95166016 C270.53119141 451.30068359 271.16541016 450.64970703 271.81884766 449.97900391 C272.46853516 449.32029297 273.11822266 448.66158203 273.78759766 447.98291016 C275.38596493 446.36103748 276.97946663 444.73467581 278.56884766 443.10400391 C277.40669636 440.58687801 276.6228672 439.15147563 274.50634766 437.29150391 C271.80632747 434.24309401 271.75510505 432.14785883 271.56884766 428.10400391 C272.54131754 425.48405563 273.50988547 423.28356543 274.81884766 420.85400391 C277.61762765 415.34313179 279.6074436 410.17423211 280.86572266 404.08056641 C281.21376953 403.10216797 281.21376953 403.10216797 281.56884766 402.10400391 C286.3542421 400.50887242 291.54202306 400.52290596 296.56884766 400.10400391 C296.56884766 391.85400391 296.56884766 383.60400391 296.56884766 375.10400391 C292.60884766 374.77400391 288.64884766 374.44400391 284.56884766 374.10400391 C281.24440285 370.7795591 280.12880318 367.73356823 278.63134766 363.41650391 C277.04090978 358.95002835 275.48426353 354.67544638 273.13134766 350.54150391 C271.22689688 346.3517122 271.1163508 344.46149447 272.56884766 340.10400391 C274.41146496 337.80453934 276.33087387 336.05627891 278.56884766 334.10400391 C277.21042746 331.06067625 275.68421742 328.9809124 273.31103516 326.65087891 C272.68583984 326.03212891 272.06064453 325.41337891 271.41650391 324.77587891 C270.76552734 324.14166016 270.11455078 323.50744141 269.44384766 322.85400391 C268.78513672 322.20431641 268.12642578 321.55462891 267.44775391 320.88525391 C265.82588123 319.28688663 264.19951956 317.69338493 262.56884766 316.10400391 C260.06672206 317.28365297 258.27057808 318.35638586 256.13134766 320.16650391 C253.28251332 322.3205006 252.10354389 322.87848931 248.56884766 323.10400391 C245.89967476 322.14576505 243.48357944 321.1400089 240.94384766 319.91650391 C239.52461391 319.25995545 238.10403056 318.60631673 236.68212891 317.95556641 C235.98684082 317.63620117 235.29155273 317.31683594 234.57519531 316.98779297 C230.96981137 315.39963406 227.249153 314.15966334 223.51025391 312.92822266 C221.56884766 312.10400391 221.56884766 312.10400391 220.56884766 310.10400391 C220.33934446 307.89963991 220.15808832 305.69008218 220.00634766 303.47900391 C219.92255859 302.29048828 219.83876953 301.10197266 219.75244141 299.87744141 C219.69185547 298.96220703 219.63126953 298.04697266 219.56884766 297.10400391 C207.03712549 296.96163434 207.03712549 296.96163434 194.56884766 298.10400391 Z " fill="#000000" transform="translate(169.43115234375,9.89599609375)"/>
<path d="M0 0 C11.22752351 9.16451565 17.83594717 22.61738563 19.375 36.875 C20.79309311 51.13190035 15.76089467 64.43371961 7.1875 75.5625 C-1.28514252 85.45888147 -12.62681623 91.92725992 -25.625 93.875 C-42.252469 94.88390127 -56.01367298 91.62124032 -68.875 80.625 C-78.24016389 71.73552697 -85.47626965 60.03452146 -85.86328125 46.78515625 C-86.25609094 29.77632048 -82.74634931 16.29193926 -70.8125 3.5625 C-50.85043648 -15.20951742 -21.8430834 -15.60753651 0 0 Z M-60.625 17.875 C-67.86234514 27.6048748 -69.78343717 36.84414726 -68.625 48.875 C-65.95698251 59.13019223 -60.53917328 66.62284357 -51.625 72.25 C-43.04371318 76.99161194 -34.32394903 78.44283913 -24.6875 76.1875 C-15.67468382 73.18322794 -7.91190266 67.87595062 -2.625 59.875 C2.85684709 48.70113915 3.48712605 39.81214531 -0.36328125 28.03125 C-3.88020191 19.23350419 -10.69776013 12.51950651 -19.25 8.5625 C-34.09757203 2.54860948 -49.53177208 6.3475176 -60.625 17.875 Z " fill="#000000" transform="translate(409.625,356.125)"/>
<path d="M0 0 C1.30258255 0.10707779 2.6051651 0.21415558 3.94721985 0.32447815 C5.43789506 0.4538153 6.92855072 0.58337789 8.41918945 0.71313477 C10.02948464 0.84895445 11.6398122 0.9843907 13.25016785 1.11949158 C18.05337115 1.52526697 22.85561687 1.94159109 27.65770721 2.36031342 C31.26335576 2.67467065 34.86913154 2.98754315 38.47491455 3.300354 C54.34079507 4.67873703 70.20486255 6.076936 86.0676136 7.49086952 C94.56072968 8.24784316 103.0542093 9.00041657 111.54824716 9.74697882 C117.61061572 10.2801676 123.67253818 10.81824668 129.73414916 11.35997957 C133.32292944 11.68059248 136.91186224 11.99915199 140.50129128 12.31242561 C144.47171631 12.65908069 148.44119579 13.01586587 152.41064453 13.37353516 C153.57675262 13.47384033 154.74286072 13.57414551 155.94430542 13.67749023 C161.81486716 14.21520981 167.4142671 14.81803038 173.0324707 16.65454102 C175.491918 19.93380408 176.06774674 21.75500199 175.9074707 25.84204102 C174.58605795 30.08943916 174.58605795 30.08943916 172.0324707 31.65454102 C166.7750988 32.51668716 162.10759971 32.69667718 156.77757263 32.21879578 C156.09372295 32.15980805 155.40987327 32.10082032 154.70530087 32.04004508 C152.43783215 31.8423715 150.17164946 31.63265462 147.90527344 31.42285156 C146.27021469 31.27775198 144.63509102 31.13338252 142.99990845 30.98968506 C138.57576578 30.59863871 134.15265284 30.19691783 129.72968173 29.7928617 C125.09297509 29.37073221 120.45549825 28.95722595 115.81813049 28.54243469 C108.03266261 27.84467706 100.24784582 27.13998446 92.46337891 26.43115234 C83.47213617 25.6125197 74.47996239 24.80481686 65.48720783 24.00297517 C56.82406562 23.23027232 48.16163326 22.44987258 39.49949837 21.66596413 C35.81847845 21.33297092 32.13723292 21.00265456 28.45577812 20.67450523 C24.11891049 20.28758068 19.78270673 19.89390391 15.44691849 19.49507141 C13.85847166 19.35003461 12.26981362 19.20728934 10.68093681 19.0670414 C8.50679015 18.87474182 6.33357482 18.67402786 4.16038513 18.47123718 C2.9457128 18.36116679 1.73104048 18.2510964 0.4795599 18.13769054 C-8.6322959 16.86055828 -8.6322959 16.86055828 -11.9050293 13.90454102 C-13.33683736 10.87247688 -13.44203082 8.97605165 -12.9675293 5.65454102 C-9.30617355 -0.02687307 -6.47467656 -0.54526315 0 0 Z " fill="#000000" transform="translate(174.967529296875,147.345458984375)"/>
<path d="M0 0 C1.62892377 0.14329338 3.25788193 0.28619627 4.88687134 0.42874146 C9.27941897 0.81455782 13.67137606 1.20672405 18.06318998 1.60079598 C20.80985886 1.84703047 23.5566373 2.0920045 26.30345535 2.33656883 C35.89289122 3.19056577 45.48180362 4.05021071 55.0703125 4.91455078 C64.00075477 5.71940001 72.93230629 6.51100932 81.86445081 7.29671985 C89.54702773 7.97315863 97.22869921 8.65929614 104.90974581 9.35289448 C109.49176716 9.76645606 114.07406322 10.17597607 118.65732956 10.57552528 C122.96105359 10.95100181 127.2635255 11.33850996 131.56533432 11.7353096 C133.14315329 11.87876962 134.72137167 12.01791245 136.29998016 12.15240669 C138.4555821 12.3367335 140.60919723 12.53661569 142.76303101 12.74043274 C143.96827612 12.84828252 145.17352123 12.9561323 146.41528893 13.06725025 C150.47684241 13.83865746 153.43906519 15.15050071 155.96728516 18.4831543 C156.85318231 21.58379433 156.49173695 23.58681959 155.59228516 26.6706543 C153.47321321 29.3813779 152.34808354 30.54809383 148.9082222 31.10590267 C147.37985796 31.0534733 147.37985796 31.0534733 145.82061768 30.99998474 C144.66204506 30.96326094 143.50347244 30.92653713 142.30979156 30.88870049 C135.8399845 30.50922117 129.39134209 29.99888676 122.93896484 29.40136719 C121.41476801 29.26456599 119.89052538 29.12827422 118.36624146 28.9924469 C114.26688086 28.62570158 110.16819728 28.25185061 106.06960964 27.87657857 C101.76074313 27.48325412 97.45129209 27.09643786 93.14190674 26.70884705 C85.91277812 26.05775204 78.6840406 25.40245975 71.45556641 24.74414062 C61.28119307 23.8175376 51.10613261 22.89866232 40.93092489 21.98127377 C33.00020034 21.26596115 25.0696658 20.54854552 17.13916016 19.83081055 C16.29386466 19.75433139 15.44856916 19.67785223 14.57765865 19.59905553 C9.70868115 19.1584033 4.8398028 18.7166811 -0.02893448 18.27338219 C-1.49901443 18.13965094 -2.96912155 18.0062179 -4.43925858 17.87311554 C-8.76297536 17.48149814 -13.08558321 17.07936431 -17.40771484 16.6706543 C-18.34086266 16.58765013 -19.27401047 16.50464596 -20.23543549 16.41912651 C-25.16204801 15.94419754 -28.11132755 15.58511421 -31.40771484 11.6706543 C-32.57368894 7.66261833 -32.84011986 5.61782719 -31.09521484 1.7956543 C-25.314627 -5.48360446 -8.37935605 -0.75537327 0 0 Z " fill="#000000" transform="translate(198.40771484375,103.329345703125)"/>
</svg>
