<?xml version="1.0" encoding="UTF-8"?>
<svg version="1.1" xmlns="http://www.w3.org/2000/svg" width="687" height="249">
<path d="M0 0 C226.71 0 453.42 0 687 0 C687 82.17 687 164.34 687 249 C460.29 249 233.58 249 0 249 C0 166.83 0 84.66 0 0 Z " fill="#FDFDFE" transform="translate(0,0)"/>
<path d="M0 0 C1.69386872 -0.00898564 3.38773672 -0.01810777 5.081604 -0.02735901 C8.61155108 -0.04374839 12.14140437 -0.05153203 15.67138672 -0.05444336 C20.1827961 -0.05985187 24.69332069 -0.09767565 29.20447922 -0.14318752 C32.69445001 -0.17297686 36.18420666 -0.18016714 39.67429352 -0.18116951 C41.33761956 -0.18535924 43.00094697 -0.19774329 44.66414642 -0.21868706 C59.23932561 -0.38781252 59.23932561 -0.38781252 63.80957031 2.79272461 C67.83609788 6.91488025 68.5734144 9.09638799 68.52252197 14.91088867 C68.12577566 19.93194057 66.73389546 24.75829609 65.4765625 29.62109375 C65.18004791 30.79260986 64.88353333 31.96412598 64.57803345 33.17114258 C63.94879624 35.64670314 63.31477108 38.121051 62.67626953 40.59423828 C61.7143124 44.32767451 60.77208676 48.06568458 59.83203125 51.8046875 C51.04072056 86.41277927 51.04072056 86.41277927 43.328125 94.37109375 C40.015625 94.74609375 40.015625 94.74609375 37.328125 94.37109375 C38.75757493 86.54578589 40.71540387 78.9144038 42.8046875 71.2421875 C43.482251 68.71822781 44.15931946 66.19413519 44.8359375 63.66992188 C45.89450454 59.72958832 46.95713369 55.79041701 48.02929688 51.85375977 C49.07071806 48.02812574 50.09402839 44.19774714 51.1171875 40.3671875 C51.43902008 39.19820419 51.76085266 38.02922089 52.09243774 36.82481384 C53.77166671 30.49189523 54.91227063 24.92847962 54.328125 18.37109375 C51.79844026 15.08934057 50.25081169 13.67865598 46.328125 12.37109375 C44.09045909 12.26124904 41.84966337 12.21205343 39.609375 12.1940918 C38.59182129 12.184235 38.59182129 12.184235 37.55371094 12.17417908 C35.31184781 12.15448806 33.07005137 12.14279599 30.828125 12.1328125 C29.67944946 12.12669921 29.67944946 12.12669921 28.50756836 12.12046242 C24.45817333 12.09962454 20.40881201 12.08531019 16.359375 12.07592773 C12.17257256 12.06483808 7.98629792 12.03040303 3.79968262 11.99075603 C0.58267202 11.96465491 -2.63421118 11.95624199 -5.85131836 11.95264626 C-7.39513738 11.94776726 -8.93895023 11.93611598 -10.48266602 11.91760826 C-12.63991717 11.89334218 -14.79578009 11.89415715 -16.953125 11.90112305 C-18.18095703 11.89525681 -19.40878906 11.88939056 -20.67382812 11.88334656 C-23.72752005 12.08843052 -23.72752005 12.08843052 -25.51313782 14.14323425 C-26.62755799 16.28588713 -27.35906582 18.14537004 -27.93041992 20.48681641 C-28.13040085 21.28930817 -28.33038177 22.09179993 -28.53642273 22.91860962 C-28.73967667 23.78207001 -28.9429306 24.6455304 -29.15234375 25.53515625 C-29.37005936 26.44123627 -29.58777496 27.34731628 -29.81208801 28.28085327 C-30.27013953 30.20456038 -30.72286475 32.12954238 -31.1706543 34.05566406 C-31.84682171 36.94249864 -32.55412972 39.82043409 -33.26367188 42.69921875 C-38.50423746 62.77060866 -38.50423746 62.77060866 -34.671875 82.37109375 C-31.32494884 83.594288 -27.96721327 83.52695901 -24.43457031 83.57641602 C-22.54306244 83.60633385 -22.54306244 83.60633385 -20.61334229 83.63685608 C-19.24222943 83.65383776 -17.8711153 83.67071666 -16.5 83.6875 C-15.09323533 83.7080821 -13.68647667 83.7290789 -12.27972412 83.75047302 C-8.58413573 83.8055641 -4.88849274 83.8550303 -1.19281006 83.90332031 C2.58114459 83.95363024 6.35502032 84.00926668 10.12890625 84.06445312 C17.52857892 84.17187603 24.9283174 84.27335594 32.328125 84.37109375 C32.01918568 85.99677445 31.7058555 87.62162123 31.390625 89.24609375 C31.21660156 90.15101563 31.04257813 91.0559375 30.86328125 91.98828125 C30.328125 94.37109375 30.328125 94.37109375 29.328125 96.37109375 C20.99137548 96.44081611 12.6547492 96.49401723 4.31777954 96.52653027 C0.44595998 96.54214034 -3.42565908 96.5632925 -7.29736328 96.59741211 C-11.03860425 96.63017309 -14.77965319 96.64798175 -18.52102661 96.65572548 C-19.94348164 96.66123913 -21.36592699 96.67200558 -22.78829956 96.68828392 C-39.4350237 96.87110135 -39.4350237 96.87110135 -46.546875 90.99609375 C-52.58145315 83.54161485 -51.40381664 73.46322071 -50.671875 64.37109375 C-49.73921508 57.64271176 -48.07046423 51.07756101 -46.421875 44.49609375 C-46.02027359 42.81424557 -45.62052965 41.13195276 -45.22265625 39.44921875 C-38.62281665 11.8324454 -38.62281665 11.8324454 -30.671875 4.37109375 C-30.011875 3.71109375 -29.351875 3.05109375 -28.671875 2.37109375 C-19.50310945 -0.49843738 -9.50525321 0.026274 0 0 Z " fill="#1F1BA2" transform="translate(102.671875,79.62890625)"/>
<path d="M0 0 C1.93742341 -0.02703381 3.87495479 -0.04641125 5.8125 -0.0625 C6.89144531 -0.07410156 7.97039062 -0.08570312 9.08203125 -0.09765625 C12 0 12 0 15 1 C15 1.66 15 2.32 15 3 C15.598125 3.226875 16.19625 3.45375 16.8125 3.6875 C19.70715882 5.42429529 20.63035715 6.9183036 22 10 C22.53270539 16.09624961 21.00857267 20.75452967 18.9296875 26.37109375 C18.45162155 27.69283348 18.45162155 27.69283348 17.96389771 29.04127502 C17.28852835 30.89814518 16.60741136 32.75293375 15.92089844 34.60571289 C14.88186003 37.41892635 13.86960349 40.24078572 12.859375 43.06445312 C12.196914 44.87558659 11.53290108 46.6861533 10.8671875 48.49609375 C10.57004852 49.32966904 10.27290955 50.16324432 9.96676636 51.02207947 C6.84366321 59.32984851 2.16479574 65.74581646 -5 71 C-10.80153481 72.93384494 -19.58062152 73.5664845 -25.28515625 70.953125 C-27.97742503 68.70405526 -29.77888186 66.48724172 -30.29760742 62.99829102 C-30.70450331 54.35443573 -28.10404774 47.17254731 -25.14770508 39.19311523 C-24.3149926 36.94423169 -23.50801793 34.68739785 -22.70507812 32.42773438 C-15.15549251 11.40638984 -15.15549251 11.40638984 -9 5.375 C-8.360625 4.72273438 -7.72125 4.07046875 -7.0625 3.3984375 C-4.53245333 1.68298919 -2.99582861 1.71914107 0 2 C0 1.34 0 0.68 0 0 Z " fill="#2C2B2C" transform="translate(227,83)"/>
<path d="M0 0 C18.62254713 -0.57137361 18.62254713 -0.57137361 25 3 C28.38654218 6.69585165 28.50896781 9.42249192 28.3515625 14.2734375 C27.41467167 21.53954637 24.29413859 27.96411208 19 33 C16.1875 33.875 16.1875 33.875 14 34 C14 34.66 14 35.32 14 36 C14.99 36.33 15.98 36.66 17 37 C19.31542868 41.63085737 18.55132799 47.81989162 17.31640625 52.703125 C14.59982649 60.05254411 10.88656863 65.74061612 3.8125 69.375 C-0.26424361 71.22441031 -3.61172977 72.12363162 -8.10546875 72.09765625 C-9.08837891 72.09443359 -10.07128906 72.09121094 -11.08398438 72.08789062 C-12.10814453 72.07951172 -13.13230469 72.07113281 -14.1875 72.0625 C-15.22326172 72.05798828 -16.25902344 72.05347656 -17.32617188 72.04882812 C-19.88417558 72.03704009 -22.44204889 72.01973083 -25 72 C-22.96564517 64.03784345 -20.45678699 56.33623339 -17.65625 48.61328125 C-17.24588501 47.47142868 -16.83552002 46.32957611 -16.41271973 45.15312195 C-15.11241913 41.53814843 -13.80624867 37.92532788 -12.5 34.3125 C-11.623323 31.87708805 -10.74701758 29.44154231 -9.87109375 27.00585938 C-3.14075211 8.31063481 -3.14075211 8.31063481 0 0 Z " fill="#1D19A0" transform="translate(436,83)"/>
<path d="M0 0 C2.97 0 5.94 0 9 0 C7.6212785 6.87164636 5.63619326 13.29860037 3.26171875 19.88671875 C2.89907425 20.90619095 2.53642975 21.92566315 2.16279602 22.97602844 C1.00934213 26.21498687 -0.15143669 29.45126255 -1.3125 32.6875 C-2.0805658 34.84032086 -2.84814812 36.99331429 -3.61523438 39.14648438 C-5.42041389 44.21012016 -7.2311162 49.27175382 -9.04449463 54.3324585 C-10.37989128 58.06056522 -11.71169654 61.78995017 -13.04296875 65.51953125 C-13.42864014 66.59952393 -13.81431152 67.6795166 -14.21166992 68.79223633 C-14.47181885 69.52079834 -14.73196777 70.24936035 -15 71 C-17.97 71 -20.94 71 -24 71 C-24.495 70.01 -24.495 70.01 -25 69 C-25.556875 69.48597656 -26.11375 69.97195312 -26.6875 70.47265625 C-30.53484417 73.01372309 -34.54572472 72.6892639 -39 72 C-41.57637471 70.11484777 -42.59667428 68.80665143 -44 66 C-44.29720629 60.25401178 -43.67248933 55.48392253 -42 50 C-41.78069824 49.27449951 -41.56139648 48.54899902 -41.33544922 47.80151367 C-37.9313616 37.09749785 -33.68421406 25.39158128 -24 19 C-21.47524538 17.73762269 -19.68799534 17.90143596 -16.875 17.9375 C-15.96492187 17.94652344 -15.05484375 17.95554687 -14.1171875 17.96484375 C-13.41851563 17.97644531 -12.71984375 17.98804687 -12 18 C-12 18.66 -12 19.32 -12 20 C-10.68 20.66 -9.36 21.32 -8 22 C-5.36 14.74 -2.72 7.48 0 0 Z " fill="#1E1AA2" transform="translate(608,84)"/>
<path d="M0 0 C8.92674617 -0.76660988 8.92674617 -0.76660988 12.625 1.875 C16.2198559 10.04512704 13.58870079 17.93184714 10.62890625 25.96875 C6.9481006 35.37088335 2.68308039 46.15266672 -5.125 52.8125 C-9.28168866 54.52939314 -13.5984834 55.08785451 -18 54 C-19.32 52.35 -20.64 50.7 -22 49 C-24.64 56.92 -27.28 64.84 -30 73 C-33.3 73 -36.6 73 -40 73 C-37.88589339 65.7385034 -35.51271838 58.62054161 -32.9453125 51.5078125 C-32.5618869 50.44061981 -32.1784613 49.37342712 -31.78341675 48.27389526 C-30.97623092 46.02961644 -30.16770819 43.78581805 -29.35791016 41.54248047 C-28.13153008 38.1431006 -26.91119791 34.74159244 -25.69140625 31.33984375 C-24.90140625 29.14570203 -24.11105314 26.95168741 -23.3203125 24.7578125 C-22.96180206 23.7574295 -22.60329163 22.75704651 -22.23391724 21.72634888 C-19.69974995 14.72487851 -16.91731775 7.85030408 -14 1 C-11.36 1 -8.72 1 -6 1 C-6 2.32 -6 3.64 -6 5 C-5.38125 4.505 -4.7625 4.01 -4.125 3.5 C-2 2 -2 2 0 2 C0 1.34 0 0.68 0 0 Z " fill="#7B7A7B" transform="translate(400,102)"/>
<path d="M0 0 C4.24818307 -0.03022062 8.49636341 -0.04860641 12.74462891 -0.06227112 C13.53289062 -0.06522186 14.32115234 -0.06817261 15.13330078 -0.07121277 C17.32671413 -0.07685248 19.51996695 -0.07504689 21.71337891 -0.07008362 C23.54545898 -0.06839172 23.54545898 -0.06839172 25.41455078 -0.06666565 C28.24462891 0.06272888 28.24462891 0.06272888 30.24462891 1.06272888 C30.24462891 1.72272888 30.24462891 2.38272888 30.24462891 3.06272888 C31.23462891 3.39272888 32.22462891 3.72272888 33.24462891 4.06272888 C38.39171677 14.35690461 31.51498408 31.0251409 28.99462891 41.31272888 C28.49731476 43.38665537 28.00121242 45.46087283 27.50634766 47.53538513 C26.32192408 52.48469513 25.11925861 57.42927016 23.90530396 62.37141418 C23.28706649 64.88985584 22.67358139 67.40941264 22.06079102 69.92918396 C21.70969283 71.36051167 21.35823931 72.79175229 21.00634766 74.22288513 C20.70946045 75.43339539 20.41257324 76.64390564 20.10668945 77.89109802 C18.241541 84.75321743 16.01796328 90.58839474 10.24462891 95.06272888 C8.92462891 95.06272888 7.60462891 95.06272888 6.24462891 95.06272888 C6.91692059 88.44588581 8.31024801 82.14880082 9.89697266 75.69554138 C10.1571669 74.62077545 10.41736115 73.54600952 10.68544006 72.43867493 C11.51351725 69.02066871 12.34744352 65.60412681 13.18212891 62.18772888 C14.01240133 58.77827637 14.84136727 55.3685173 15.66810608 51.95820618 C16.1811897 49.84285292 16.69638973 47.72801144 17.21409607 45.61378479 C20.367114 33.26193272 20.367114 33.26193272 21.55712891 20.62522888 C21.58226562 19.14216248 21.58226562 19.14216248 21.60791016 17.62913513 C21.45094946 15.04140205 21.45094946 15.04140205 19.91259766 13.27757263 C16.1369021 10.52759297 12.01704304 10.89219779 7.56030273 10.85740662 C6.38921715 10.84255722 6.38921715 10.84255722 5.19447327 10.82740784 C2.61356643 10.79581711 0.03264118 10.771045 -2.54833984 10.74632263 C-4.33767679 10.72575101 -6.12700889 10.70475448 -7.91633606 10.68334961 C-12.62629275 10.62815046 -17.33629315 10.57873165 -22.04632568 10.53050232 C-26.85237519 10.48027157 -31.65836121 10.42459371 -36.46435547 10.36936951 C-45.89463979 10.2618143 -55.32497921 10.16036344 -64.75537109 10.06272888 C-63.85178746 5.70220374 -62.39125409 3.77952218 -58.75537109 1.06272888 C-55.38285834 0.31832323 -52.07387552 0.34148772 -48.63037109 0.35569763 C-47.62663452 0.34048569 -46.62289795 0.32527374 -45.58874512 0.30960083 C-42.31072169 0.26600273 -39.03365935 0.25755127 -35.75537109 0.25022888 C-33.50079422 0.22822524 -31.24623544 0.20428696 -28.99169922 0.17845154 C-23.32272967 0.12001483 -17.65409229 0.09180553 -11.98486328 0.07450867 C-7.98981185 0.05993645 -3.99495819 0.03017478 0 0 Z " fill="#2C2C2C" transform="translate(158.75537109375,60.93727111816406)"/>
<path d="M0 0 C1.23556641 0.01740234 1.23556641 0.01740234 2.49609375 0.03515625 C3.32238281 0.04417969 4.14867187 0.05320312 5 0.0625 C5.63808594 0.07410156 6.27617187 0.08570312 6.93359375 0.09765625 C6.28006901 6.20479943 4.0102354 11.67051605 1.86328125 17.375 C1.04105608 19.6019882 0.21946068 21.829209 -0.6015625 24.05664062 C-1.89631794 27.55267702 -3.19575356 31.0467332 -4.50634766 34.53686523 C-5.77224526 37.91536932 -7.01833525 41.3006568 -8.26171875 44.6875 C-8.85534714 46.24560646 -8.85534714 46.24560646 -9.46096802 47.83518982 C-11.49714259 53.42773836 -12.60654731 57.28008172 -11.06640625 63.09765625 C-9.6733702 63.23422841 -8.27634504 63.33036774 -6.87890625 63.41015625 C-5.71294922 63.49716797 -5.71294922 63.49716797 -4.5234375 63.5859375 C-0.86689781 62.85928017 0.5022467 60.86568393 2.93359375 58.09765625 C4.54003295 55.07530587 4.54003295 55.07530587 5.7578125 51.65234375 C6.00214523 51.01215302 6.24647797 50.37196228 6.49821472 49.71237183 C7.32873056 47.51393521 8.13371761 45.30742003 8.93359375 43.09765625 C9.23493225 42.26899048 9.53627075 41.44032471 9.84674072 40.58654785 C12.18142601 34.14421065 14.46791288 27.68514942 16.74609375 21.22265625 C18.08268582 17.4324337 19.42303221 13.64356919 20.765625 9.85546875 C21.06974808 8.98898712 21.37387115 8.12250549 21.68721008 7.22976685 C23.82085412 1.21039588 23.82085412 1.21039588 24.93359375 0.09765625 C26.45287413 0.02585661 27.97526857 0.01373618 29.49609375 0.03515625 C30.32238281 0.04417969 31.14867187 0.05320312 32 0.0625 C32.63808594 0.07410156 33.27617187 0.08570312 33.93359375 0.09765625 C33.29288001 4.94971815 31.91861075 9.35254048 30.23828125 13.92578125 C29.96996994 14.6684021 29.70165863 15.41102295 29.42521667 16.17614746 C28.55876337 18.5687882 27.68437893 20.95841688 26.80859375 23.34765625 C26.21015303 24.98728569 25.61176443 26.62693416 25.01342773 28.26660156 C23.57601738 32.19938812 22.13029314 36.12906611 20.68267822 40.05810547 C19.68816185 42.76589975 18.70842583 45.47900283 17.7265625 48.19140625 C11.21002595 65.93703282 11.21002595 65.93703282 2.24609375 71.09765625 C-3.16222769 73.50407378 -8.22848499 74.10577452 -14.06640625 73.09765625 C-17.9771655 71.10797172 -19.64329723 69.73231979 -22.06640625 66.09765625 C-23.35752807 57.56820264 -20.85572949 50.15797385 -17.9453125 42.24609375 C-17.52595932 41.06544342 -17.10660614 39.88479309 -16.67454529 38.66836548 C-15.56781944 35.5636486 -14.44611229 32.46491889 -13.3170166 29.36828613 C-12.3943754 26.82656265 -11.48707186 24.27949161 -10.58041477 21.73203087 C-8.71081757 16.48022566 -6.82971535 11.23248667 -4.92407227 5.99365234 C-4.42110374 4.60779434 -4.42110374 4.60779434 -3.90797424 3.19393921 C-2.67652444 0.12648981 -2.67652444 0.12648981 0 0 Z " fill="#7B7A7B" transform="translate(348.06640625,82.90234375)"/>
<path d="M0 0 C0 0.66 0 1.32 0 2 C0.639375 2.309375 1.27875 2.61875 1.9375 2.9375 C4 4 4 4 5 5 C4.84634908 14.7760395 1.33681568 23.31820189 -2 32.375 C-2.84154429 34.69093374 -3.67986438 37.00800568 -4.5168457 39.32559204 C-5.03544096 40.75811398 -5.55725892 42.18947461 -6.08276367 43.61947632 C-7.2231594 46.73884251 -8.19285537 49.77142149 -9 53 C-11.97 53 -14.94 53 -18 53 C-18 52.01 -18 51.02 -18 50 C-18.804375 50.66 -19.60875 51.32 -20.4375 52 C-24.44740704 54.66692155 -28.32804875 54.83332717 -33 54 C-35.5625 52.625 -35.5625 52.625 -37 50 C-37.98561811 44.12779108 -37.3031055 38.97418232 -34.31640625 33.8125 C-29.04289506 26.55164186 -21.87392889 24.01335998 -13.65234375 21.1953125 C-9.08629039 19.64205763 -9.08629039 19.64205763 -6 16 C-5.60612212 13.67612053 -5.26513915 11.34206251 -5 9 C-10.67306365 8.61015868 -10.67306365 8.61015868 -16 10 C-17.25 12.91666667 -17.25 12.91666667 -18 16 C-18.33 16.66 -18.66 17.32 -19 18 C-21.97 18 -24.94 18 -28 18 C-26.03948501 11.13819755 -23.00378844 6.00252563 -17 2 C-11.51432672 -0.61222537 -5.93977139 -0.19024179 0 0 Z " fill="#1C18A0" transform="translate(520,102)"/>
<path d="M0 0 C0 0.66 0 1.32 0 2 C0.99 2.33 1.98 2.66 3 3 C5.53574423 8.07148846 4.49187263 14.40743338 2.8828125 19.6171875 C1.66032913 22.77354287 0.33738224 25.8905863 -1 29 C-8.92 29 -16.84 29 -25 29 C-26.55871002 34.45548506 -27.32491495 37.58475079 -27 43 C-25.90801858 44.29956335 -25.90801858 44.29956335 -23.25 44.3125 C-19.24128018 43.92704617 -17.81823454 42.81823454 -15 40 C-14.34 38.68 -13.68 37.36 -13 36 C-10.03 36 -7.06 36 -4 36 C-6.1346203 43.47117106 -9.20386421 48.09583688 -16 52 C-19.16009533 53.05336511 -21.5553136 53.20032888 -24.875 53.25 C-26.41800781 53.28867188 -26.41800781 53.28867188 -27.9921875 53.328125 C-31.41220687 52.95503198 -33.25025853 52.03027507 -36 50 C-38.51867101 44.96265797 -37.534745 38.09366809 -36.1875 32.81884766 C-35.065888 29.5957153 -33.81975654 26.45946334 -32.5 23.3125 C-32.09007812 22.24966797 -31.68015625 21.18683594 -31.2578125 20.09179688 C-27.85733191 11.74001047 -23.44587258 4.71692213 -15.625 -0.0625 C-10.73110874 -1.32816153 -4.68902032 -2.34451016 0 0 Z " fill="#2D2C2D" transform="translate(321,103)"/>
<path d="M0 0 C1.51400391 0.01740234 1.51400391 0.01740234 3.05859375 0.03515625 C4.07050781 0.04417969 5.08242187 0.05320312 6.125 0.0625 C7.29869141 0.07990234 7.29869141 0.07990234 8.49609375 0.09765625 C7.95221692 6.34605933 6.83102675 11.92844499 4.99609375 17.91015625 C0.8314535 31.10211332 0.8314535 31.10211332 3.49609375 44.09765625 C6.40139271 45.9199379 8.68233905 46.35922218 12.08105469 46.41650391 C12.9816864 46.4363736 13.88231812 46.45624329 14.8102417 46.47671509 C15.77391663 46.4882663 16.73759155 46.4998175 17.73046875 46.51171875 C19.2202121 46.54076797 19.2202121 46.54076797 20.74005127 46.57040405 C23.90864504 46.63012947 27.07727528 46.67655736 30.24609375 46.72265625 C32.39584908 46.76084248 34.54558921 46.79989459 36.6953125 46.83984375 C41.96211602 46.93582537 47.22899116 47.01988271 52.49609375 47.09765625 C51.83609375 50.72765625 51.17609375 54.35765625 50.49609375 58.09765625 C43.37943547 58.19683781 36.26318324 58.26927421 29.14599609 58.31738281 C26.72697945 58.3374469 24.30801099 58.36470468 21.88916016 58.39941406 C18.40385007 58.44815966 14.91918359 58.47067789 11.43359375 58.48828125 C10.35932129 58.50892639 9.28504883 58.52957153 8.17822266 58.55084229 C0.72684951 58.5530484 -4.77502643 57.51393537 -10.4609375 52.3046875 C-11.95073129 49.15212761 -12.16354008 46.21348027 -12.19140625 42.78515625 C-12.197771 42.03693604 -12.20413574 41.28871582 -12.21069336 40.51782227 C-12.01006362 33.74209913 -7.85399337 0.30631799 0 0 Z " fill="#7E7D7D" transform="translate(88.50390625,96.90234375)"/>
<path d="M0 0 C3.20316831 3.95685497 2.60044137 7.69461555 2.125 12.625 C1.36978516 15.90659227 0.26327105 18.9901868 -0.9375 22.1328125 C-1.40361694 23.41005692 -1.40361694 23.41005692 -1.87915039 24.71310425 C-2.8628041 27.3978701 -3.86839626 30.0737659 -4.875 32.75 C-5.55095466 34.58278983 -6.22544779 36.41611939 -6.8984375 38.25 C-8.54047682 42.71474531 -10.20222582 47.17168364 -11.875 51.625 C-15.175 51.625 -18.475 51.625 -21.875 51.625 C-19.32738348 42.72950179 -16.20497753 34.08710441 -12.98266602 25.41577148 C-12.30029448 23.57539283 -11.62852266 21.73109501 -10.95703125 19.88671875 C-10.55718018 18.80350342 -10.1573291 17.72028809 -9.74536133 16.60424805 C-8.91444501 13.76002032 -8.69360491 11.5644173 -8.875 8.625 C-11.515 8.295 -14.155 7.965 -16.875 7.625 C-16.875 8.285 -16.875 8.945 -16.875 9.625 C-17.46667969 10.16125 -18.05835938 10.6975 -18.66796875 11.25 C-21.53985923 14.34045914 -22.76358283 17.72889341 -24.1875 21.625 C-24.48019775 22.40085449 -24.77289551 23.17670898 -25.07446289 23.97607422 C-28.50007936 33.13474555 -31.69914111 42.37736225 -34.875 51.625 C-38.175 51.625 -41.475 51.625 -44.875 51.625 C-42.77103321 45.25284859 -40.58701224 38.91530641 -38.3359375 32.59375 C-37.84645126 31.21805847 -37.84645126 31.21805847 -37.34707642 29.8145752 C-36.66355031 27.8950765 -35.97949229 25.97576713 -35.29492188 24.05664062 C-34.24337997 21.1064268 -33.19589724 18.15479026 -32.1484375 15.203125 C-31.48202008 13.33324448 -30.81536219 11.46344965 -30.1484375 9.59375 C-29.83490326 8.70844604 -29.52136902 7.82314209 -29.19833374 6.91101074 C-28.76250473 5.6933905 -28.76250473 5.6933905 -28.31787109 4.45117188 C-27.93506485 3.37603333 -27.93506485 3.37603333 -27.54452515 2.2791748 C-26.875 0.625 -26.875 0.625 -25.875 -0.375 C-24.35571962 -0.44679964 -22.83332518 -0.45892007 -21.3125 -0.4375 C-20.48621094 -0.42847656 -19.65992188 -0.41945313 -18.80859375 -0.41015625 C-18.17050781 -0.39855469 -17.53242187 -0.38695313 -16.875 -0.375 C-16.875 0.615 -16.875 1.605 -16.875 2.625 C-16.545 1.965 -16.215 1.305 -15.875 0.625 C-10.22392544 -1.36949691 -5.55461 -2.65655261 0 0 Z " fill="#1B17A0" transform="translate(563.875,103.375)"/>
<path d="M0 0 C2.58398205 3.41522364 1.75749804 7.66758944 1.31665039 11.74020386 C0.55656684 15.02061281 -0.54505825 18.10533751 -1.74584961 21.24801636 C-2.21196655 22.52526077 -2.21196655 22.52526077 -2.6875 23.82830811 C-3.6711537 26.51307396 -4.67674587 29.18896976 -5.68334961 31.86520386 C-6.35930427 33.69799368 -7.0337974 35.53132324 -7.70678711 37.36520386 C-9.34882643 41.82994917 -11.01057543 46.2868875 -12.68334961 50.74020386 C-15.65334961 50.74020386 -18.62334961 50.74020386 -21.68334961 50.74020386 C-20.04289094 42.01937471 -16.96750219 33.94876452 -13.84594727 25.66134644 C-13.15578201 23.82225902 -12.47801255 21.97853489 -11.80053711 20.13473511 C-11.39432129 19.05039185 -10.98810547 17.96604858 -10.56958008 16.84884644 C-9.65941609 13.65625192 -9.51537002 11.04121982 -9.68334961 7.74020386 C-12.32334961 7.41020386 -14.96334961 7.08020386 -17.68334961 6.74020386 C-17.68334961 7.40020386 -17.68334961 8.06020386 -17.68334961 8.74020386 C-18.28663086 9.29965698 -18.88991211 9.85911011 -19.51147461 10.43551636 C-22.22301078 13.3128659 -23.11656747 15.88948497 -24.43334961 19.61520386 C-24.79807373 20.63034058 -24.79807373 20.63034058 -25.17016602 21.66598511 C-25.7111918 23.17320033 -26.24755461 24.68209492 -26.7800293 26.19235229 C-28.14636961 30.04617054 -29.55478752 33.88446619 -30.95776367 37.72506714 C-32.54037905 42.06075923 -34.11229863 46.40031054 -35.68334961 50.74020386 C-38.65334961 50.74020386 -41.62334961 50.74020386 -44.68334961 50.74020386 C-44.01454908 45.03420499 -42.09801331 39.95332885 -40.12084961 34.59957886 C-39.59382446 33.15448944 -39.59382446 33.15448944 -39.05615234 31.6802063 C-37.93676352 28.61506217 -36.81001038 25.55268143 -35.68334961 22.49020386 C-34.92508405 20.4148485 -34.16726658 18.33932937 -33.40991211 16.26364136 C-32.6889567 14.29214132 -31.96761595 12.32078215 -31.24584961 10.34957886 C-30.73332642 8.94962677 -30.73332642 8.94962677 -30.21044922 7.52139282 C-29.89342041 6.65999695 -29.5763916 5.79860107 -29.24975586 4.91110229 C-28.97075439 4.15198547 -28.69175293 3.39286865 -28.40429688 2.61074829 C-27.68334961 0.74020386 -27.68334961 0.74020386 -26.68334961 -1.25979614 C-23.71334961 -1.25979614 -20.74334961 -1.25979614 -17.68334961 -1.25979614 C-17.68334961 -0.26979614 -17.68334961 0.72020386 -17.68334961 1.74020386 C-17.31209961 1.26582886 -16.94084961 0.79145386 -16.55834961 0.30270386 C-12.27388415 -3.26768403 -4.47515485 -3.34914553 0 0 Z " fill="#2A292A" transform="translate(283.683349609375,104.25979614257813)"/>
<path d="M0 0 C0.7734375 -0.01675781 1.546875 -0.03351563 2.34375 -0.05078125 C5.05038706 0.40522825 5.80086059 1.19501761 7.5 3.3125 C7.61455676 11.5429626 4.35080704 19.09754605 1.51733398 26.70605469 C0.68841155 28.93504882 -0.12269437 31.16993904 -0.93164062 33.40625 C-1.45989639 34.84673639 -1.9891596 36.28685381 -2.51953125 37.7265625 C-2.75823441 38.38403473 -2.99693756 39.04150696 -3.24287415 39.71890259 C-8.17393398 52.86538859 -8.17393398 52.86538859 -13.5 55.3125 C-17.57126211 55.90468358 -21.13471742 56.23607351 -24.625 53.875 C-26.84236431 47.38129022 -24.03188317 40.10690122 -21.69921875 33.953125 C-21.42157181 33.20085632 -21.14392487 32.44858765 -20.85786438 31.67352295 C-20.27363177 30.0986715 -19.68431207 28.52569851 -19.09008789 26.95458984 C-18.18641722 24.55963036 -17.30417436 22.15752345 -16.42382812 19.75390625 C-15.85021904 18.21567513 -15.27539098 16.67789789 -14.69921875 15.140625 C-14.43864182 14.42908264 -14.17806488 13.71754028 -13.90959167 12.98443604 C-11.29701986 6.15332961 -7.96691425 0.03983457 0 0 Z " fill="#FAFAFA" transform="translate(231.5,91.6875)"/>
<path d="M0 0 C1.17635297 2.35270593 1.13359359 3.820752 1.125 6.4375 C1.12886719 7.61119141 1.12886719 7.61119141 1.1328125 8.80859375 C1 11 1 11 0 14 C-2.64 14 -5.28 14 -8 14 C-7.95875 13.05125 -7.9175 12.1025 -7.875 11.125 C-7.65026182 7.89755144 -7.65026182 7.89755144 -10 6 C-13.03344954 6.08885 -13.03344954 6.08885 -16 7 C-18.25990633 9.84290257 -18.25990633 9.84290257 -18.1875 13.1875 C-16.6409739 18.15266273 -14.00532776 20.10013951 -10.03125 23.30078125 C-7.83421074 25.13868909 -7.10273856 26.04769257 -6.796875 28.8828125 C-6.66398868 35.2392083 -7.16878578 40.98528116 -11.6875 45.796875 C-17.40173837 50.79683357 -21.20289356 51.43409832 -28.84375 51.32421875 C-32 51 -32 51 -35.3125 49.1875 C-37.76887714 44.54767651 -37.60535951 40.15420387 -37 35 C-36 34 -36 34 -34.15234375 33.90234375 C-32.1015625 33.93489583 -30.05078125 33.96744792 -28 34 C-28.020625 35.134375 -28.04125 36.26875 -28.0625 37.4375 C-28.41577477 40.81575674 -28.41577477 40.81575674 -27 42 C-22.16037282 42.54574666 -22.16037282 42.54574666 -18 40.4375 C-16.46726259 36.70145257 -16.77488551 34.8687826 -18 31 C-19.90079674 28.779637 -21.90836045 26.83846646 -24.08984375 24.89453125 C-26.99331301 22.01481225 -27.89896994 19.85875555 -28.375 15.8125 C-27.76658118 9.62690868 -25.75658859 4.17710571 -21 0 C-14.29118673 -4.47254218 -6.80054786 -4.31254255 0 0 Z " fill="#1C18A1" transform="translate(642,105)"/>
<path d="M0 0 C2.97 0 5.94 0 9 0 C7.6212785 6.87164636 5.63619326 13.29860037 3.26171875 19.88671875 C2.89907425 20.90619095 2.53642975 21.92566315 2.16279602 22.97602844 C1.00934213 26.21498687 -0.15143669 29.45126255 -1.3125 32.6875 C-2.0805658 34.84032086 -2.84814812 36.99331429 -3.61523438 39.14648438 C-5.42041389 44.21012016 -7.2311162 49.27175382 -9.04449463 54.3324585 C-10.37989128 58.06056522 -11.71169654 61.78995017 -13.04296875 65.51953125 C-13.42864014 66.59952393 -13.81431152 67.6795166 -14.21166992 68.79223633 C-14.47181885 69.52079834 -14.73196777 70.24936035 -15 71 C-17.97 71 -20.94 71 -24 71 C-23.67 69.68 -23.34 68.36 -23 67 C-23.99 66.67 -24.98 66.34 -26 66 C-24.90862418 62.82508852 -23.50542865 60.1814559 -21.65625 57.40625 C-18.85831904 52.97251983 -16.97420983 48.41443809 -15.1875 43.5 C-14.72053711 42.29537109 -14.72053711 42.29537109 -14.24414062 41.06640625 C-12.7858822 37.1114812 -11.8360691 33.89166779 -12.05078125 29.65625 C-11.98808239 25.14193188 -11.07048481 25.02157942 -8 22 C-6.75352298 19.52395709 -6.75352298 19.52395709 -5.859375 16.796875 C-5.51132812 15.8171875 -5.16328125 14.8375 -4.8046875 13.828125 C-4.45664062 12.81234375 -4.10859375 11.7965625 -3.75 10.75 C-3.38648438 9.71875 -3.02296875 8.6875 -2.6484375 7.625 C-1.75534244 5.08672984 -0.87298156 2.54524317 0 0 Z " fill="#1A169F" transform="translate(608,84)"/>
<path d="M0 0 C-0.66 2.97 -1.32 5.94 -2 9 C-3.01320313 9.25523438 -3.01320313 9.25523438 -4.046875 9.515625 C-4.93890625 9.75796875 -5.8309375 10.0003125 -6.75 10.25 C-8.07257813 10.59804687 -8.07257813 10.59804687 -9.421875 10.953125 C-13.61639396 12.65635391 -15.54027493 15.00586218 -17.43212891 19.09692383 C-18.07287354 20.883927 -18.07287354 20.883927 -18.7265625 22.70703125 C-18.96031586 23.35065109 -19.19406921 23.99427094 -19.43490601 24.65739441 C-20.17550495 26.70547147 -20.90013903 28.75880769 -21.625 30.8125 C-22.11881289 32.1806922 -22.61359573 33.54853474 -23.109375 34.91601562 C-25.26401068 40.89997433 -27.30264324 46.87022086 -29 53 C-32.3 53 -35.6 53 -39 53 C-36.48338473 42.95157916 -32.99022988 33.34078745 -29.4375 23.625 C-28.84141497 21.98321152 -28.24570917 20.34128531 -27.65039062 18.69921875 C-23.01026169 5.92679382 -23.01026169 5.92679382 -21 1 C-18.03 1 -15.06 1 -12 1 C-11.67 1.66 -11.34 2.32 -11 3 C-10.34 2.34 -9.68 1.68 -9 1 C-5.84308184 0.16923206 -3.30300113 0 0 0 Z " fill="#1C17A0" transform="translate(493,102)"/>
<path d="M0 0 C2.9375 0.3125 2.9375 0.3125 4.9375 2.3125 C4.9375 13.53543811 -0.32066445 26.44166375 -7.0625 35.3125 C-10.19810211 37.18643972 -12.40488645 37.60906326 -16.0625 37.3125 C-17.0625 36.3125 -17.0625 36.3125 -17.5 32.75 C-17.39773373 22.11430818 -11.45701525 9.54809559 -4.609375 1.6328125 C-3.0625 0.3125 -3.0625 0.3125 0 0 Z " fill="#F7F7FB" transform="translate(592.0625,109.6875)"/>
<path d="M0 0 C1.670625 0.061875 1.670625 0.061875 3.375 0.125 C4.72189719 6.14220344 3.86374896 10.1850977 1.8125 15.9375 C1.54091064 16.72632568 1.26932129 17.51515137 0.98950195 18.32788086 C-1.23956789 24.56504523 -3.85590677 31.35590677 -8.625 36.125 C-12.0625 36.375 -12.0625 36.375 -15.625 36.125 C-17.93623698 32.65814452 -17.79315913 30.95393473 -17.2265625 26.921875 C-15.37488231 18.31276451 -10.84244688 0.37387748 0 0 Z " fill="#FAFAFA" transform="translate(399.625,110.875)"/>
<path d="M0 0 C1.43736728 -0.03051015 2.87492233 -0.0522568 4.3125 -0.0703125 C5.11300781 -0.08336426 5.91351563 -0.09641602 6.73828125 -0.10986328 C9.95256249 0.04627085 11.65618074 0.80266944 14 3 C15.2565901 6.10451671 15.30624018 8.06669661 14.26171875 11.25 C10.93087393 19.06912607 10.93087393 19.06912607 8 22 C7.01 22 6.02 22 5 22 C5 22.66 5 23.32 5 24 C1.98509443 25.00496852 -0.04181692 25.10335303 -3.1875 25.0625 C-4.53908203 25.04896484 -4.53908203 25.04896484 -5.91796875 25.03515625 C-6.60503906 25.02355469 -7.29210937 25.01195312 -8 25 C-7.38074535 21.5847973 -6.53132639 18.40646528 -5.37109375 15.13671875 C-5.05849609 14.25048828 -4.74589844 13.36425781 -4.42382812 12.45117188 C-3.9355957 11.0831543 -3.9355957 11.0831543 -3.4375 9.6875 C-3.10814453 8.75615234 -2.77878906 7.82480469 -2.43945312 6.86523438 C-1.62932179 4.57573277 -0.81608317 2.28738542 0 0 Z " fill="#F5F4FA" transform="translate(431,122)"/>
<path d="M0 0 C0.66 0.99 1.32 1.98 2 3 C1.67 3.66 1.34 4.32 1 5 C1.66 5.33 2.32 5.66 3 6 C1.98679687 6.43699219 1.98679687 6.43699219 0.953125 6.8828125 C-4.53283217 9.40381594 -8.37285564 11.26804867 -11 17 C-11.33709062 19.75258812 -11.33709062 19.75258812 -11 22 C-9.02 22.66 -7.04 23.32 -5 24 C-5.25561323 26.3431213 -5.59270772 28.67843403 -6 31 C-9.47116227 32.73558114 -13.20490416 32.45163663 -17 32 C-19.5625 30.625 -19.5625 30.625 -21 28 C-21.98561811 22.12779108 -21.3031055 16.97418232 -18.31640625 11.8125 C-13.58702233 5.300826 -7.46367556 2.55296749 0 0 Z " fill="#1C18A0" transform="translate(504,124)"/>
<path d="M0 0 C4.40544297 -0.2986741 7.0439982 -0.44873554 11.0625 1.4375 C13.21670159 4.28660533 13.29555961 4.8981767 13.0625 8.3125 C12.2902812 12.88524659 10.53734061 16.15306424 8 20 C7.01 20 6.02 20 5 20 C5 20.66 5 21.32 5 22 C2.11788698 22.96070434 0.30149956 23.10581883 -2.6875 23.0625 C-3.89986328 23.04896484 -3.89986328 23.04896484 -5.13671875 23.03515625 C-5.75160156 23.02355469 -6.36648438 23.01195313 -7 23 C-5.48526781 15.01323028 -2.83197448 7.59877122 0 0 Z " fill="#F6F5FB" transform="translate(442,91)"/>
<path d="M0 0 C32.67 0.495 32.67 0.495 66 1 C64 11 64 11 63 12 C61.1281906 12.09386381 59.2528194 12.11743804 57.37866211 12.11352539 C56.17749252 12.11344986 54.97632294 12.11337433 53.73875427 12.11329651 C52.4314888 12.10813522 51.12422333 12.10297394 49.77734375 12.09765625 C48.43355868 12.09579198 47.08977293 12.09436812 45.74598694 12.09336853 C42.20317723 12.08954402 38.6604083 12.07971432 35.11761475 12.06866455 C31.50484773 12.05844899 27.89207416 12.0538706 24.27929688 12.04882812 C17.1861812 12.03809198 10.09309326 12.02101636 3 12 C5 10 5 10 7.40444946 9.75949097 C8.91668594 9.7661528 8.91668594 9.7661528 10.45947266 9.77294922 C11.60050446 9.77310028 12.74153625 9.77325134 13.91714478 9.77340698 C15.77186905 9.78889084 15.77186905 9.78889084 17.6640625 9.8046875 C19.5575795 9.80893234 19.5575795 9.80893234 21.48934937 9.81326294 C24.84646944 9.82257869 28.20331912 9.84055165 31.56036377 9.8626709 C34.98553122 9.8831245 38.41072659 9.8922636 41.8359375 9.90234375 C48.55736671 9.92443542 55.27866773 9.95793623 62 10 C62.66 7.69 63.32 5.38 64 3 C63.27194656 3.00444122 62.54389313 3.00888245 61.79377747 3.01345825 C54.92291702 3.05358016 48.05207416 3.08400739 41.18112659 3.10362434 C37.64893904 3.11404876 34.11684852 3.1281833 30.5847168 3.15087891 C26.52131229 3.17682394 22.45800926 3.18648387 18.39453125 3.1953125 C17.1297847 3.20563507 15.86503815 3.21595764 14.56196594 3.22659302 C13.38111923 3.22674408 12.20027252 3.22689514 10.98364258 3.22705078 C9.42810417 3.23371262 9.42810417 3.23371262 7.84114075 3.24050903 C4.87068616 2.98905329 2.69174685 2.24812854 0 1 C0 0.67 0 0.34 0 0 Z " fill="#0D0A9D" transform="translate(69,163)"/>
<path d="M0 0 C-1.70604523 6.46501349 -3.95512635 12.39888838 -9 17 C-12.75 18.125 -12.75 18.125 -16 18 C-16.66 17.34 -17.32 16.68 -18 16 C-17.90902384 11.26923948 -16.97169178 7.85011096 -13.734375 4.2890625 C-9.9622968 1.48549087 -4.69238745 0 0 0 Z " fill="#F2F1F9" transform="translate(510,130)"/>
<path d="M0 0 C2 2 2 2 2.046875 4.0234375 C1.94890625 4.79945312 1.8509375 5.57546875 1.75 6.375 C1.66234375 7.14585938 1.5746875 7.91671875 1.484375 8.7109375 C1 11 1 11 -1 15 C-5.62 15 -10.24 15 -15 15 C-12.51601428 7.54804285 -9.24594914 -1.21657226 0 0 Z " fill="#F3F3F3" transform="translate(314,110)"/>
<path d="M0 0 C-0.66 2.97 -1.32 5.94 -2 9 C-3.60256108 9.50512244 -5.20711792 10.00391627 -6.8125 10.5 C-7.70582031 10.7784375 -8.59914063 11.056875 -9.51953125 11.34375 C-12 12 -12 12 -15 12 C-14.566875 11.45730469 -14.13375 10.91460937 -13.6875 10.35546875 C-13.130625 9.64003906 -12.57375 8.92460938 -12 8.1875 C-11.443125 7.47980469 -10.88625 6.77210937 -10.3125 6.04296875 C-8.72974317 3.98404001 -8.72974317 3.98404001 -9 1 C-5.846632 0.29925156 -3.27275026 0 0 0 Z " fill="#1C189F" transform="translate(493,102)"/>
<path d="M0 0 C1.25541557 3.76624671 0.37061958 5.37188934 -1 9 C-4.3 9 -7.6 9 -11 9 C-10.34 7.35 -9.68 5.7 -9 4 C-8.67 4.99 -8.34 5.98 -8 7 C-6.02 7 -4.04 7 -2 7 C-1.34 4.69 -0.68 2.38 0 0 Z " fill="#27269F" transform="translate(553,146)"/>
<path d="M0 0 C1.3303125 0.02126953 1.3303125 0.02126953 2.6875 0.04296875 C4.0178125 0.05263672 4.0178125 0.05263672 5.375 0.0625 C7.6875 0.23046875 7.6875 0.23046875 9.6875 1.23046875 C9.6875 1.89046875 9.6875 2.55046875 9.6875 3.23046875 C10.6775 3.56046875 11.6675 3.89046875 12.6875 4.23046875 C11.6975 5.71546875 11.6975 5.71546875 10.6875 7.23046875 C10.6875 6.24046875 10.6875 5.25046875 10.6875 4.23046875 C3.2625 3.24046875 3.2625 3.24046875 -4.3125 2.23046875 C-2.3125 0.23046875 -2.3125 0.23046875 0 0 Z " fill="#383838" transform="translate(311.3125,101.76953125)"/>
<path d="M0 0 C0.66 0.99 1.32 1.98 2 3 C3.32 3 4.64 3 6 3 C6.66 2.34 7.32 1.68 8 1 C8 2.65 8 4.3 8 6 C4.7 6 1.4 6 -2 6 C-1.34 4.02 -0.68 2.04 0 0 Z " fill="#2D2CA3" transform="translate(456,149)"/>
<path d="M0 0 C0.33 1.32 0.66 2.64 1 4 C-0.60256108 4.50512244 -2.20711792 5.00391627 -3.8125 5.5 C-5.15248047 5.91765625 -5.15248047 5.91765625 -6.51953125 6.34375 C-9 7 -9 7 -12 7 C-10.21825212 4.69857565 -8.83695835 3.19965609 -5.953125 2.51171875 C-3.9753389 2.27676898 -1.98728128 2.13248542 0 2 C0 1.34 0 0.68 0 0 Z " fill="#3231A5" transform="translate(490,107)"/>
<path d="M0 0 C0.99 0 1.98 0 3 0 C3.125 2.875 3.125 2.875 3 6 C2.34 6.66 1.68 7.32 1 8 C1 8.99 1 9.98 1 11 C0.01 10.67 -0.98 10.34 -2 10 C-1.34 6.7 -0.68 3.4 0 0 Z " fill="#2520A4" transform="translate(151,130)"/>
<path d="M0 0 C6.93 0.495 6.93 0.495 14 1 C14 1.66 14 2.32 14 3 C12.04233719 3.08082094 10.08373272 3.13910778 8.125 3.1875 C6.48917969 3.23970703 6.48917969 3.23970703 4.8203125 3.29296875 C3.88960938 3.19628906 2.95890625 3.09960938 2 3 C1.34 2.01 0.68 1.02 0 0 Z " fill="#3C3B3C" transform="translate(288,153)"/>
<path d="M0 0 C0.66 0.99 1.32 1.98 2 3 C1.01 3.495 1.01 3.495 0 4 C-0.46523063 5.89533342 -0.46523063 5.89533342 -0.625 8.0625 C-0.810625 10.0115625 -0.810625 10.0115625 -1 12 C-1.66 11.67 -2.32 11.34 -3 11 C-2.67 10.34 -2.34 9.68 -2 9 C-2.99 8.67 -3.98 8.34 -5 8 C-3.8141763 4.62496331 -2.72426311 2.35277269 0 0 Z " fill="#110E9B" transform="translate(587,142)"/>
<path d="M0 0 C0.33 0.66 0.66 1.32 1 2 C2.98 2 4.96 2 7 2 C7 2.99 7 3.98 7 5 C4.03 5 1.06 5 -2 5 C-1.34 3.35 -0.68 1.7 0 0 Z " fill="#3937AA" transform="translate(494,115)"/>
<path d="M0 0 C2.97 0 5.94 0 9 0 C8.5205537 4.21912747 7.83374881 6.79663178 5 10 C5.52268466 7.23723823 6.10869587 4.6739124 7 2 C4.69 2 2.38 2 0 2 C0 1.34 0 0.68 0 0 Z " fill="#747374" transform="translate(346,83)"/>
<path d="M0 0 C0.33 0.99 0.66 1.98 1 3 C4.465 2.505 4.465 2.505 8 2 C8 2.99 8 3.98 8 5 C4.7 5 1.4 5 -2 5 C-1.34 3.35 -0.68 1.7 0 0 Z " fill="#3534A4" transform="translate(521,150)"/>
<path d="M0 0 C2.97 0 5.94 0 9 0 C8.34 1.65 7.68 3.3 7 5 C6.67 4.01 6.34 3.02 6 2 C2.06924356 2.57452746 2.06924356 2.57452746 -1 5 C-0.67 3.35 -0.34 1.7 0 0 Z " fill="#0E0C98" transform="translate(538,103)"/>
<path d="M0 0 C0.66 0.33 1.32 0.66 2 1 C2 3.64 2 6.28 2 9 C1.01 9 0.02 9 -1 9 C-1.09765625 2.84765625 -1.09765625 2.84765625 -1 1 C-0.67 0.67 -0.34 0.34 0 0 Z " fill="#2522A4" transform="translate(169,88)"/>
<path d="M0 0 C0.33 0.66 0.66 1.32 1 2 C0.67 2.99 0.34 3.98 0 5 C1.98 5 3.96 5 6 5 C6.33 5.66 6.66 6.32 7 7 C4.03 7 1.06 7 -2 7 C-1.125 1.125 -1.125 1.125 0 0 Z " fill="#313031" transform="translate(264,148)"/>
<path d="M0 0 C0.99 0 1.98 0 3 0 C3 0.66 3 1.32 3 2 C3.66 2.33 4.32 2.66 5 3 C5 3.66 5 4.32 5 5 C4.34 5 3.68 5 3 5 C3 5.66 3 6.32 3 7 C1.68 6.67 0.36 6.34 -1 6 C-0.835 5.38125 -0.67 4.7625 -0.5 4.125 C0.07634644 2.03936614 0.07634644 2.03936614 0 0 Z " fill="#2421A4" transform="translate(505,124)"/>
<path d="M0 0 C0.33 0 0.66 0 1 0 C1 1.65 1 3.3 1 5 C2.65 5 4.3 5 6 5 C6.33 4.34 6.66 3.68 7 3 C7 4.32 7 5.64 7 7 C4.36 7 1.72 7 -1 7 C-0.67 4.69 -0.34 2.38 0 0 Z " fill="#171698" transform="translate(635,112)"/>
<path d="M0 0 C2.97 0 5.94 0 9 0 C8.34 1.32 7.68 2.64 7 4 C7 3.34 7 2.68 7 2 C5.02 2 3.04 2 1 2 C0.67 2.66 0.34 3.32 0 4 C0 2.68 0 1.36 0 0 Z " fill="#0C0A97" transform="translate(472,103)"/>
<path d="M0 0 C-1.26418246 0.69965443 -2.53665402 1.38434763 -3.8125 2.0625 C-4.52019531 2.44535156 -5.22789062 2.82820312 -5.95703125 3.22265625 C-8 4 -8 4 -11 3 C-4.03571429 -1.41964286 -4.03571429 -1.41964286 0 0 Z " fill="#3634A8" transform="translate(444,150)"/>
<path d="M0 0 C1.32 0.66 2.64 1.32 4 2 C2.71034824 3.37562854 1.37310707 4.70766393 0 6 C-0.66 6 -1.32 6 -2 6 C-1.125 1.125 -1.125 1.125 0 0 Z " fill="#343234" transform="translate(269,103)"/>
<path d="M0 0 C0.99 0 1.98 0 3 0 C2.25 6.75 2.25 6.75 0 9 C-1.10844919 5.67465243 -0.84454356 3.37817425 0 0 Z " fill="#363535" transform="translate(180,88)"/>
<path d="M0 0 C2.97 0 5.94 0 9 0 C8.67 1.32 8.34 2.64 8 4 C7.67 3.34 7.34 2.68 7 2 C4.69 2 2.38 2 0 2 C0 1.34 0 0.68 0 0 Z " fill="#757576" transform="translate(373,83)"/>
<path d="M0 0 C0.33 0.66 0.66 1.32 1 2 C3.31 2 5.62 2 8 2 C8 2.66 8 3.32 8 4 C5.03 4 2.06 4 -1 4 C-0.67 2.68 -0.34 1.36 0 0 Z " fill="#3635A6" transform="translate(503,151)"/>
<path d="M0 0 C2.97 0 5.94 0 9 0 C8.67 0.99 8.34 1.98 8 3 C8 2.34 8 1.68 8 1 C6.329375 1.7425 6.329375 1.7425 4.625 2.5 C1 4 1 4 -1 4 C-0.67 2.68 -0.34 1.36 0 0 Z " fill="#2322A3" transform="translate(608,84)"/>
<path d="M0 0 C1.45606519 4.52092968 0.27032841 7.51648796 -1 12 C-2.0625 10.1875 -2.0625 10.1875 -3 8 C-2.09456151 5.28368454 -1.07525194 2.65228812 0 0 Z " fill="#0C0B98" transform="translate(74,95)"/>
<path d="M0 0 C3.36720387 1.39332574 4.9859524 2.9789286 7 6 C4 6 4 6 1.8125 4.125 C0 2 0 2 0 0 Z " fill="#2724A2" transform="translate(617,127)"/>
<path d="M0 0 C3.3 0 6.6 0 10 0 C10.33 1.32 10.66 2.64 11 4 C10.484375 3.690625 9.96875 3.38125 9.4375 3.0625 C6.33334577 1.70940713 3.34884993 1.38640576 0 1 C0 0.67 0 0.34 0 0 Z " fill="#403EB0" transform="translate(443,90)"/>
</svg>
