<?xml version="1.0" encoding="UTF-8"?>
<svg
    xmlns="http://www.w3.org/2000/svg"
    width="1500"
    height="1200"
    viewBox="0 0 1500 1200">

    <!-- Background -->
    <rect width="100%" height="100%" fill="#0b0b0b"/>

    <!-- Center Everything -->
    <g transform="translate(750,650)">

        <!-- Fingerprint Icon -->
        <g transform="translate(-380,-40) scale(1.5)">
            <path d="M0,-80 C-60,-80 -80,-20 -80,20" stroke="#9e9e9e" stroke-width="10" fill="none" stroke-linecap="round"/>
            <path d="M0,-80 C60,-80 80,-20 80,20" stroke="#9e9e9e" stroke-width="10" fill="none" stroke-linecap="round"/>
            <path d="M0,-40 C-40,-40 -50,0 -50,40" stroke="#9e9e9e" stroke-width="10" fill="none" stroke-linecap="round"/>
            <path d="M0,-40 C40,-40 50,0 50,40" stroke="#9e9e9e" stroke-width="10" fill="none" stroke-linecap="round"/>
            <path d="M0,0 C-20,0 -25,30 -25,60" stroke="#9e9e9e" stroke-width="10" fill="none" stroke-linecap="round"/>
            <path d="M0,0 C20,0 25,30 25,60" stroke="#9e9e9e" stroke-width="10" fill="none" stroke-linecap="round"/>

            <circle cx="0" cy="100" r="45" fill="none" stroke="#4bb6c1" stroke-width="10"/>
            <path d="M-15,100 L-2,115 L20,90"
                  fill="none"
                  stroke="#4bb6c1"
                  stroke-width="10"
                  stroke-linecap="round"
                  stroke-linejoin="round"/>
        </g>

        <!-- Text (TRUE CENTER) -->
        <g transform="translate(150,0)">
            <text
                x="0"
                y="-20"
                text-anchor="middle"
                font-family="Arial, Helvetica, sans-serif"
                font-size="150"
                font-weight="600"
                fill="#4bb6c1">
                Biometric
            </text>

            <text
                x="0"
                y="160"
                text-anchor="middle"
                font-family="Arial, Helvetica, sans-serif"
                font-size="150"
                font-weight="600"
                fill="#cfcfcf">
                Attendance
            </text>
        </g>

    </g>
</svg>
